<?xml version="1.0" standalone="no"?>
<!DOCTYPE svg PUBLIC "-//W3C//DTD SVG 1.1//EN" "http://www.w3.org/Graphics/SVG/1.1/DTD/svg11.dtd" >
<svg xmlns="http://www.w3.org/2000/svg" xmlns:xlink="http://www.w3.org/1999/xlink" version="1.1">
<metadata>
Created by FontForge 20200314 at Fri Nov 15 17:15:58 2013
 By Unknown
Copyright (c) 2013 Monotype Imaging Inc. All right reserved.
</metadata>
<defs>
<font id="NeueHelveticaW04-89CmHeavy" horiz-adv-x="273" >
  <font-face 
    font-family="NeueHelveticaW04-89CmHeavy"
    font-weight="800"
    font-stretch="extra-condensed"
    units-per-em="1000"
    panose-1="2 11 9 8 2 2 2 2 2 4"
    ascent="800"
    descent="-200"
    x-height="550"
    cap-height="714"
    bbox="-306 -239 971 969"
    underline-thickness="50"
    underline-position="-100"
    unicode-range="U+000D-FB04"
  />
<missing-glyph horiz-adv-x="512" 
d="M512 718v-718h-512v718h512zM462 50v617h-412v-617h412zM259 609q54 0 89 -36t35 -95q0 -38 -16 -65t-48 -56q-33 -30 -40 -46q-8 -19 -8 -77h-46q-1 5 -1.5 9.5t-0.5 9.5q0 21 3 45t12 38q19 30 47 58q16 16 31.5 33.5t15.5 46.5q0 17 -6 32.5t-16 27t-24 18.5t-30 7
q-33 0 -54.5 -23.5t-27.5 -71.5l-50 8q7 68 41.5 102.5t93.5 34.5zM222 184h56v-67h-56v67z" />
    <glyph glyph-name=".notdef" horiz-adv-x="512" 
d="M512 718v-718h-512v718h512zM462 50v617h-412v-617h412zM259 609q54 0 89 -36t35 -95q0 -38 -16 -65t-48 -56q-33 -30 -40 -46q-8 -19 -8 -77h-46q-1 5 -1.5 9.5t-0.5 9.5q0 21 3 45t12 38q19 30 47 58q16 16 31.5 33.5t15.5 46.5q0 17 -6 32.5t-16 27t-24 18.5t-30 7
q-33 0 -54.5 -23.5t-27.5 -71.5l-50 8q7 68 41.5 102.5t93.5 34.5zM222 184h56v-67h-56v67z" />
    <glyph glyph-name="glyph1" horiz-adv-x="0" 
 />
    <glyph glyph-name="glyph1" horiz-adv-x="0" 
 />
    <glyph glyph-name="uni000D" unicode="&#xd;" horiz-adv-x="180" 
 />
    <glyph glyph-name="space" unicode=" " horiz-adv-x="180" 
 />
    <glyph glyph-name="exclam" unicode="!" horiz-adv-x="199" 
d="M163 509l-20 -282h-92l-19 282l-8 205h147zM36 0v162h122v-162h-122z" />
    <glyph glyph-name="quotedbl" unicode="&#x22;" horiz-adv-x="341" 
d="M36 714h108v-342h-108v342zM197 714h109v-342h-109v342z" />
    <glyph glyph-name="numbersign" unicode="#" horiz-adv-x="401" 
d="M60 0l13 188h-54v95h61l9 125h-52v95h59l14 191h90l-14 -191h57l14 191h90l-14 -191h53v-95h-60l-9 -125h52v-95h-59l-13 -188h-90l13 188h-57l-13 -188h-90zM170 283h57l9 125h-57z" />
    <glyph glyph-name="dollar" unicode="$" horiz-adv-x="401" 
d="M382 200q0 -97 -36 -146.5t-108 -59.5v-67h-71v67q-37 3 -63.5 15.5t-44 38t-26.5 66.5t-11 102h136q1 -30 4 -50t7.5 -31.5t12 -16t19.5 -4.5q37 0 37 56q0 37 -16 61.5t-40 44.5t-51.5 39t-51.5 45t-40 64t-16 96q0 86 36 130.5t108 52.5v63h71v-62q39 -5 64.5 -20
t41.5 -41t22.5 -62t6.5 -82h-120q-1 44 -9 66.5t-34 22.5q-23 0 -30 -16.5t-7 -35.5q0 -34 15.5 -56.5t38.5 -41t50.5 -37t50.5 -44.5t38.5 -63.5t15.5 -93.5z" />
    <glyph glyph-name="percent" unicode="%" horiz-adv-x="504" 
d="M227 539q0 -91 -23 -129t-81 -38q-56 0 -78 38t-22 129q0 85 21 124t79 39q59 0 81.5 -39t22.5 -124zM140 539q0 30 -0.5 48t-2.5 28t-5.5 13.5t-8.5 3.5q-9 0 -12 -19t-3 -74q0 -30 0.5 -48.5t2 -29t4.5 -14t8 -3.5t8.5 4t5.5 14.5t2.5 29t0.5 47.5zM326 708h88
l-238 -716h-88zM482 163q0 -91 -23 -129t-81 -38q-56 0 -78 38t-22 129q0 42 4.5 72.5t16 51t31 30t48.5 9.5q59 0 81.5 -39t22.5 -124zM395 163q0 30 -0.5 48.5t-2.5 28t-5.5 13t-8.5 3.5q-9 0 -12 -19t-3 -74q0 -30 0.5 -48.5t2 -29t4.5 -14t8 -3.5t8.5 4t5.5 14.5t2.5 29
t0.5 47.5z" />
    <glyph glyph-name="ampersand" unicode="&#x26;" horiz-adv-x="495" 
d="M386 567q0 -29 -6.5 -52t-20 -44t-34.5 -40.5t-50 -41.5l76 -139q4 17 6 37t4 43h118q-4 -53 -19 -103.5t-40 -93.5l76 -133h-148l-24 44q-28 -26 -60 -39t-74 -13q-45 0 -78 14.5t-55 41t-33 63.5t-11 81q0 36 7 64t21.5 52t35.5 45.5t49 44.5l-6 11q-19 34 -31.5 68.5
t-12.5 74.5q0 75 37.5 118.5t118.5 43.5q80 0 117 -42t37 -105zM220 109q32 0 52 25l-92 171q-14 -19 -21 -39t-7 -49q0 -48 14.5 -78t53.5 -30zM199 558q0 -34 19 -70l8 -14q20 20 29.5 40t9.5 43q0 26 -9.5 36t-23.5 10q-33 0 -33 -45z" />
    <glyph glyph-name="quotesingle" unicode="'" horiz-adv-x="180" 
d="M36 714h108v-342h-108v342z" />
    <glyph glyph-name="parenleft" unicode="(" horiz-adv-x="262" 
d="M251 721q-24 -50 -41 -105t-27.5 -112t-15.5 -114.5t-5 -112.5q0 -58 5.5 -118t16.5 -118.5t27.5 -114t39.5 -103.5h-87q-29 46 -54 96.5t-43.5 106.5t-29.5 118.5t-11 132.5q0 134 38 241.5t100 202.5h87z" />
    <glyph glyph-name="parenright" unicode=")" horiz-adv-x="262" 
d="M98 721q31 -47 56.5 -97t43.5 -105t28 -115t10 -127q0 -70 -11 -132.5t-29.5 -118.5t-44 -106.5t-53.5 -96.5h-86q22 48 39 103.5t28 114t16.5 118.5t5.5 118q0 55 -5 112.5t-15.5 114.5t-27.5 112t-41 105h86z" />
    <glyph glyph-name="asterisk" unicode="*" horiz-adv-x="322" 
d="M107 414l-70 52l54 76l-87 26l27 83l87 -31v94h86v-94l87 31l27 -83l-87 -26l54 -76l-70 -52l-54 80z" />
    <glyph glyph-name="plus" unicode="+" horiz-adv-x="401" 
d="M257 198v-132h-113v132h-126v111h126v132h113v-132h126v-111h-126z" />
    <glyph glyph-name="comma" unicode="," horiz-adv-x="180" 
d="M150 38q0 -40 -6 -74t-20 -60t-38.5 -42t-60.5 -19v79q17 4 31 20t14 53v10h-45v184h125v-151z" />
    <glyph glyph-name="hyphen" unicode="-" horiz-adv-x="255" 
d="M15 234v136h226v-136h-226z" />
    <glyph glyph-name="period" unicode="." horiz-adv-x="180" 
d="M27 0v189h125v-189h-125z" />
    <glyph glyph-name="slash" unicode="/" horiz-adv-x="255" 
d="M-11 -19l166 750h110l-166 -750h-110z" />
    <glyph glyph-name="zero" unicode="0" horiz-adv-x="401" 
d="M385 352q0 -100 -7.5 -169t-28.5 -111.5t-57 -61t-93 -18.5q-56 0 -92 18.5t-56 61t-27.5 111.5t-7.5 169q0 94 7 161.5t27 110t56 62.5t94 20q59 0 95 -19.5t56 -62t27 -109.5t7 -163zM237 352q0 76 -1.5 122t-5 71t-11 33t-19.5 8t-19 -10.5t-10.5 -36.5t-5 -71.5
t-1.5 -115.5q0 -75 1 -121.5t5 -73t10.5 -35.5t18.5 -9t19.5 11.5t11.5 39t5.5 73.5t1.5 115z" />
    <glyph glyph-name="one" unicode="1" horiz-adv-x="401" 
d="M148 0v511h-103v100q62 3 94 24.5t46 69.5h105v-705h-142z" />
    <glyph glyph-name="two" unicode="2" horiz-adv-x="401" 
d="M26 0v29q0 42 9 76.5t25.5 67t40.5 65.5t54 72q21 27 36 50.5t25 47t14.5 49t4.5 57.5q0 40 -8 58t-28 18q-23 0 -30.5 -28.5t-8.5 -81.5h-135q0 53 8 95t28.5 71t55.5 44.5t88 15.5q91 0 134 -47.5t43 -148.5q0 -42 -8.5 -77t-22.5 -66t-32.5 -57t-37.5 -50
q-31 -37 -54.5 -71t-31.5 -72h181v-117h-350z" />
    <glyph glyph-name="three" unicode="3" horiz-adv-x="401" 
d="M384 204q0 -65 -17 -106t-44.5 -64.5t-61.5 -32.5t-68 -9q-50 0 -84.5 13.5t-56 41t-31.5 69.5t-10 99h141q1 -60 10 -88t32 -28q11 0 19.5 3.5t14.5 15t9 31.5t3 53q0 36 -3.5 58t-13 34t-27.5 16t-48 4v96q26 0 43 3.5t26.5 14.5t13.5 31t4 53q0 47 -8.5 65.5
t-31.5 18.5q-26 0 -33 -28t-7 -75h-137q3 53 13.5 93t32.5 66.5t55.5 40t83.5 13.5q36 0 67.5 -9.5t55 -30.5t36.5 -54t13 -81q0 -72 -21 -109t-67 -53v-2q55 -14 76 -52.5t21 -110.5z" />
    <glyph glyph-name="four" unicode="4" horiz-adv-x="401" 
d="M218 0v127h-209v111l174 460h163v-459h47v-112h-47v-127h-128zM218 485h-2l-87 -246h89v246z" />
    <glyph glyph-name="five" unicode="5" horiz-adv-x="401" 
d="M379 254q0 -72 -9.5 -122t-31.5 -81t-56.5 -45t-85.5 -14q-41 0 -73 9.5t-53.5 33.5t-33 65t-12.5 104h143q1 -51 5.5 -78t24.5 -27q10 0 16.5 6.5t10.5 22.5t5.5 42t1.5 64q0 72 -6 100t-28 28q-19 0 -25.5 -17.5t-8.5 -37.5h-129l10 388h310v-116h-189l-8 -152l2 2
q15 26 35 40.5t59 14.5t63.5 -15.5t38.5 -44.5t19 -72t5 -98z" />
    <glyph glyph-name="six" unicode="6" horiz-adv-x="401" 
d="M385 251q0 -77 -13.5 -127t-38 -79t-59 -41t-77.5 -12q-58 0 -93.5 18t-55 57.5t-26.5 102t-7 150.5q0 89 5.5 160.5t25 121.5t58.5 77t105 27q47 0 77 -13t48 -36.5t25 -56t8 -71.5h-128q-1 37 -8.5 51.5t-24.5 14.5q-12 0 -20.5 -7.5t-14 -28t-8 -56.5t-2.5 -92h2
q13 24 36.5 41t60.5 17q26 0 49 -9t40 -33t26.5 -66.5t9.5 -109.5zM232 223q0 36 -1 60t-5 38t-10.5 19.5t-17.5 5.5q-23 0 -29 -31.5t-6 -92.5q0 -35 1.5 -58t5 -36.5t10 -19t17.5 -5.5q9 0 16 4t11 17t6 36.5t2 62.5z" />
    <glyph glyph-name="seven" unicode="7" horiz-adv-x="401" 
d="M78 0q17 165 58 306t96 256h-217v133h365v-121q-30 -67 -53.5 -132t-41 -134t-30 -144.5t-20.5 -163.5h-157z" />
    <glyph glyph-name="eight" unicode="8" horiz-adv-x="401" 
d="M388 201q0 -113 -45.5 -161t-141.5 -48q-98 0 -143 48.5t-45 160.5q0 33 4 61.5t14 50.5t27 37.5t43 24.5v2q-38 16 -55.5 52.5t-17.5 93.5q0 92 42 137.5t131 45.5q88 0 130.5 -44.5t42.5 -138.5q0 -60 -18.5 -95t-55.5 -51v-2q51 -16 69.5 -58.5t18.5 -115.5zM240 208
q0 53 -6.5 82t-33.5 29q-26 0 -32.5 -30t-6.5 -79q0 -27 1 -47t5 -33.5t12 -20t22 -6.5q26 0 32.5 27t6.5 78zM236 513q0 44 -6.5 63.5t-29.5 19.5q-20 0 -27.5 -19.5t-7.5 -64.5q0 -51 6.5 -72t29.5 -21q21 0 28 21.5t7 72.5z" />
    <glyph glyph-name="nine" unicode="9" horiz-adv-x="401" 
d="M381 378q0 -89 -5.5 -160.5t-25 -121.5t-58.5 -77t-105 -27q-47 0 -77 13t-48 36.5t-25 56t-7 71.5h127q2 -37 9.5 -51.5t24.5 -14.5q12 0 20.5 7.5t14 28t8 56.5t2.5 93h-2q-14 -25 -37.5 -42t-59.5 -17q-27 0 -50 8.5t-40 32.5t-26.5 66.5t-9.5 110.5q0 76 13.5 126.5
t38 79.5t59.5 41t78 12q58 0 93.5 -18t55 -57.5t26 -102t6.5 -150.5zM233 476q0 35 -1 58t-5 36.5t-10.5 19t-16.5 5.5q-9 0 -16 -4t-11 -17t-6 -36.5t-2 -62.5q0 -36 1 -60t4.5 -38.5t10 -20t17.5 -5.5q23 0 29 32t6 93z" />
    <glyph glyph-name="colon" unicode=":" horiz-adv-x="180" 
d="M27 0v189h125v-189h-125zM27 355v189h125v-189h-125z" />
    <glyph glyph-name="semicolon" unicode=";" horiz-adv-x="180" 
d="M27 355v189h125v-189h-125zM152 38q0 -48 -6 -83t-20.5 -59t-38.5 -37t-61 -16v79q9 2 17 5.5t14.5 11.5t10 21.5t3.5 34.5v10h-44v184h125v-151z" />
    <glyph glyph-name="less" unicode="&#x3c;" horiz-adv-x="401" 
d="M15 174v160l365 140v-122l-260 -99l260 -99v-121z" />
    <glyph glyph-name="equal" unicode="=" horiz-adv-x="401" 
d="M18 284v112h365v-112h-365zM18 112v111h365v-111h-365z" />
    <glyph glyph-name="greater" unicode="&#x3e;" horiz-adv-x="401" 
d="M21 33v121l260 99l-260 99v122l365 -140v-160z" />
    <glyph glyph-name="question" unicode="?" horiz-adv-x="356" 
d="M116 227v10q0 34 4 59.5t11.5 46.5t19.5 40.5t29 42.5q16 23 28 47.5t12 59.5q0 32 -9 50.5t-33 18.5q-27 0 -37 -24.5t-10 -81.5h-121q0 51 8 92.5t27.5 71t52 46t81.5 16.5q85 0 125 -47.5t40 -133.5q0 -29 -5.5 -52t-14.5 -42t-20.5 -35.5t-23.5 -31.5
q-15 -20 -25.5 -37t-17 -34.5t-9 -37t-2.5 -44.5h-110zM110 0v162h121v-162h-121z" />
    <glyph glyph-name="at" unicode="@" horiz-adv-x="567" 
d="M548 432q0 -83 -17 -137.5t-43 -87t-56 -45.5t-55 -13q-23 0 -38 11.5t-15 34.5v8h-2q-16 -26 -37 -40t-51 -14q-28 0 -47.5 13t-31.5 36t-17.5 53.5t-5.5 65.5q0 48 11 90.5t31 74.5t47 50.5t60 18.5q29 0 50 -14t35 -45h1l8 41h63l-42 -248q-4 -17 -4 -36q0 -13 3 -19
t12 -6q15 0 28.5 13.5t23.5 38.5t16 60.5t6 78.5q0 250 -188 250q-56 0 -95.5 -25t-64.5 -67.5t-36 -98.5t-11 -118q0 -65 11 -121.5t34 -98t60 -65.5t89 -24q55 0 93.5 21.5t58.5 58.5h83q-39 -78 -100 -111t-138 -33q-68 0 -117 27t-80.5 76t-46 118t-14.5 152
q0 89 19 159t55 118t87 73t115 25t112 -22.5t79 -62.5t46.5 -95t15.5 -119zM215 318q0 -49 11.5 -69.5t34.5 -20.5q18 0 33 15.5t25.5 39t16.5 52.5t6 56q0 43 -11 65t-38 22q-18 0 -32.5 -13t-24.5 -35t-15.5 -51t-5.5 -61z" />
    <glyph glyph-name="A" unicode="A" horiz-adv-x="401" 
d="M255 0l-15 135h-80l-13 -135h-150l103 714h201l104 -714h-150zM197 566h-2l-28 -309h63z" />
    <glyph glyph-name="B" unicode="B" horiz-adv-x="409" 
d="M398 206q0 -110 -52 -158t-142 -48h-179v714h175q42 0 76 -8.5t58 -28.5t37 -52.5t13 -81.5q0 -65 -18.5 -104.5t-62.5 -56.5v-3q56 -18 75.5 -59t19.5 -114zM239 517q0 47 -12.5 65t-38.5 18h-15v-182h19q26 0 36.5 27t10.5 72zM247 216q0 60 -13 81t-40 21h-21v-204h17
q30 0 43.5 25.5t13.5 76.5z" />
    <glyph glyph-name="C" unicode="C" horiz-adv-x="398" 
d="M388 275q-1 -78 -11 -132t-32 -87.5t-57 -48.5t-87 -15q-56 0 -92 20.5t-57 64.5t-29 113t-8 167q0 97 9 166.5t31.5 113.5t60.5 64.5t96 20.5q51 0 84.5 -15t53 -46t27.5 -78.5t8 -111.5h-131q-1 74 -10 102.5t-31 28.5q-13 0 -22 -8.5t-14.5 -34.5t-8 -74.5
t-2.5 -127.5q0 -78 2 -126t6.5 -74.5t12.5 -35t21 -8.5q11 0 19 6.5t13.5 24.5t8 49.5t3.5 81.5h136v0z" />
    <glyph glyph-name="D" unicode="D" horiz-adv-x="419" 
d="M404 362q0 -81 -8.5 -147.5t-31 -114t-61 -74t-98.5 -26.5h-180v714h178q63 0 102 -22t61 -66.5t30 -110.5t8 -153zM253 359q0 76 -4.5 120t-13 66.5t-19 28.5t-22.5 6h-21v-446h22q14 0 25 8t18.5 32.5t11 68.5t3.5 116z" />
    <glyph glyph-name="E" unicode="E" horiz-adv-x="342" 
d="M25 0v714h300v-134h-152v-151h131v-125h-131v-170h156v-134h-304z" />
    <glyph glyph-name="F" unicode="F" horiz-adv-x="328" 
d="M25 0v714h295v-134h-147v-151h129v-125h-129v-304h-148z" />
    <glyph glyph-name="G" unicode="G" horiz-adv-x="425" 
d="M295 0l-7 57h-3q-21 -35 -47.5 -50t-68.5 -15q-44 0 -73.5 21.5t-47.5 67t-25.5 115t-7.5 165.5q0 105 12 175t37.5 111t64 58t91.5 17q52 0 86.5 -15t55 -44t29 -73t8.5 -101h-129q-1 60 -11 86.5t-38 26.5q-17 0 -27.5 -8t-16.5 -33.5t-8.5 -73t-2.5 -125.5
q0 -80 2.5 -129t8.5 -75.5t15.5 -35.5t24.5 -9q13 0 22.5 6.5t16 24t9.5 47t3 76.5v7h-60v112h195v-386h-108z" />
    <glyph glyph-name="H" unicode="H" horiz-adv-x="416" 
d="M243 0v304h-70v-304h-148v714h148v-272h70v272h148v-714h-148z" />
    <glyph glyph-name="I" unicode="I" horiz-adv-x="198" 
d="M25 0v714h148v-714h-148z" />
    <glyph glyph-name="J" unicode="J" horiz-adv-x="352" 
d="M327 172q0 -50 -11 -84.5t-32 -55.5t-52.5 -30.5t-72.5 -9.5q-37 0 -66 8t-49 28.5t-30.5 57t-10.5 93.5v16h128v-20q0 -32 3.5 -46.5t19.5 -14.5t20.5 15.5t4.5 42.5v542h148v-542z" />
    <glyph glyph-name="K" unicode="K" horiz-adv-x="407" 
d="M259 0l-62 256l-24 -60v-196h-148v714h148v-278h2l78 278h159l-110 -297l117 -417h-160z" />
    <glyph glyph-name="L" unicode="L" horiz-adv-x="328" 
d="M28 0v714h148v-580h146v-134h-294z" />
    <glyph glyph-name="M" unicode="M" horiz-adv-x="537" 
d="M383 0v469h-2l-52 -469h-120l-52 469h-2v-469h-134v714h200l47 -467h2l56 467h190v-714h-133z" />
    <glyph glyph-name="N" unicode="N" horiz-adv-x="430" 
d="M254 0l-93 395h-2v-395h-134v714h154l90 -390h2v390h134v-714h-151z" />
    <glyph glyph-name="O" unicode="O" horiz-adv-x="412" 
d="M398 357q0 -99 -8 -168.5t-29.5 -113t-59 -63.5t-96.5 -20t-96 20t-58 63.5t-28.5 113t-7.5 168.5q0 94 7 163t28 114t58 66.5t97 21.5q61 0 99 -21.5t59 -66t28 -113.5t7 -164zM247 357q0 78 -2 124t-6.5 70.5t-12.5 31.5t-21 7q-12 0 -19.5 -9.5t-12 -35.5t-6 -71.5
t-1.5 -116.5q0 -77 1.5 -122.5t6 -70t12 -32t19.5 -7.5q13 0 21 10t12.5 35.5t6.5 70.5t2 116z" />
    <glyph glyph-name="P" unicode="P" horiz-adv-x="397" 
d="M389 489q0 -117 -46 -177.5t-142 -60.5h-28v-251h-148v714h166q45 0 81.5 -8.5t62.5 -33t40 -68.5t14 -115zM236 484q0 54 -9.5 77t-37.5 23h-16v-204h16q26 0 36.5 24.5t10.5 79.5z" />
    <glyph glyph-name="Q" unicode="Q" horiz-adv-x="412" 
d="M398 357q0 -110 -10 -182.5t-36 -115.5l60 -89l-104 -78l-69 102q-8 -1 -16.5 -1.5t-17.5 -0.5q-59 0 -96 20t-58 63.5t-28.5 113t-7.5 168.5q0 94 7 163t28 114t58 66.5t97 21.5q61 0 99 -21.5t59 -66t28 -113.5t7 -164zM247 357q0 78 -2 124.5t-6.5 70.5t-12.5 31.5
t-21 7.5q-12 0 -19.5 -10t-12 -36t-6 -71.5t-1.5 -116.5q0 -77 1.5 -122.5t6 -70t12 -32t19.5 -7.5q13 0 21 10t12.5 35.5t6.5 70.5t2 116z" />
    <glyph glyph-name="R" unicode="R" horiz-adv-x="414" 
d="M392 534q0 -75 -19.5 -116.5t-67.5 -61.5v-3q24 -7 39.5 -17.5t24.5 -30t13 -50t5 -77.5q1 -80 4.5 -120t12.5 -50v-8h-149q-3 7 -4.5 22t-3 35.5t-2.5 44t-1 48.5q0 46 -3 72.5t-8.5 40t-15 16.5t-23.5 3h-21v-282h-148v714h191q93 0 134.5 -47t41.5 -133zM247 502
q0 47 -11.5 68.5t-40.5 21.5h-19v-196h22q28 0 38.5 27t10.5 79z" />
    <glyph glyph-name="S" unicode="S" horiz-adv-x="383" 
d="M372 205q0 -109 -46.5 -161t-136.5 -52q-46 0 -78.5 11t-53.5 37t-32 70.5t-13 111.5h135q3 -62 11.5 -85t31.5 -23q37 0 37 57q0 39 -16 64.5t-40 46t-51.5 40t-51.5 47t-40 66t-16 96.5q0 98 46 144.5t133 46.5q49 0 82 -14t53 -41t28.5 -66.5t8.5 -91.5h-120
q-2 45 -9.5 70t-33.5 25q-24 0 -30.5 -17.5t-6.5 -36.5q0 -36 15.5 -59.5t38.5 -42.5t50.5 -37.5t50.5 -45t38.5 -64.5t15.5 -96z" />
    <glyph glyph-name="T" unicode="T" horiz-adv-x="364" 
d="M107 0v580h-101v134h352v-134h-102v-580h-149z" />
    <glyph glyph-name="U" unicode="U" horiz-adv-x="402" 
d="M381 181q0 -100 -43 -145t-137 -45q-51 0 -85.5 11t-55.5 34t-30 58.5t-9 85.5v534h149v-550q0 -22 7 -33t24 -11q32 0 32 44v550h148v-533v0z" />
    <glyph glyph-name="V" unicode="V" horiz-adv-x="396" 
d="M110 0l-115 714h161l46 -483h2l49 483h149l-110 -714h-182z" />
    <glyph glyph-name="W" unicode="W" horiz-adv-x="541" 
d="M315 0l-37 417h-2l-41 -417h-157l-82 714h143l32 -450h2l35 450h139l31 -450h2l34 450h132l-80 -714h-151z" />
    <glyph glyph-name="X" unicode="X" horiz-adv-x="403" 
d="M246 0l-46 223h-2l-41 -223h-166l106 358l-101 356h161l45 -213h1l46 213h161l-106 -354l109 -360h-167z" />
    <glyph glyph-name="Y" unicode="Y" horiz-adv-x="399" 
d="M128 0v235l-139 479h164l47 -283h2l53 283h155l-134 -479v-235h-148z" />
    <glyph glyph-name="Z" unicode="Z" horiz-adv-x="374" 
d="M11 0v107l174 473h-162v134h336v-122l-169 -458h170v-134h-349z" />
    <glyph glyph-name="bracketleft" unicode="[" horiz-adv-x="262" 
d="M51 -177v898h192v-100h-62v-697h62v-101h-192z" />
    <glyph glyph-name="backslash" unicode="\" horiz-adv-x="255" 
d="M155 -19l-166 750h110l166 -750h-110z" />
    <glyph glyph-name="bracketright" unicode="]" horiz-adv-x="262" 
d="M19 -177v101h63v697h-63v100h193v-898h-193z" />
    <glyph glyph-name="asciicircum" unicode="^" horiz-adv-x="409" 
d="M289 376l-84 223l-85 -223h-121l126 329h158l126 -329h-120z" />
    <glyph glyph-name="underscore" unicode="_" horiz-adv-x="500" 
d="M0 -132v54h500v-54h-500z" />
    <glyph glyph-name="grave" unicode="`" horiz-adv-x="271" 
d="M122 596l-62 146h133l18 -146h-89z" />
    <glyph glyph-name="a" unicode="a" horiz-adv-x="343" 
d="M201 0q-2 14 -3.5 26t-1.5 27h-3q-11 -34 -33.5 -47.5t-50.5 -13.5q-53 0 -75.5 39.5t-22.5 120.5q0 67 22.5 104.5t79.5 57.5l29 9q19 6 29.5 12.5t15.5 15.5t6.5 20.5t1.5 28.5q0 32 -3.5 47t-20.5 15q-15 0 -22 -15.5t-7 -63.5h-118q-1 43 6.5 76t24.5 55t46 33t71 11
q32 0 59 -5.5t46.5 -20.5t30.5 -42t11 -70v-375q0 -10 1.5 -23t4.5 -22h-124zM195 268h-2q-5 -7 -10 -10t-16 -10q-12 -8 -18 -22t-6 -51q0 -41 5.5 -55t18.5 -14q28 0 28 57v105z" />
    <glyph glyph-name="b" unicode="b" horiz-adv-x="359" 
d="M346 283q0 -78 -4.5 -133.5t-17 -90.5t-34.5 -51t-56 -16q-27 0 -47 14.5t-33 49.5h-2v-56h-130v717h134v-218h2q12 36 32 47.5t49 11.5q30 0 50.5 -14t33 -46.5t18 -85t5.5 -129.5zM212 274q0 55 -1.5 87.5t-4.5 49.5t-8.5 22t-12.5 5t-12.5 -5.5t-9 -22.5t-5.5 -49
t-2 -85q0 -89 5.5 -126t21.5 -37q8 0 13.5 4t9 19.5t5 48t1.5 89.5z" />
    <glyph glyph-name="c" unicode="c" horiz-adv-x="330" 
d="M321 222q0 -69 -8 -113.5t-26 -70.5t-47.5 -36t-72.5 -10q-47 0 -77 14.5t-47 47.5t-23.5 87t-6.5 134q0 74 7 127.5t25 88t49.5 51t80.5 16.5q79 0 112.5 -48.5t33.5 -159.5h-118q0 31 -2 51.5t-5 32t-8 16t-12 4.5q-8 0 -13.5 -4.5t-9 -22.5t-5 -54.5t-1.5 -100.5
q0 -61 1.5 -96t5 -53t9 -22.5t12.5 -4.5q8 0 13.5 5.5t9 19.5t5 38.5t1.5 62.5h117v0z" />
    <glyph glyph-name="d" unicode="d" horiz-adv-x="359" 
d="M13 287q0 76 6 128t18.5 84t33.5 45.5t51 13.5q28 0 48 -11.5t31 -46.5h2v217h134v-717h-130v58h-2q-13 -35 -35.5 -50.5t-50.5 -15.5q-35 0 -55.5 16.5t-32 52t-15 91.5t-3.5 135zM147 279q0 -59 1.5 -92t4.5 -49.5t8.5 -20.5t13.5 -4t13.5 8.5t8.5 28t4.5 50.5t1.5 77
q0 52 -1.5 83.5t-5 48.5t-8.5 23t-12 6q-8 0 -13 -4.5t-9 -21t-5.5 -48t-1.5 -85.5z" />
    <glyph glyph-name="e" unicode="e" horiz-adv-x="342" 
d="M322 192q0 -30 -4.5 -65t-19.5 -65t-45 -50t-82 -20q-48 0 -79 16.5t-48.5 51.5t-24 90.5t-6.5 132.5q0 144 37 209.5t125 65.5q51 0 81 -20t46.5 -59t21.5 -98t5 -137h-188v-5q0 -50 1.5 -79t5.5 -44t10 -19.5t15 -4.5q20 0 25.5 29t5.5 71h118zM208 333q0 37 -1.5 60.5
t-5.5 37.5t-10 19.5t-16 5.5q-9 0 -15.5 -4.5t-10.5 -18t-6 -37.5t-2 -63h67z" />
    <glyph glyph-name="f" unicode="f" horiz-adv-x="227" 
d="M44 0v443h-38v107h38v23q0 36 5 63.5t19 47t38 29.5t62 10h29.5t30.5 -2v-102q-6 1 -8.5 1h-4.5q-20 0 -26.5 -10.5t-6.5 -36.5v-23h42v-107h-46v-443h-134z" />
    <glyph glyph-name="g" unicode="g" horiz-adv-x="361" 
d="M339 -13q0 -95 -40 -132.5t-126 -37.5q-47 0 -74.5 11t-42.5 31t-20.5 48t-6.5 63h117q1 -32 7.5 -45t20.5 -13t22.5 11.5t8.5 50.5v94h-2q-12 -35 -33.5 -47t-48.5 -12q-31 0 -51.5 12.5t-33 42.5t-18 81t-5.5 128q0 78 5 132.5t18 88t34.5 49t54.5 15.5q27 0 48 -15
t34 -49h2v56h130v-563zM205 279q0 89 -6 123.5t-22 34.5q-8 0 -13.5 -4t-9.5 -19.5t-5.5 -46.5t-1.5 -86t1.5 -86.5t5 -47t9 -19.5t12.5 -4t13 4t9.5 20t5.5 47t2 84z" />
    <glyph glyph-name="h" unicode="h" horiz-adv-x="365" 
d="M209 0v407q0 18 -5.5 27t-19.5 9q-13 0 -20.5 -11t-7.5 -30v-402h-134v717h134v-216h2q17 29 38.5 43t54.5 14q52 0 72 -30t20 -80v-448h-134z" />
    <glyph glyph-name="i" unicode="i" horiz-adv-x="177" 
d="M22 598v125h133v-125h-133zM22 0v550h133v-550h-133z" />
    <glyph glyph-name="j" unicode="j" horiz-adv-x="181" 
d="M157 -66q0 -63 -30.5 -90t-99.5 -27h-23.5t-25.5 2v101q8 -1 9.5 -1h6.5q30 0 30 31v600h133v-616zM24 598v125h133v-125h-133z" />
    <glyph glyph-name="k" unicode="k" horiz-adv-x="367" 
d="M229 0l-53 221l-20 -55v-166h-134v717h134v-367h3l66 200h139l-80 -222l87 -328h-142z" />
    <glyph glyph-name="l" unicode="l" horiz-adv-x="182" 
d="M24 0v717h134v-717h-134z" />
    <glyph glyph-name="m" unicode="m" horiz-adv-x="548" 
d="M392 0v407q0 18 -5 27t-19 9q-12 0 -19.5 -10t-7.5 -28v-405h-134v407q0 18 -5 27t-19 9q-13 0 -20 -11t-7 -30v-402h-134v550h130v-56h2q16 34 39.5 49t56.5 15q41 0 61 -19t27 -52q15 33 39.5 52t59.5 19q52 0 70.5 -29.5t18.5 -80.5v-448h-134z" />
    <glyph glyph-name="n" unicode="n" horiz-adv-x="365" 
d="M209 0v407q0 18 -5.5 27t-19.5 9q-13 0 -20.5 -11t-7.5 -30v-402h-134v550h130v-56h2q17 34 40.5 49t56.5 15q52 0 72 -30t20 -80v-448h-134z" />
    <glyph glyph-name="o" unicode="o" horiz-adv-x="351" 
d="M338 275q0 -77 -7 -130.5t-25.5 -87.5t-50 -49.5t-80.5 -15.5t-80.5 15.5t-49.5 49.5t-25 88t-7 130q0 71 6.5 124t24 88.5t49 53t82.5 17.5q52 0 84 -17.5t49.5 -53t23.5 -88.5t6 -124zM204 275q0 60 -1 95.5t-4 54t-9 24t-15 5.5q-8 0 -13.5 -7t-8.5 -27t-4.5 -55
t-1.5 -90q0 -60 1.5 -95.5t4.5 -54t8.5 -23.5t13.5 -5q9 0 14.5 7t9 26.5t4.5 54t1 90.5z" />
    <glyph glyph-name="p" unicode="p" horiz-adv-x="359" 
d="M346 263q0 -77 -5.5 -128.5t-18.5 -83.5t-33.5 -45.5t-50.5 -13.5q-28 0 -48 11.5t-32 46.5h-2v-230h-134v730h130v-58h2q13 35 35.5 50.5t50.5 15.5q35 0 56 -16.5t32 -52t14.5 -91.5t3.5 -135zM212 271q0 58 -1.5 91.5t-4.5 50t-8 20.5t-13 4t-13.5 -8.5t-9 -28
t-5 -50.5t-1.5 -77q0 -52 1.5 -83.5t5 -49t9 -23t12.5 -5.5t12.5 4.5t9 21t5 48t1.5 85.5z" />
    <glyph glyph-name="q" unicode="q" horiz-adv-x="359" 
d="M13 268q0 78 5 133t17.5 90t33.5 51t54 16q28 0 48.5 -15t33.5 -49h2v56h130v-730h-134v231h-2q-12 -35 -33.5 -47t-48.5 -12q-30 0 -50.5 14t-33 46.5t-17.5 85t-5 130.5zM147 275q0 -54 1.5 -86.5t5 -49.5t8.5 -22t13 -5q7 0 12.5 5.5t9 22.5t5 49t1.5 85
q0 89 -5.5 126t-21.5 37q-8 0 -13.5 -4t-9 -20t-5 -48.5t-1.5 -89.5z" />
    <glyph glyph-name="r" unicode="r" horiz-adv-x="247" 
d="M22 0v550h131v-74h2q8 41 25 61.5t49 20.5h5.5t8.5 -1v-147q-10 1 -16.5 1.5t-14.5 0.5q-32 0 -44 -18t-12 -44v-350h-134z" />
    <glyph glyph-name="s" unicode="s" horiz-adv-x="318" 
d="M308 163q0 -38 -7.5 -69.5t-25 -54t-47 -35t-74.5 -12.5q-76 0 -107 42.5t-35 134.5h120q2 -38 6.5 -61t21.5 -23t20.5 16t3.5 33q0 29 -12.5 47.5t-32 33.5t-41.5 29t-41.5 34t-32 49t-12.5 75q0 78 36 117t113 39q45 0 72.5 -12.5t42.5 -34.5t20 -52.5t5 -66.5h-108
q-1 29 -5.5 49t-23.5 20q-16 0 -20 -14.5t-4 -29.5q0 -25 12.5 -40.5t31 -29t40.5 -27t40.5 -33.5t31 -49.5t12.5 -74.5z" />
    <glyph glyph-name="t" unicode="t" horiz-adv-x="236" 
d="M224 3q-17 -3 -36 -5t-41 -2q-32 0 -52 7.5t-31 21t-15 33.5t-4 45v340h-39v107h39v146h134v-146h45v-107h-45v-315q0 -14 7.5 -17.5t15.5 -3.5q10 0 22 3v-107v0z" />
    <glyph glyph-name="u" unicode="u" horiz-adv-x="362" 
d="M210 0v54h-2q-14 -35 -37 -48.5t-56 -13.5q-50 0 -72 29t-22 81v448h133v-407q0 -36 24 -36q13 0 20.5 11t7.5 30v402h134v-550h-130z" />
    <glyph glyph-name="v" unicode="v" horiz-adv-x="338" 
d="M84 0l-86 550h139l31 -400h3l36 400h135l-92 -550h-166z" />
    <glyph glyph-name="w" unicode="w" horiz-adv-x="495" 
d="M279 0l-24 364h-2l-30 -364h-146l-75 550h138l17 -354h2l34 354h131l24 -354h2l24 354h121l-69 -550h-147z" />
    <glyph glyph-name="x" unicode="x" horiz-adv-x="350" 
d="M209 0l-40 175l-38 -175h-139l91 286l-86 264h148l38 -170l40 170h136l-89 -275l87 -275h-148z" />
    <glyph glyph-name="y" unicode="y" horiz-adv-x="342" 
d="M244 -23q-8 -45 -17.5 -76t-26.5 -49.5t-44.5 -26.5t-70.5 -8q-18 0 -31.5 0.5t-28.5 2.5v101q19 -3 33 -3q19 0 27 7.5t11 23.5q1 9 1 18t-2 20l-99 563h141l35 -380h1l39 380h136l-104 -573v0z" />
    <glyph glyph-name="z" unicode="z" horiz-adv-x="301" 
d="M10 0v95l123 348h-121v107h276v-89l-132 -353h134v-108h-280z" />
    <glyph glyph-name="braceleft" unicode="{" horiz-adv-x="292" 
d="M272 625h-17q-25 0 -38 -11t-13 -52v-145q0 -41 -4 -66.5t-13.5 -41.5t-26.5 -23.5t-42 -11.5v-2q27 -5 44 -14.5t26 -26t12.5 -40t3.5 -56.5v-150q0 -41 11 -53t31 -12h26v-97h-72q-40 0 -64.5 11.5t-38.5 30t-19 42.5t-5 49v140q0 37 -1.5 60t-7.5 36.5t-17.5 18.5
t-31.5 5v115q20 0 31.5 5t17.5 19t7.5 38.5t1.5 62.5v135q0 25 5 48.5t19 41.5t38.5 29t64.5 11h72v-96z" />
    <glyph glyph-name="bar" unicode="|" horiz-adv-x="184" 
d="M38 -19v750h108v-750h-108z" />
    <glyph glyph-name="braceright" unicode="}" horiz-adv-x="292" 
d="M20 721h72q40 0 64.5 -11t38.5 -29t19 -41.5t5 -48.5v-135q0 -38 1.5 -62.5t7.5 -38.5t17.5 -19t31.5 -5v-115q-20 0 -31.5 -5t-17.5 -18.5t-7.5 -36.5t-1.5 -60v-140q0 -25 -5 -49t-19 -42.5t-38.5 -30t-64.5 -11.5h-72v97h26q20 0 31 12t11 53v150q0 33 3.5 56.5
t12.5 40t26 26t44 14.5v2q-26 4 -42.5 11.5t-26 23.5t-13.5 41.5t-4 66.5v145q0 41 -13 52t-38 11h-17v96z" />
    <glyph glyph-name="asciitilde" unicode="~" horiz-adv-x="436" 
d="M432 252q-20 -35 -51.5 -58t-73.5 -23q-30 0 -51 9.5t-39 20.5t-36.5 20.5t-43.5 9.5t-46.5 -14t-42.5 -47l-45 116q20 35 51.5 58.5t73.5 23.5q33 0 55.5 -9.5t40.5 -21t35 -21t39 -9.5q25 0 47 14.5t42 47.5l45 -117v0z" />
    <glyph glyph-name="uni00A0" unicode="&#xa0;" horiz-adv-x="180" 
 />
    <glyph glyph-name="exclamdown" unicode="&#xa1;" horiz-adv-x="199" 
d="M28 -164l9 205l19 282h93l18 -282l8 -205h-147zM163 388h-122v162h122v-162z" />
    <glyph glyph-name="cent" unicode="&#xa2;" horiz-adv-x="392" 
d="M351 222q0 -60 -6 -101.5t-19.5 -68t-35 -40.5t-52.5 -18v-68h-71v67q-38 4 -62 21.5t-38 51t-19 85t-5 124.5q0 66 5.5 116t19 84.5t37.5 54t62 25.5v63h71v-63q61 -9 87 -57.5t26 -147.5h-118q0 31 -1.5 51.5t-4.5 32t-8.5 16t-12.5 4.5q-8 0 -13.5 -4.5t-8.5 -22.5
t-4.5 -54.5t-1.5 -100.5q0 -61 1.5 -96t5 -53t8.5 -22.5t12 -4.5q8 0 13.5 5.5t9 19.5t5 38.5t1.5 62.5h117v0z" />
    <glyph glyph-name="sterling" unicode="&#xa3;" horiz-adv-x="401" 
d="M252 284q1 -8 1.5 -15t0.5 -15q0 -46 -20.5 -80.5t-54.5 -55.5l2 -2q10 5 18.5 6t13.5 1q14 0 25 -3t21.5 -6t22 -6t26.5 -3q40 0 75 30l36 -110q-34 -22 -63 -29t-61 -7q-24 0 -44.5 4.5t-39 10.5t-36.5 10.5t-37 4.5q-23 0 -41 -8t-37 -19l-43 88q31 19 51 35.5
t31 34.5t15 39.5t4 49.5q0 12 -2 23t-5 22h-94v84h56q-15 32 -26.5 71t-11.5 96q0 80 46.5 125.5t128.5 45.5q42 0 75 -10.5t56 -35t35 -65.5t12 -101h-128q-1 54 -10.5 75t-30.5 21q-38 0 -38 -67q0 -19 5 -37t12.5 -37t16.5 -39t17 -42h108v-84h-88z" />
    <glyph glyph-name="currency" unicode="&#xa4;" horiz-adv-x="401" 
d="M263 346q0 27 -17.5 45t-44.5 18q-26 0 -44.5 -16.5t-18.5 -46.5q0 -28 18 -45t45 -17q26 0 44 17t18 45zM362 346q0 -38 -14 -69l38 -37l-79 -81l-37 37q-32 -15 -69 -15q-39 0 -69 15l-38 -38l-79 80l37 38q-14 33 -14 70t14 68l-36 37l79 81l36 -37q16 7 33 11t37 4
q18 0 35 -4t34 -11l37 38l79 -80l-38 -39q6 -14 10 -31t4 -37z" />
    <glyph glyph-name="yen" unicode="&#xa5;" horiz-adv-x="401" 
d="M128 0v116h-99v86h99v56h-99v86h73l-112 351h163l47 -268h2l52 268h157l-109 -351h69v-86h-94v-56h94v-86h-94v-116h-149z" />
    <glyph glyph-name="brokenbar" unicode="&#xa6;" horiz-adv-x="184" 
d="M38 442v289h108v-289h-108zM38 -19v298h108v-298h-108z" />
    <glyph glyph-name="section" unicode="&#xa7;" horiz-adv-x="420" 
d="M388 31q0 -88 -49 -133.5t-130 -45.5q-86 0 -128.5 42.5t-47.5 143.5h128q2 -43 16 -59.5t38 -16.5q17 0 31 13t14 40q0 24 -18.5 42t-46.5 34.5t-60 34t-60 40.5t-46.5 54t-18.5 76t18.5 78t58.5 63q-20 23 -32.5 54t-12.5 74q0 77 47 118t128 41q48 0 79 -14
t49.5 -36.5t26 -52.5t7.5 -61h-120q-1 25 -11 40t-33 15q-20 0 -30 -12.5t-10 -29.5q0 -23 17.5 -40.5t44 -33.5t57 -33.5t57 -40.5t44 -54.5t17.5 -74.5q0 -42 -18 -75.5t-57 -61.5q23 -23 37 -54.5t14 -73.5zM290 266q0 20 -11.5 34.5t-30.5 27.5t-42.5 25t-47.5 27
q-27 -22 -27 -51q0 -20 11.5 -35t30 -28t42 -25.5t47.5 -26.5q14 11 21 23t7 29z" />
    <glyph glyph-name="dieresis" unicode="&#xa8;" horiz-adv-x="271" 
d="M23 729h93v-128h-93v128zM155 729h92v-128h-92v128z" />
    <glyph glyph-name="copyright" unicode="&#xa9;" horiz-adv-x="530" 
d="M513 357q0 -74 -14 -137.5t-44 -109.5t-77 -72t-113 -26t-113 26t-76.5 72.5t-43.5 109.5t-14 137t14 137.5t43.5 109.5t76.5 72t113 26t113 -26t77 -72t44 -109t14 -138zM459 357q0 65 -10 119.5t-33 93.5t-60 61t-91 22q-53 0 -89.5 -21.5t-59.5 -60.5t-33.5 -93.5
t-10.5 -120.5q0 -65 10 -119.5t33 -93.5t60 -61t90 -22t90 21.5t60 60.5t33.5 93.5t10.5 120.5zM386 306q-1 -95 -30.5 -132t-93.5 -37q-34 0 -57.5 12t-38.5 38t-21.5 67.5t-6.5 100.5q0 119 29.5 169t100.5 50q65 0 90.5 -35.5t25.5 -115.5h-94q0 48 -4 62.5t-16 14.5
q-8 0 -12.5 -4.5t-7.5 -20t-4 -44t-1 -76.5q0 -47 1 -75t3 -43t6.5 -20t10.5 -5t10.5 3t7 13t4 28.5t1.5 49.5h97z" />
    <glyph glyph-name="ordfeminine" unicode="&#xaa;" horiz-adv-x="232" 
d="M135 361q-4 15 -4 36h-2q-13 -41 -56 -41q-65 0 -65 98q0 42 14.5 66t49.5 35l23 6q23 8 28.5 16.5t5.5 25.5t-2 25.5t-12 8.5q-9 0 -12 -9t-3 -32h-85q0 52 23.5 79t80.5 27q21 0 39.5 -3.5t31.5 -13.5t20.5 -27.5t7.5 -44.5v-220q0 -6 1 -16t3 -16h-87zM129 522h-1
q-3 -4 -13 -9q-8 -5 -11 -13t-3 -28q0 -21 3 -30t11 -9q13 0 14 18v71z" />
    <glyph glyph-name="guillemotleft" unicode="&#xab;" horiz-adv-x="352" 
d="M327 346l-70 -56l70 -57v-149l-144 119v170l144 122v-149zM166 346l-71 -56l71 -57v-149l-145 119v170l145 122v-149z" />
    <glyph glyph-name="logicalnot" unicode="&#xac;" horiz-adv-x="401" 
d="M383 375v-245h-113v132h-252v113h365z" />
    <glyph glyph-name="uni00AD" unicode="&#xad;" horiz-adv-x="255" 
d="M15 234v136h226v-136h-226z" />
    <glyph glyph-name="registered" unicode="&#xae;" horiz-adv-x="530" 
d="M513 357q0 -74 -14 -137.5t-44 -109.5t-77 -72t-113 -26t-113 26t-76.5 72.5t-43.5 109.5t-14 137t14 137.5t43.5 109.5t76.5 72t113 26t113 -26t77 -72t44 -109t14 -138zM459 357q0 65 -10 119.5t-33 93.5t-60 61t-91 22q-53 0 -89.5 -21.5t-59.5 -60.5t-33.5 -93.5
t-10.5 -120.5q0 -65 10 -119.5t33 -93.5t60 -61t90 -22t90 21.5t60 60.5t33.5 93.5t10.5 120.5zM387 457q0 -46 -13.5 -70t-40.5 -34v-2q15 -5 24 -11t14.5 -17t8 -29.5t3.5 -47.5q2 -48 4.5 -70.5t8.5 -28.5v-4h-97q-3 9 -5 32.5t-2 52.5q0 30 -1.5 47t-4.5 25.5t-8 10.5
t-13 2h-12v-170h-96v428h115q62 0 88.5 -25.5t26.5 -88.5zM293 440q0 32 -6 45t-21 13h-11v-120h11q16 0 21.5 14.5t5.5 47.5z" />
    <glyph glyph-name="macron" unicode="&#xaf;" horiz-adv-x="271" 
d="M7 621v84h256v-84h-256z" />
    <glyph glyph-name="degree" unicode="&#xb0;" horiz-adv-x="277" 
d="M275 569q0 -31 -10.5 -56.5t-28.5 -43.5t-43 -28t-54 -10t-53.5 10t-43.5 28t-29.5 43.5t-10.5 56.5t10.5 56.5t29 44t43.5 28.5t54 10q27 0 52 -9.5t43.5 -27.5t29.5 -44t11 -58zM201 569q0 28 -17.5 46t-44.5 18q-26 0 -44 -17t-18 -47q0 -27 17.5 -44.5t44.5 -17.5
q26 0 44 17.5t18 44.5z" />
    <glyph glyph-name="plusminus" unicode="&#xb1;" horiz-adv-x="401" 
d="M18 26v111h365v-111h-365zM257 249v-88h-113v88h-126v111h126v88h113v-88h126v-111h-126z" />
    <glyph glyph-name="uni00B2" unicode="&#xb2;" 
d="M19 403v20q0 43 22.5 81.5t61.5 88.5q26 33 40.5 58.5t14.5 57.5q0 21 -5 29.5t-16 8.5t-16.5 -15.5t-5.5 -43.5h-97q0 33 6 59.5t20.5 44.5t37.5 27.5t58 9.5q59 0 89.5 -29t30.5 -92q0 -26 -7 -48t-18 -40.5t-24 -34.5t-25 -29q-17 -19 -30 -36t-20 -34h121v-83h-238z
" />
    <glyph glyph-name="uni00B3" unicode="&#xb3;" 
d="M259 528q0 -41 -12 -66.5t-30.5 -39.5t-41 -19t-44.5 -5q-68 0 -95.5 35t-26.5 105h99q2 -38 7 -51.5t17 -13.5t18.5 11t6.5 43q0 19 -2 30.5t-7 18t-15.5 9t-26.5 2.5v67q29 0 38.5 9.5t9.5 43.5q0 24 -5 33t-17 9q-14 0 -18 -14.5t-4 -38.5h-97q4 68 32 100t93 32
q23 0 44.5 -5.5t37.5 -18t25.5 -32.5t9.5 -50q0 -43 -16 -65.5t-44 -30.5v-2q35 -9 49.5 -31t14.5 -65z" />
    <glyph glyph-name="acute" unicode="&#xb4;" horiz-adv-x="271" 
d="M149 596h-89l18 146h133z" />
    <glyph glyph-name="uni00B5" unicode="&#xb5;" horiz-adv-x="362" 
d="M210 0v56h-2q-4 -20 -11 -31.5t-16 -17.5q-14 -9 -27 -4v-186h-133v733h133v-411q1 -32 24 -32q13 0 20.5 11t7.5 30v402h134v-550h-130z" />
    <glyph glyph-name="paragraph" unicode="&#xb6;" horiz-adv-x="451" 
d="M409 714v-854h-90v756h-56v-756h-90v467q-31 1 -59.5 14.5t-50.5 38.5t-35 60t-13 79q0 92 49 143.5t136 51.5h209z" />
    <glyph glyph-name="periodcentered" unicode="&#xb7;" horiz-adv-x="180" 
d="M29 203v197h122v-197h-122z" />
    <glyph glyph-name="cedilla" unicode="&#xb8;" horiz-adv-x="271" 
d="M233 -130q0 -46 -30 -68t-78 -22q-26 0 -47 5t-35 13l17 47q14 -7 27.5 -9t25.5 -2q20 0 32.5 8t12.5 28q0 31 -34 31q-10 0 -16.5 -2t-13.5 -5l-23 10l30 96h49l-19 -57l2 -1q7 2 13.5 2.5t11.5 0.5q75 0 75 -75z" />
    <glyph glyph-name="uni00B9" unicode="&#xb9;" 
d="M104 403v295h-68v71q44 4 64.5 17.5t31.5 42.5h73v-426h-101z" />
    <glyph glyph-name="ordmasculine" unicode="&#xba;" horiz-adv-x="238" 
d="M230 529q0 -90 -23 -131.5t-89 -41.5q-32 0 -53.5 10t-34 31t-17.5 54t-5 78q0 42 5 74.5t17.5 54t34 33t54.5 11.5q34 0 56 -11.5t34 -33t16.5 -54t4.5 -74.5zM134 529q0 30 -0.5 49.5t-2 30t-4.5 14.5t-8 4t-7.5 -3.5t-4.5 -14t-2.5 -30t-0.5 -50.5q0 -35 0.5 -54.5
t2.5 -29t4.5 -12t7.5 -2.5t8 3.5t4.5 14t2 29.5t0.5 51z" />
    <glyph glyph-name="guillemotright" unicode="&#xbb;" horiz-adv-x="352" 
d="M187 84v149l70 57l-70 56v149l145 -122v-170zM25 84v149l70 57l-70 56v149l145 -122v-170z" />
    <glyph glyph-name="onequarter" unicode="&#xbc;" horiz-adv-x="607" 
d="M104 277v295h-68v71q44 4 64.5 17.5t31.5 42.5h73v-426h-101zM383 708h88l-238 -716h-88zM477 1v73h-136v80l112 268h115v-269h34v-79h-34v-73h-91zM477 295h-2l-53 -142h55v142z" />
    <glyph glyph-name="onehalf" unicode="&#xbd;" horiz-adv-x="635" 
d="M381 1v20q0 43 22.5 81.5t61.5 88.5q26 33 40.5 58.5t14.5 57.5q0 21 -5 29.5t-16 8.5t-16.5 -15.5t-5.5 -43.5h-97q0 33 6 59.5t20.5 44.5t37.5 27.5t58 9.5q59 0 89.5 -29t30.5 -92q0 -26 -7 -48t-18 -40.5t-24 -34.5t-25 -29q-17 -19 -30 -36t-20 -34h121v-83h-238z
M104 277v295h-68v71q44 4 64.5 17.5t31.5 42.5h73v-426h-101zM383 708h88l-238 -716h-88z" />
    <glyph glyph-name="threequarters" unicode="&#xbe;" horiz-adv-x="629" 
d="M259 402q0 -41 -12 -66.5t-30.5 -39.5t-41 -19t-44.5 -5q-68 0 -95.5 35t-26.5 105h99q2 -38 7 -51.5t17 -13.5t18.5 11t6.5 43q0 19 -2 30.5t-7 18t-15.5 9t-26.5 2.5v67q29 0 38.5 9.5t9.5 43.5q0 24 -5 33t-17 9q-14 0 -18 -14.5t-4 -38.5h-97q4 68 32 100t93 32
q23 0 44.5 -5.5t37.5 -18t25.5 -32.5t9.5 -50q0 -43 -16 -65.5t-44 -30.5v-2q35 -9 49.5 -31t14.5 -65zM405 708h88l-238 -716h-88zM499 1v73h-136v80l112 268h115v-269h34v-79h-34v-73h-91zM499 295h-2l-53 -142h55v142z" />
    <glyph glyph-name="questiondown" unicode="&#xbf;" horiz-adv-x="356" 
d="M178 -172q-85 0 -125 47.5t-40 133.5q0 28 5.5 51.5t14.5 42.5t20 35.5t23 31.5q16 20 26.5 37t17 34.5t9 37t2.5 44.5h109v-10q0 -34 -4 -59.5t-11.5 -46.5t-20 -41t-28.5 -43q-16 -22 -28 -46.5t-12 -59.5q0 -32 9 -50.5t33 -18.5q28 0 38 24.5t10 81.5h121
q0 -51 -8 -92.5t-27.5 -71t-52 -46t-81.5 -16.5zM247 388h-122v162h122v-162z" />
    <glyph glyph-name="Agrave" unicode="&#xc0;" horiz-adv-x="404" 
d="M256 0l-15 135h-80l-13 -135h-150l103 714h201l104 -714h-150zM198 566h-2l-28 -309h63zM98 906h133l18 -146h-89z" />
    <glyph glyph-name="Aacute" unicode="&#xc1;" horiz-adv-x="404" 
d="M256 0l-15 135h-80l-13 -135h-150l103 714h201l104 -714h-150zM198 566h-2l-28 -309h63zM246 760h-89l18 146h133z" />
    <glyph glyph-name="Acircumflex" unicode="&#xc2;" horiz-adv-x="404" 
d="M256 0l-15 135h-80l-13 -135h-150l103 714h201l104 -714h-150zM198 566h-2l-28 -309h63zM248 760l-44 78l-46 -78h-88l55 146h157l55 -146h-89z" />
    <glyph glyph-name="Atilde" unicode="&#xc3;" horiz-adv-x="404" 
d="M256 0l-15 135h-80l-13 -135h-150l103 714h201l104 -714h-150zM198 566h-2l-28 -309h63zM344 893q-2 -62 -21 -97.5t-63 -35.5q-15 0 -27 5.5t-22.5 12t-21.5 12t-23 5.5q-11 0 -18 -9.5t-8 -25.5h-65q1 62 20.5 98t62.5 36q15 0 27 -5.5t22.5 -12.5t21.5 -12.5t23 -5.5
q11 0 18 10t9 25h65v0z" />
    <glyph glyph-name="Adieresis" unicode="&#xc4;" horiz-adv-x="404" 
d="M256 0l-15 135h-80l-13 -135h-150l103 714h201l104 -714h-150zM198 566h-2l-28 -309h63zM91 764v129h93v-129h-93zM223 764v129h92v-129h-92z" />
    <glyph glyph-name="Aring" unicode="&#xc5;" horiz-adv-x="404" 
d="M256 0l-15 135h-80l-13 -135h-150l103 714h201l104 -714h-150zM198 566h-2l-28 -309h63zM318 854q0 -52 -32.5 -83.5t-80.5 -31.5q-23 0 -43.5 8.5t-36 23.5t-24.5 36t-9 47q0 25 9 46.5t24 36.5t35.5 23.5t44.5 8.5q22 0 42.5 -8t36.5 -22.5t25 -36t9 -48.5zM257 854
q0 23 -14.5 38.5t-37.5 15.5q-21 0 -36.5 -14t-15.5 -40q0 -23 14.5 -38t37.5 -15q22 0 37 15t15 38z" />
    <glyph glyph-name="AE" unicode="&#xc6;" horiz-adv-x="554" 
d="M254 0v129h-77l-22 -129h-164l168 714h378v-134h-136v-151h115v-125h-115v-170h140v-134h-287zM250 560l-55 -310h59v310h-4z" />
    <glyph glyph-name="Ccedilla" unicode="&#xc7;" horiz-adv-x="398" 
d="M306 -130q0 -46 -30 -68t-78 -22q-26 0 -47 5t-35 13l17 47q14 -7 27.5 -9t25.5 -2q20 0 32.5 8t12.5 28q0 31 -34 31q-10 0 -16.5 -2t-13.5 -5l-23 10l28 90q-47 5 -77 28t-48 67t-25 110.5t-7 157.5q0 97 9 166.5t31.5 113.5t60.5 64.5t96 20.5q51 0 84.5 -15t53 -46
t27.5 -78.5t8 -111.5h-131q-1 74 -10 102.5t-31 28.5q-13 0 -22 -8.5t-14.5 -34.5t-8 -74.5t-2.5 -127.5q0 -78 2 -126t6.5 -74.5t12.5 -35t21 -8.5q11 0 19 6.5t13.5 24.5t8 49.5t3.5 81.5h136q-1 -74 -10 -126.5t-29 -86t-51.5 -50t-77.5 -19.5l-16 -50l2 -1q7 2 13.5 2.5
t11.5 0.5q75 0 75 -75z" />
    <glyph glyph-name="Egrave" unicode="&#xc8;" horiz-adv-x="342" 
d="M25 0v714h300v-134h-152v-151h131v-125h-131v-170h156v-134h-304zM72 906h133l18 -146h-89z" />
    <glyph glyph-name="Eacute" unicode="&#xc9;" horiz-adv-x="342" 
d="M25 0v714h300v-134h-152v-151h131v-125h-131v-170h156v-134h-304zM218 760h-89l18 146h133z" />
    <glyph glyph-name="Ecircumflex" unicode="&#xca;" horiz-adv-x="342" 
d="M25 0v714h300v-134h-152v-151h131v-125h-131v-170h156v-134h-304zM221 760l-44 78l-46 -78h-88l55 146h157l55 -146h-89z" />
    <glyph glyph-name="Edieresis" unicode="&#xcb;" horiz-adv-x="342" 
d="M25 0v714h300v-134h-152v-151h131v-125h-131v-170h156v-134h-304zM66 764v129h93v-129h-93zM198 764v129h92v-129h-92z" />
    <glyph glyph-name="Igrave" unicode="&#xcc;" horiz-adv-x="198" 
d="M25 0v714h148v-714h-148zM-2 906h133l18 -146h-89z" />
    <glyph glyph-name="Iacute" unicode="&#xcd;" horiz-adv-x="198" 
d="M25 0v714h148v-714h-148zM146 760h-89l18 146h133z" />
    <glyph glyph-name="Icircumflex" unicode="&#xce;" horiz-adv-x="198" 
d="M25 0v714h148v-714h-148zM148 760l-44 78l-46 -78h-88l55 146h157l55 -146h-89z" />
    <glyph glyph-name="Idieresis" unicode="&#xcf;" horiz-adv-x="198" 
d="M25 0v714h148v-714h-148zM-13 764v129h93v-129h-93zM119 764v129h92v-129h-92z" />
    <glyph glyph-name="Eth" unicode="&#xd0;" horiz-adv-x="427" 
d="M6 412h28v302h177q63 0 102 -22t61 -66.5t30 -110.5t8 -153q0 -81 -8.5 -147.5t-31 -114t-61 -74t-98.5 -26.5h-179v328h-28v84zM261 359q0 76 -4.5 120t-12.5 66.5t-18 28.5t-22 6h-21v-168h42v-84h-42v-194h22q14 0 24.5 8t17.5 32.5t10.5 68.5t3.5 116z" />
    <glyph glyph-name="Ntilde" unicode="&#xd1;" horiz-adv-x="430" 
d="M254 0l-93 395h-2v-395h-134v714h154l90 -390h2v390h134v-714h-151zM361 893q-2 -62 -21 -97.5t-63 -35.5q-15 0 -27 5.5t-22.5 12t-21.5 12t-23 5.5q-11 0 -18 -9.5t-8 -25.5h-65q1 62 20.5 98t62.5 36q15 0 27 -5.5t22.5 -12.5t21.5 -12.5t23 -5.5q11 0 18 10t9 25h65
v0z" />
    <glyph glyph-name="Ograve" unicode="&#xd2;" horiz-adv-x="412" 
d="M398 357q0 -99 -8 -168.5t-29.5 -113t-59 -63.5t-96.5 -20t-96 20t-58 63.5t-28.5 113t-7.5 168.5q0 94 7 163t28 114t58 66.5t97 21.5q61 0 99 -21.5t59 -66t28 -113.5t7 -164zM247 357q0 78 -2 124t-6.5 70.5t-12.5 31.5t-21 7q-12 0 -19.5 -9.5t-12 -35.5t-6 -71.5
t-1.5 -116.5q0 -77 1.5 -122.5t6 -70t12 -32t19.5 -7.5q13 0 21 10t12.5 35.5t6.5 70.5t2 116zM99 906h133l18 -146h-89z" />
    <glyph glyph-name="Oacute" unicode="&#xd3;" horiz-adv-x="412" 
d="M398 357q0 -99 -8 -168.5t-29.5 -113t-59 -63.5t-96.5 -20t-96 20t-58 63.5t-28.5 113t-7.5 168.5q0 94 7 163t28 114t58 66.5t97 21.5q61 0 99 -21.5t59 -66t28 -113.5t7 -164zM247 357q0 78 -2 124t-6.5 70.5t-12.5 31.5t-21 7q-12 0 -19.5 -9.5t-12 -35.5t-6 -71.5
t-1.5 -116.5q0 -77 1.5 -122.5t6 -70t12 -32t19.5 -7.5q13 0 21 10t12.5 35.5t6.5 70.5t2 116zM248 760h-89l18 146h133z" />
    <glyph glyph-name="Ocircumflex" unicode="&#xd4;" horiz-adv-x="412" 
d="M398 357q0 -99 -8 -168.5t-29.5 -113t-59 -63.5t-96.5 -20t-96 20t-58 63.5t-28.5 113t-7.5 168.5q0 94 7 163t28 114t58 66.5t97 21.5q61 0 99 -21.5t59 -66t28 -113.5t7 -164zM247 357q0 78 -2 124t-6.5 70.5t-12.5 31.5t-21 7q-12 0 -19.5 -9.5t-12 -35.5t-6 -71.5
t-1.5 -116.5q0 -77 1.5 -122.5t6 -70t12 -32t19.5 -7.5q13 0 21 10t12.5 35.5t6.5 70.5t2 116zM252 760l-44 78l-46 -78h-88l55 146h157l55 -146h-89z" />
    <glyph glyph-name="Otilde" unicode="&#xd5;" horiz-adv-x="412" 
d="M398 357q0 -99 -8 -168.5t-29.5 -113t-59 -63.5t-96.5 -20t-96 20t-58 63.5t-28.5 113t-7.5 168.5q0 94 7 163t28 114t58 66.5t97 21.5q61 0 99 -21.5t59 -66t28 -113.5t7 -164zM247 357q0 78 -2 124t-6.5 70.5t-12.5 31.5t-21 7q-12 0 -19.5 -9.5t-12 -35.5t-6 -71.5
t-1.5 -116.5q0 -77 1.5 -122.5t6 -70t12 -32t19.5 -7.5q13 0 21 10t12.5 35.5t6.5 70.5t2 116zM346 893q-2 -62 -21 -97.5t-63 -35.5q-15 0 -27 5.5t-22.5 12t-21.5 12t-23 5.5q-11 0 -18 -9.5t-8 -25.5h-65q1 62 20.5 98t62.5 36q15 0 27 -5.5t22.5 -12.5t21.5 -12.5
t23 -5.5q11 0 18 10t9 25h65v0z" />
    <glyph glyph-name="Odieresis" unicode="&#xd6;" horiz-adv-x="412" 
d="M398 357q0 -99 -8 -168.5t-29.5 -113t-59 -63.5t-96.5 -20t-96 20t-58 63.5t-28.5 113t-7.5 168.5q0 94 7 163t28 114t58 66.5t97 21.5q61 0 99 -21.5t59 -66t28 -113.5t7 -164zM247 357q0 78 -2 124t-6.5 70.5t-12.5 31.5t-21 7q-12 0 -19.5 -9.5t-12 -35.5t-6 -71.5
t-1.5 -116.5q0 -77 1.5 -122.5t6 -70t12 -32t19.5 -7.5q13 0 21 10t12.5 35.5t6.5 70.5t2 116zM94 764v129h93v-129h-93zM226 764v129h92v-129h-92z" />
    <glyph glyph-name="multiply" unicode="&#xd7;" horiz-adv-x="401" 
d="M307 67l-106 106l-107 -107l-79 80l107 107l-106 106l79 81l106 -106l106 107l79 -80l-106 -107l106 -106z" />
    <glyph glyph-name="Oslash" unicode="&#xd8;" horiz-adv-x="412" 
d="M39 -36l28 84q-31 42 -41.5 116.5t-10.5 192.5q0 94 7 163t28 114t58 66.5t97 21.5q49 0 85 -15l20 60l63 -22l-28 -82q32 -43 42.5 -118.5t10.5 -187.5q0 -99 -8 -168.5t-29.5 -113t-59 -63.5t-96.5 -20q-25 0 -45.5 3.5t-37.5 9.5l-21 -63zM162 328l78 231
q-5 24 -13.5 31t-21.5 7q-12 0 -20.5 -10t-13.5 -36.5t-7 -73t-2 -120.5v-29zM205 118q13 0 21.5 10t14 36.5t7.5 73t2 119.5v24l-78 -229q5 -21 13 -27.5t20 -6.5z" />
    <glyph glyph-name="Ugrave" unicode="&#xd9;" horiz-adv-x="402" 
d="M381 181q0 -100 -43 -145t-137 -45q-51 0 -85.5 11t-55.5 34t-30 58.5t-9 85.5v534h149v-550q0 -22 7 -33t24 -11q32 0 32 44v550h148v-533v0zM95 906h133l18 -146h-89z" />
    <glyph glyph-name="Uacute" unicode="&#xda;" horiz-adv-x="402" 
d="M381 181q0 -100 -43 -145t-137 -45q-51 0 -85.5 11t-55.5 34t-30 58.5t-9 85.5v534h149v-550q0 -22 7 -33t24 -11q32 0 32 44v550h148v-533v0zM246 760h-89l18 146h133z" />
    <glyph glyph-name="Ucircumflex" unicode="&#xdb;" horiz-adv-x="402" 
d="M381 181q0 -100 -43 -145t-137 -45q-51 0 -85.5 11t-55.5 34t-30 58.5t-9 85.5v534h149v-550q0 -22 7 -33t24 -11q32 0 32 44v550h148v-533v0zM247 760l-44 78l-46 -78h-88l55 146h157l55 -146h-89z" />
    <glyph glyph-name="Udieresis" unicode="&#xdc;" horiz-adv-x="402" 
d="M381 181q0 -100 -43 -145t-137 -45q-51 0 -85.5 11t-55.5 34t-30 58.5t-9 85.5v534h149v-550q0 -22 7 -33t24 -11q32 0 32 44v550h148v-533v0zM90 764v129h93v-129h-93zM222 764v129h92v-129h-92z" />
    <glyph glyph-name="Yacute" unicode="&#xdd;" horiz-adv-x="399" 
d="M128 0v235l-139 479h164l47 -283h2l53 283h155l-134 -479v-235h-148zM250 760h-89l18 146h133z" />
    <glyph glyph-name="Thorn" unicode="&#xde;" horiz-adv-x="397" 
d="M389 379q0 -116 -46 -177.5t-143 -61.5h-27v-140h-148v714h148v-111h19q44 0 80 -8.5t62 -33t40.5 -68.5t14.5 -114zM236 373q0 54 -10 77.5t-36 23.5h-17v-205h16q27 0 37 25t10 79z" />
    <glyph glyph-name="germandbls" unicode="&#xdf;" horiz-adv-x="396" 
d="M382 216q0 -104 -34.5 -163.5t-114.5 -59.5q-11 0 -23 0.5t-26 3.5v102q6 -1 9.5 -1h6.5q26 0 37 27.5t11 95.5q0 69 -11 97.5t-48 28.5h-4v101h3q16 0 25.5 7.5t14.5 19.5t7 27.5t2 32.5q0 52 -10.5 68.5t-30.5 16.5q-23 0 -31.5 -19.5t-8.5 -64.5v-536h-134v540
q0 94 41.5 138t134.5 44q78 0 123.5 -39t45.5 -127q0 -67 -20.5 -102t-55.5 -47v-2q52 -16 71.5 -60t19.5 -129z" />
    <glyph glyph-name="agrave" unicode="&#xe0;" horiz-adv-x="344" 
d="M202 0q-2 14 -3.5 26t-1.5 27h-3q-11 -34 -33.5 -47.5t-50.5 -13.5q-53 0 -75.5 39.5t-22.5 120.5q0 67 22.5 104.5t79.5 57.5l29 9q19 6 29.5 12.5t15.5 15.5t6.5 20.5t1.5 28.5q0 32 -3.5 47t-20.5 15q-15 0 -22 -15.5t-7 -63.5h-118q-1 43 6.5 76t24.5 55t46 33t71 11
q32 0 59 -5.5t46.5 -20.5t30.5 -42t11 -70v-375q0 -10 1.5 -23t4.5 -22h-124zM196 268h-2q-5 -7 -10 -10t-16 -10q-12 -8 -18 -22t-6 -51q0 -41 5.5 -55t18.5 -14q28 0 28 57v105zM137 596l-62 146h133l18 -146h-89z" />
    <glyph glyph-name="aacute" unicode="&#xe1;" horiz-adv-x="344" 
d="M202 0q-2 14 -3.5 26t-1.5 27h-3q-11 -34 -33.5 -47.5t-50.5 -13.5q-53 0 -75.5 39.5t-22.5 120.5q0 67 22.5 104.5t79.5 57.5l29 9q19 6 29.5 12.5t15.5 15.5t6.5 20.5t1.5 28.5q0 32 -3.5 47t-20.5 15q-15 0 -22 -15.5t-7 -63.5h-118q-1 43 6.5 76t24.5 55t46 33t71 11
q32 0 59 -5.5t46.5 -20.5t30.5 -42t11 -70v-375q0 -10 1.5 -23t4.5 -22h-124zM196 268h-2q-5 -7 -10 -10t-16 -10q-12 -8 -18 -22t-6 -51q0 -41 5.5 -55t18.5 -14q28 0 28 57v105zM224 596h-89l18 146h133z" />
    <glyph glyph-name="acircumflex" unicode="&#xe2;" horiz-adv-x="344" 
d="M202 0q-2 14 -3.5 26t-1.5 27h-3q-11 -34 -33.5 -47.5t-50.5 -13.5q-53 0 -75.5 39.5t-22.5 120.5q0 67 22.5 104.5t79.5 57.5l29 9q19 6 29.5 12.5t15.5 15.5t6.5 20.5t1.5 28.5q0 32 -3.5 47t-20.5 15q-15 0 -22 -15.5t-7 -63.5h-118q-1 43 6.5 76t24.5 55t46 33t71 11
q32 0 59 -5.5t46.5 -20.5t30.5 -42t11 -70v-375q0 -10 1.5 -23t4.5 -22h-124zM196 268h-2q-5 -7 -10 -10t-16 -10q-12 -8 -18 -22t-6 -51q0 -41 5.5 -55t18.5 -14q28 0 28 57v105zM220 596l-44 79l-46 -79h-88l55 146h157l55 -146h-89z" />
    <glyph glyph-name="atilde" unicode="&#xe3;" horiz-adv-x="344" 
d="M202 0q-2 14 -3.5 26t-1.5 27h-3q-11 -34 -33.5 -47.5t-50.5 -13.5q-53 0 -75.5 39.5t-22.5 120.5q0 67 22.5 104.5t79.5 57.5l29 9q19 6 29.5 12.5t15.5 15.5t6.5 20.5t1.5 28.5q0 32 -3.5 47t-20.5 15q-15 0 -22 -15.5t-7 -63.5h-118q-1 43 6.5 76t24.5 55t46 33t71 11
q32 0 59 -5.5t46.5 -20.5t30.5 -42t11 -70v-375q0 -10 1.5 -23t4.5 -22h-124zM196 268h-2q-5 -7 -10 -10t-16 -10q-12 -8 -18 -22t-6 -51q0 -41 5.5 -55t18.5 -14q28 0 28 57v105zM315 730q-2 -63 -21 -98.5t-63 -35.5q-15 0 -27 5.5t-22.5 12.5t-21.5 12.5t-23 5.5
q-11 0 -18 -10t-8 -25h-65q1 62 20.5 98t62.5 36q15 0 27 -5.5t22.5 -12.5t21.5 -12.5t23 -5.5q11 0 18 9.5t9 25.5h65v0z" />
    <glyph glyph-name="adieresis" unicode="&#xe4;" horiz-adv-x="344" 
d="M202 0q-2 14 -3.5 26t-1.5 27h-3q-11 -34 -33.5 -47.5t-50.5 -13.5q-53 0 -75.5 39.5t-22.5 120.5q0 67 22.5 104.5t79.5 57.5l29 9q19 6 29.5 12.5t15.5 15.5t6.5 20.5t1.5 28.5q0 32 -3.5 47t-20.5 15q-15 0 -22 -15.5t-7 -63.5h-118q-1 43 6.5 76t24.5 55t46 33t71 11
q32 0 59 -5.5t46.5 -20.5t30.5 -42t11 -70v-375q0 -10 1.5 -23t4.5 -22h-124zM196 268h-2q-5 -7 -10 -10t-16 -10q-12 -8 -18 -22t-6 -51q0 -41 5.5 -55t18.5 -14q28 0 28 57v105zM66 729h93v-128h-93v128zM198 729h92v-128h-92v128z" />
    <glyph glyph-name="aring" unicode="&#xe5;" horiz-adv-x="344" 
d="M202 0q-2 14 -3.5 26t-1.5 27h-3q-11 -34 -33.5 -47.5t-50.5 -13.5q-53 0 -75.5 39.5t-22.5 120.5q0 67 22.5 104.5t79.5 57.5l29 9q19 6 29.5 12.5t15.5 15.5t6.5 20.5t1.5 28.5q0 32 -3.5 47t-20.5 15q-15 0 -22 -15.5t-7 -63.5h-118q-1 43 6.5 76t24.5 55t46 33t71 11
q32 0 59 -5.5t46.5 -20.5t30.5 -42t11 -70v-375q0 -10 1.5 -23t4.5 -22h-124zM196 268h-2q-5 -7 -10 -10t-16 -10q-12 -8 -18 -22t-6 -51q0 -41 5.5 -55t18.5 -14q28 0 28 57v105zM294 691q0 -53 -32.5 -84.5t-80.5 -31.5q-47 0 -80 31.5t-33 84.5q0 25 9 46t24 36
t35.5 23.5t44.5 8.5q22 0 42.5 -8t36.5 -22.5t25 -35.5t9 -48zM233 691q0 23 -14.5 38.5t-37.5 15.5q-21 0 -36.5 -14t-15.5 -40q0 -23 14.5 -38t37.5 -15q22 0 37 15t15 38z" />
    <glyph glyph-name="ae" unicode="&#xe6;" horiz-adv-x="527" 
d="M326 244v-5q0 -50 2 -79t5.5 -44t9.5 -19.5t15 -4.5q21 0 26 29t6 71h117q0 -30 -4 -65t-19 -65t-45.5 -50t-82.5 -20q-18 0 -36 2.5t-34.5 11.5t-31 25t-26.5 43h-1q-20 -49 -46 -65.5t-64 -16.5q-54 0 -79 39.5t-25 120.5q0 67 22 105t80 57l29 9q19 6 29.5 12.5
t15.5 15t6 20.5t1 29q0 32 -3.5 47t-19.5 15t-22.5 -15.5t-6.5 -63.5h-119q-1 39 6 71t24 55.5t44 36t66 12.5q33 0 57 -8.5t40 -29.5h2q22 24 48.5 31t49.5 7q50 0 80 -20t46 -59t21 -98t5 -137h-188zM394 333q0 37 -1.5 60.5t-5 37.5t-10 19.5t-15.5 5.5q-10 0 -16.5 -4.5
t-11 -18t-6.5 -37.5t-2 -63h68zM196 268h-2q-4 -7 -9 -10t-17 -11q-6 -4 -10.5 -8.5t-7 -12t-4 -19.5t-1.5 -30q0 -42 5.5 -56.5t18.5 -14.5q27 0 27 57v105z" />
    <glyph glyph-name="ccedilla" unicode="&#xe7;" horiz-adv-x="330" 
d="M264 -130q0 -46 -30 -68t-78 -22q-26 0 -47 5t-35 13l17 47q14 -7 27.5 -9t25.5 -2q20 0 32.5 8t12.5 28q0 31 -34 31q-10 0 -16.5 -2t-13.5 -5l-23 10l28 91q-36 5 -58.5 22.5t-35.5 51t-18 84.5t-5 122q0 74 7 127.5t25 88t49.5 51t80.5 16.5q79 0 112.5 -48.5
t33.5 -159.5h-118q0 31 -2 51.5t-5 32t-8 16t-12 4.5q-8 0 -13.5 -4.5t-9 -22.5t-5 -54.5t-1.5 -100.5q0 -61 1.5 -96t5 -53t9 -22.5t12.5 -4.5q8 0 13.5 5.5t9 19.5t5 38.5t1.5 62.5h117q0 -66 -7.5 -110t-24.5 -70.5t-44.5 -37.5t-66.5 -12l-16 -49l2 -1q7 2 13.5 2.5
t11.5 0.5q75 0 75 -75z" />
    <glyph glyph-name="egrave" unicode="&#xe8;" horiz-adv-x="342" 
d="M322 192q0 -30 -4.5 -65t-19.5 -65t-45 -50t-82 -20q-48 0 -79 16.5t-48.5 51.5t-24 90.5t-6.5 132.5q0 144 37 209.5t125 65.5q51 0 81 -20t46.5 -59t21.5 -98t5 -137h-188v-5q0 -50 1.5 -79t5.5 -44t10 -19.5t15 -4.5q20 0 25.5 29t5.5 71h118zM208 333q0 37 -1.5 60.5
t-5.5 37.5t-10 19.5t-16 5.5q-9 0 -15.5 -4.5t-10.5 -18t-6 -37.5t-2 -63h67zM135 596l-62 146h133l18 -146h-89z" />
    <glyph glyph-name="eacute" unicode="&#xe9;" horiz-adv-x="342" 
d="M322 192q0 -30 -4.5 -65t-19.5 -65t-45 -50t-82 -20q-48 0 -79 16.5t-48.5 51.5t-24 90.5t-6.5 132.5q0 144 37 209.5t125 65.5q51 0 81 -20t46.5 -59t21.5 -98t5 -137h-188v-5q0 -50 1.5 -79t5.5 -44t10 -19.5t15 -4.5q20 0 25.5 29t5.5 71h118zM208 333q0 37 -1.5 60.5
t-5.5 37.5t-10 19.5t-16 5.5q-9 0 -15.5 -4.5t-10.5 -18t-6 -37.5t-2 -63h67zM220 596h-89l18 146h133z" />
    <glyph glyph-name="ecircumflex" unicode="&#xea;" horiz-adv-x="342" 
d="M322 192q0 -30 -4.5 -65t-19.5 -65t-45 -50t-82 -20q-48 0 -79 16.5t-48.5 51.5t-24 90.5t-6.5 132.5q0 144 37 209.5t125 65.5q51 0 81 -20t46.5 -59t21.5 -98t5 -137h-188v-5q0 -50 1.5 -79t5.5 -44t10 -19.5t15 -4.5q20 0 25.5 29t5.5 71h118zM208 333q0 37 -1.5 60.5
t-5.5 37.5t-10 19.5t-16 5.5q-9 0 -15.5 -4.5t-10.5 -18t-6 -37.5t-2 -63h67zM216 596l-44 79l-46 -79h-88l55 146h157l55 -146h-89z" />
    <glyph glyph-name="edieresis" unicode="&#xeb;" horiz-adv-x="342" 
d="M322 192q0 -30 -4.5 -65t-19.5 -65t-45 -50t-82 -20q-48 0 -79 16.5t-48.5 51.5t-24 90.5t-6.5 132.5q0 144 37 209.5t125 65.5q51 0 81 -20t46.5 -59t21.5 -98t5 -137h-188v-5q0 -50 1.5 -79t5.5 -44t10 -19.5t15 -4.5q20 0 25.5 29t5.5 71h118zM208 333q0 37 -1.5 60.5
t-5.5 37.5t-10 19.5t-16 5.5q-9 0 -15.5 -4.5t-10.5 -18t-6 -37.5t-2 -63h67zM65 729h93v-128h-93v128zM197 729h92v-128h-92v128z" />
    <glyph glyph-name="igrave" unicode="&#xec;" horiz-adv-x="177" 
d="M22 0v550h133v-550h-133zM49 596l-62 146h133l18 -146h-89z" />
    <glyph glyph-name="iacute" unicode="&#xed;" horiz-adv-x="177" 
d="M22 0v550h133v-550h-133zM136 596h-89l18 146h133z" />
    <glyph glyph-name="icircumflex" unicode="&#xee;" horiz-adv-x="177" 
d="M22 0v550h133v-550h-133zM134 596l-44 79l-46 -79h-88l55 146h157l55 -146h-89z" />
    <glyph glyph-name="idieresis" unicode="&#xef;" horiz-adv-x="177" 
d="M22 0v550h133v-550h-133zM-20 729h93v-128h-93v128zM112 729h92v-128h-92v128z" />
    <glyph glyph-name="eth" unicode="&#xf0;" horiz-adv-x="361" 
d="M78 615l54 29q-20 17 -46 35l110 59l20.5 -20.5t17.5 -19.5l54 29l32 -49l-49 -26q24 -35 39 -72t23.5 -80t11.5 -94t3 -113q0 -84 -9 -142t-29.5 -93t-54 -50.5t-82.5 -15.5q-47 0 -77.5 17t-49 50.5t-26 84.5t-7.5 119q0 62 5.5 112.5t20 86t38.5 54.5t62 19
q25 0 42 -9t28 -23l3 2q-9 50 -40 94l-58 -30zM213 255q0 54 -2 86.5t-6 49.5t-10 22t-14 5q-9 0 -15.5 -6t-10.5 -24t-6 -50t-2 -83q0 -52 2 -83t6 -47.5t10 -22t15 -5.5t15 5t10 21.5t6 47.5t2 84z" />
    <glyph glyph-name="ntilde" unicode="&#xf1;" horiz-adv-x="365" 
d="M209 0v407q0 18 -5.5 27t-19.5 9q-13 0 -20.5 -11t-7.5 -30v-402h-134v550h130v-56h2q17 34 40.5 49t56.5 15q52 0 72 -30t20 -80v-448h-134zM320 730q-2 -63 -21 -98.5t-63 -35.5q-15 0 -27 5.5t-22.5 12.5t-21.5 12.5t-23 5.5q-11 0 -18 -10t-8 -25h-65q1 62 20.5 98
t62.5 36q15 0 27 -5.5t22.5 -12.5t21.5 -12.5t23 -5.5q11 0 18 9.5t9 25.5h65v0z" />
    <glyph glyph-name="ograve" unicode="&#xf2;" horiz-adv-x="351" 
d="M338 275q0 -77 -7 -130.5t-25.5 -87.5t-50 -49.5t-80.5 -15.5t-80.5 15.5t-49.5 49.5t-25 88t-7 130q0 71 6.5 124t24 88.5t49 53t82.5 17.5q52 0 84 -17.5t49.5 -53t23.5 -88.5t6 -124zM204 275q0 60 -1 95.5t-4 54t-9 24t-15 5.5q-8 0 -13.5 -7t-8.5 -27t-4.5 -55
t-1.5 -90q0 -60 1.5 -95.5t4.5 -54t8.5 -23.5t13.5 -5q9 0 14.5 7t9 26.5t4.5 54t1 90.5zM131 596l-62 146h133l18 -146h-89z" />
    <glyph glyph-name="oacute" unicode="&#xf3;" horiz-adv-x="351" 
d="M338 275q0 -77 -7 -130.5t-25.5 -87.5t-50 -49.5t-80.5 -15.5t-80.5 15.5t-49.5 49.5t-25 88t-7 130q0 71 6.5 124t24 88.5t49 53t82.5 17.5q52 0 84 -17.5t49.5 -53t23.5 -88.5t6 -124zM204 275q0 60 -1 95.5t-4 54t-9 24t-15 5.5q-8 0 -13.5 -7t-8.5 -27t-4.5 -55
t-1.5 -90q0 -60 1.5 -95.5t4.5 -54t8.5 -23.5t13.5 -5q9 0 14.5 7t9 26.5t4.5 54t1 90.5zM219 596h-89l18 146h133z" />
    <glyph glyph-name="ocircumflex" unicode="&#xf4;" horiz-adv-x="351" 
d="M338 275q0 -77 -7 -130.5t-25.5 -87.5t-50 -49.5t-80.5 -15.5t-80.5 15.5t-49.5 49.5t-25 88t-7 130q0 71 6.5 124t24 88.5t49 53t82.5 17.5q52 0 84 -17.5t49.5 -53t23.5 -88.5t6 -124zM204 275q0 60 -1 95.5t-4 54t-9 24t-15 5.5q-8 0 -13.5 -7t-8.5 -27t-4.5 -55
t-1.5 -90q0 -60 1.5 -95.5t4.5 -54t8.5 -23.5t13.5 -5q9 0 14.5 7t9 26.5t4.5 54t1 90.5zM219 596l-44 79l-46 -79h-88l55 146h157l55 -146h-89z" />
    <glyph glyph-name="otilde" unicode="&#xf5;" horiz-adv-x="351" 
d="M338 275q0 -77 -7 -130.5t-25.5 -87.5t-50 -49.5t-80.5 -15.5t-80.5 15.5t-49.5 49.5t-25 88t-7 130q0 71 6.5 124t24 88.5t49 53t82.5 17.5q52 0 84 -17.5t49.5 -53t23.5 -88.5t6 -124zM204 275q0 60 -1 95.5t-4 54t-9 24t-15 5.5q-8 0 -13.5 -7t-8.5 -27t-4.5 -55
t-1.5 -90q0 -60 1.5 -95.5t4.5 -54t8.5 -23.5t13.5 -5q9 0 14.5 7t9 26.5t4.5 54t1 90.5zM312 730q-2 -63 -21 -98.5t-63 -35.5q-15 0 -27 5.5t-22.5 12.5t-21.5 12.5t-23 5.5q-11 0 -18 -10t-8 -25h-65q1 62 20.5 98t62.5 36q15 0 27 -5.5t22.5 -12.5t21.5 -12.5t23 -5.5
q11 0 18 9.5t9 25.5h65v0z" />
    <glyph glyph-name="odieresis" unicode="&#xf6;" horiz-adv-x="351" 
d="M338 275q0 -77 -7 -130.5t-25.5 -87.5t-50 -49.5t-80.5 -15.5t-80.5 15.5t-49.5 49.5t-25 88t-7 130q0 71 6.5 124t24 88.5t49 53t82.5 17.5q52 0 84 -17.5t49.5 -53t23.5 -88.5t6 -124zM204 275q0 60 -1 95.5t-4 54t-9 24t-15 5.5q-8 0 -13.5 -7t-8.5 -27t-4.5 -55
t-1.5 -90q0 -60 1.5 -95.5t4.5 -54t8.5 -23.5t13.5 -5q9 0 14.5 7t9 26.5t4.5 54t1 90.5zM64 729h93v-128h-93v128zM196 729h92v-128h-92v128z" />
    <glyph glyph-name="divide" unicode="&#xf7;" horiz-adv-x="401" 
d="M274 90q0 -33 -22 -53t-50 -20q-29 0 -50.5 20t-21.5 53t22.5 52.5t49.5 19.5q29 0 50.5 -20t21.5 -52zM18 198v111h365v-111h-365zM274 418q0 -34 -22 -53.5t-50 -19.5q-29 0 -50.5 19.5t-21.5 53.5q0 33 22.5 52t49.5 19q29 0 50.5 -19.5t21.5 -51.5z" />
    <glyph glyph-name="oslash" unicode="&#xf8;" horiz-adv-x="351" 
d="M300 501q23 -35 30.5 -91.5t7.5 -134.5q0 -77 -7 -130.5t-25.5 -87.5t-50 -49.5t-80.5 -15.5q-50 0 -82 16l-22 -53l-51 22l30 71q-22 34 -29.5 89.5t-7.5 137.5q0 71 6.5 124t24 88.5t49 53t82.5 17.5q50 0 82 -17l22 51l51 -21zM175 464q-9 0 -15 -7.5t-9.5 -28
t-5 -57.5t-1.5 -96v-4l59 141q-3 34 -9.5 43t-18.5 9zM175 87q9 0 15.5 7t10 27.5t5 57.5t1.5 96v3l-59 -140q3 -34 9.5 -42.5t17.5 -8.5z" />
    <glyph glyph-name="ugrave" unicode="&#xf9;" horiz-adv-x="362" 
d="M210 0v54h-2q-14 -35 -37 -48.5t-56 -13.5q-50 0 -72 29t-22 81v448h133v-407q0 -36 24 -36q13 0 20.5 11t7.5 30v402h134v-550h-130zM157 596l-62 146h133l18 -146h-89z" />
    <glyph glyph-name="uacute" unicode="&#xfa;" horiz-adv-x="362" 
d="M210 0v54h-2q-14 -35 -37 -48.5t-56 -13.5q-50 0 -72 29t-22 81v448h133v-407q0 -36 24 -36q13 0 20.5 11t7.5 30v402h134v-550h-130zM241 596h-89l18 146h133z" />
    <glyph glyph-name="ucircumflex" unicode="&#xfb;" horiz-adv-x="362" 
d="M210 0v54h-2q-14 -35 -37 -48.5t-56 -13.5q-50 0 -72 29t-22 81v448h133v-407q0 -36 24 -36q13 0 20.5 11t7.5 30v402h134v-550h-130zM244 596l-44 79l-46 -79h-88l55 146h157l55 -146h-89z" />
    <glyph glyph-name="udieresis" unicode="&#xfc;" horiz-adv-x="362" 
d="M210 0v54h-2q-14 -35 -37 -48.5t-56 -13.5q-50 0 -72 29t-22 81v448h133v-407q0 -36 24 -36q13 0 20.5 11t7.5 30v402h134v-550h-130zM89 729h93v-128h-93v128zM221 729h92v-128h-92v128z" />
    <glyph glyph-name="yacute" unicode="&#xfd;" horiz-adv-x="342" 
d="M244 -23q-8 -45 -17.5 -76t-26.5 -49.5t-44.5 -26.5t-70.5 -8q-18 0 -31.5 0.5t-28.5 2.5v101q19 -3 33 -3q19 0 27 7.5t11 23.5q1 9 1 18t-2 20l-99 563h141l35 -380h1l39 380h136l-104 -573v0zM220 596h-89l18 146h133z" />
    <glyph glyph-name="thorn" unicode="&#xfe;" horiz-adv-x="359" 
d="M346 263q0 -77 -5.5 -128.5t-18.5 -83.5t-33.5 -45.5t-50.5 -13.5q-28 0 -48 12t-32 48h-2v-232h-134v897h134v-221h2q13 33 34 47.5t50 14.5q34 0 54.5 -16.5t31.5 -52t14.5 -91.5t3.5 -135zM212 271q0 58 -1.5 91.5t-4.5 50t-8 20.5t-13 4t-13.5 -8.5t-9 -28t-5 -50.5
t-1.5 -77q0 -52 1.5 -83.5t5 -49t9 -23t12.5 -5.5t12.5 4.5t9 21t5 48t1.5 85.5z" />
    <glyph glyph-name="ydieresis" unicode="&#xff;" horiz-adv-x="342" 
d="M244 -23q-8 -45 -17.5 -76t-26.5 -49.5t-44.5 -26.5t-70.5 -8q-18 0 -31.5 0.5t-28.5 2.5v101q19 -3 33 -3q19 0 27 7.5t11 23.5q1 9 1 18t-2 20l-99 563h141l35 -380h1l39 380h136l-104 -573v0zM64 729h93v-128h-93v128zM196 729h92v-128h-92v128z" />
    <glyph glyph-name="Amacron" unicode="&#x100;" horiz-adv-x="401" 
d="M255 0l-15 135h-80l-13 -135h-150l103 714h201l104 -714h-150zM197 566h-2l-28 -309h63zM72 784v85h256v-85h-256z" />
    <glyph glyph-name="amacron" unicode="&#x101;" horiz-adv-x="343" 
d="M201 0q-2 14 -3.5 26t-1.5 27h-3q-11 -34 -33.5 -47.5t-50.5 -13.5q-53 0 -75.5 39.5t-22.5 120.5q0 67 22.5 104.5t79.5 57.5l29 9q19 6 29.5 12.5t15.5 15.5t6.5 20.5t1.5 28.5q0 32 -3.5 47t-20.5 15q-15 0 -22 -15.5t-7 -63.5h-118q-1 43 6.5 76t24.5 55t46 33t71 11
q32 0 59 -5.5t46.5 -20.5t30.5 -42t11 -70v-375q0 -10 1.5 -23t4.5 -22h-124zM195 268h-2q-5 -7 -10 -10t-16 -10q-12 -8 -18 -22t-6 -51q0 -41 5.5 -55t18.5 -14q28 0 28 57v105zM48 621v84h256v-84h-256z" />
    <glyph glyph-name="Abreve" unicode="&#x102;" horiz-adv-x="401" 
d="M255 0l-15 135h-80l-13 -135h-150l103 714h201l104 -714h-150zM197 566h-2l-28 -309h63zM200 759q-56 0 -89.5 31.5t-38.5 105.5h80q2 -25 14 -39t35 -14t36.5 14t15.5 39h80q-3 -37 -13.5 -63t-28 -42.5t-41 -24t-50.5 -7.5z" />
    <glyph glyph-name="abreve" unicode="&#x103;" horiz-adv-x="343" 
d="M201 0q-2 14 -3.5 26t-1.5 27h-3q-11 -34 -33.5 -47.5t-50.5 -13.5q-53 0 -75.5 39.5t-22.5 120.5q0 67 22.5 104.5t79.5 57.5l29 9q19 6 29.5 12.5t15.5 15.5t6.5 20.5t1.5 28.5q0 32 -3.5 47t-20.5 15q-15 0 -22 -15.5t-7 -63.5h-118q-1 43 6.5 76t24.5 55t46 33t71 11
q32 0 59 -5.5t46.5 -20.5t30.5 -42t11 -70v-375q0 -10 1.5 -23t4.5 -22h-124zM195 268h-2q-5 -7 -10 -10t-16 -10q-12 -8 -18 -22t-6 -51q0 -41 5.5 -55t18.5 -14q28 0 28 57v105zM177 596q-56 0 -89.5 31.5t-38.5 105.5h80q2 -26 14 -40t35 -14t36.5 14t15.5 40h80
q-3 -37 -13.5 -63t-28 -42.5t-41 -24t-50.5 -7.5z" />
    <glyph glyph-name="Aogonek" unicode="&#x104;" horiz-adv-x="401" 
d="M269 -219q-48 0 -71.5 23t-23.5 64q0 38 20 67.5t61 64.5l-15 135h-80l-13 -135h-150l103 714h201l104 -714h-95q-27 -42 -37 -66.5t-10 -47.5q0 -38 34 -38q18 0 38 10l24 -50q-13 -9 -36 -18t-54 -9zM197 566h-2l-28 -309h63z" />
    <glyph glyph-name="aogonek" unicode="&#x105;" horiz-adv-x="343" 
d="M305 -192q-13 -9 -36 -18t-54 -9q-48 0 -71 23t-23 64q0 38 19.5 67.5t60.5 64.5q-3 14 -4 27t-1 28h-3q-11 -35 -33.5 -49t-50.5 -14q-53 0 -75.5 39.5t-22.5 120.5q0 67 22.5 104t79.5 57l29 9q19 6 29.5 12.5t15.5 15.5t6.5 21t1.5 29q0 32 -3.5 47t-20.5 15
q-15 0 -22 -15.5t-7 -63.5h-118q-2 88 30.5 131.5t117.5 43.5q32 0 59 -5.5t46.5 -20.5t30.5 -42t11 -70v-375q0 -9 1.5 -22.5t4.5 -22.5h-69q-26 -41 -36.5 -66t-10.5 -48q0 -20 9.5 -29t24.5 -9q19 0 38 10zM195 269h-2q-5 -7 -10 -10t-16 -10q-13 -8 -18.5 -21.5
t-5.5 -50.5q0 -42 5.5 -56t19.5 -14q27 0 27 56v106z" />
    <glyph glyph-name="Cacute" unicode="&#x106;" horiz-adv-x="398" 
d="M388 275q-1 -78 -11 -132t-32 -87.5t-57 -48.5t-87 -15q-56 0 -92 20.5t-57 64.5t-29 113t-8 167q0 97 9 166.5t31.5 113.5t60.5 64.5t96 20.5q51 0 84.5 -15t53 -46t27.5 -78.5t8 -111.5h-131q-1 74 -10 102.5t-31 28.5q-13 0 -22 -8.5t-14.5 -34.5t-8 -74.5
t-2.5 -127.5q0 -78 2 -126t6.5 -74.5t12.5 -35t21 -8.5q11 0 19 6.5t13.5 24.5t8 49.5t3.5 81.5h136v0zM254 760h-89l18 146h133z" />
    <glyph glyph-name="cacute" unicode="&#x107;" horiz-adv-x="330" 
d="M321 222q0 -69 -8 -113.5t-26 -70.5t-47.5 -36t-72.5 -10q-47 0 -77 14.5t-47 47.5t-23.5 87t-6.5 134q0 74 7 127.5t25 88t49.5 51t80.5 16.5q79 0 112.5 -48.5t33.5 -159.5h-118q0 31 -2 51.5t-5 32t-8 16t-12 4.5q-8 0 -13.5 -4.5t-9 -22.5t-5 -54.5t-1.5 -100.5
q0 -61 1.5 -96t5 -53t9 -22.5t12.5 -4.5q8 0 13.5 5.5t9 19.5t5 38.5t1.5 62.5h117v0zM216 596h-89l18 146h133z" />
    <glyph glyph-name="Ccircumflex" unicode="&#x108;" horiz-adv-x="398" 
d="M388 275q-1 -78 -11 -132t-32 -87.5t-57 -48.5t-87 -15q-56 0 -92 20.5t-57 64.5t-29 113t-8 167q0 97 9 166.5t31.5 113.5t60.5 64.5t96 20.5q51 0 84.5 -15t53 -46t27.5 -78.5t8 -111.5h-131q-1 74 -10 102.5t-31 28.5q-13 0 -22 -8.5t-14.5 -34.5t-8 -74.5
t-2.5 -127.5q0 -78 2 -126t6.5 -74.5t12.5 -35t21 -8.5q11 0 19 6.5t13.5 24.5t8 49.5t3.5 81.5h136v0zM254 760l-44 78l-46 -78h-88l55 146h157l55 -146h-89z" />
    <glyph glyph-name="ccircumflex" unicode="&#x109;" horiz-adv-x="330" 
d="M321 222q0 -69 -8 -113.5t-26 -70.5t-47.5 -36t-72.5 -10q-47 0 -77 14.5t-47 47.5t-23.5 87t-6.5 134q0 74 7 127.5t25 88t49.5 51t80.5 16.5q79 0 112.5 -48.5t33.5 -159.5h-118q0 31 -2 51.5t-5 32t-8 16t-12 4.5q-8 0 -13.5 -4.5t-9 -22.5t-5 -54.5t-1.5 -100.5
q0 -61 1.5 -96t5 -53t9 -22.5t12.5 -4.5q8 0 13.5 5.5t9 19.5t5 38.5t1.5 62.5h117v0zM215 596l-44 79l-46 -79h-88l55 146h157l55 -146h-89z" />
    <glyph glyph-name="Cdotaccent" unicode="&#x10a;" horiz-adv-x="398" 
d="M388 275q-1 -78 -11 -132t-32 -87.5t-57 -48.5t-87 -15q-56 0 -92 20.5t-57 64.5t-29 113t-8 167q0 97 9 166.5t31.5 113.5t60.5 64.5t96 20.5q51 0 84.5 -15t53 -46t27.5 -78.5t8 -111.5h-131q-1 74 -10 102.5t-31 28.5q-13 0 -22 -8.5t-14.5 -34.5t-8 -74.5
t-2.5 -127.5q0 -78 2 -126t6.5 -74.5t12.5 -35t21 -8.5q11 0 19 6.5t13.5 24.5t8 49.5t3.5 81.5h136v0zM166 764v129h92v-129h-92z" />
    <glyph glyph-name="cdotaccent" unicode="&#x10b;" horiz-adv-x="330" 
d="M321 222q0 -69 -8 -113.5t-26 -70.5t-47.5 -36t-72.5 -10q-47 0 -77 14.5t-47 47.5t-23.5 87t-6.5 134q0 74 7 127.5t25 88t49.5 51t80.5 16.5q79 0 112.5 -48.5t33.5 -159.5h-118q0 31 -2 51.5t-5 32t-8 16t-12 4.5q-8 0 -13.5 -4.5t-9 -22.5t-5 -54.5t-1.5 -100.5
q0 -61 1.5 -96t5 -53t9 -22.5t12.5 -4.5q8 0 13.5 5.5t9 19.5t5 38.5t1.5 62.5h117v0zM126 601v128h92v-128h-92z" />
    <glyph glyph-name="Ccaron" unicode="&#x10c;" horiz-adv-x="398" 
d="M388 275q-1 -78 -11 -132t-32 -87.5t-57 -48.5t-87 -15q-56 0 -92 20.5t-57 64.5t-29 113t-8 167q0 97 9 166.5t31.5 113.5t60.5 64.5t96 20.5q51 0 84.5 -15t53 -46t27.5 -78.5t8 -111.5h-131q-1 74 -10 102.5t-31 28.5q-13 0 -22 -8.5t-14.5 -34.5t-8 -74.5
t-2.5 -127.5q0 -78 2 -126t6.5 -74.5t12.5 -35t21 -8.5q11 0 19 6.5t13.5 24.5t8 49.5t3.5 81.5h136v0zM291 760h-157l-55 146h88l46 -79l44 79h89z" />
    <glyph glyph-name="ccaron" unicode="&#x10d;" horiz-adv-x="330" 
d="M321 222q0 -69 -8 -113.5t-26 -70.5t-47.5 -36t-72.5 -10q-47 0 -77 14.5t-47 47.5t-23.5 87t-6.5 134q0 74 7 127.5t25 88t49.5 51t80.5 16.5q79 0 112.5 -48.5t33.5 -159.5h-118q0 31 -2 51.5t-5 32t-8 16t-12 4.5q-8 0 -13.5 -4.5t-9 -22.5t-5 -54.5t-1.5 -100.5
q0 -61 1.5 -96t5 -53t9 -22.5t12.5 -4.5q8 0 13.5 5.5t9 19.5t5 38.5t1.5 62.5h117v0zM253 596h-157l-55 146h88l46 -78l44 78h89z" />
    <glyph glyph-name="Dcaron" unicode="&#x10e;" horiz-adv-x="418" 
d="M404 362q0 -81 -8.5 -147.5t-31 -114t-61 -74t-98.5 -26.5h-180v714h178q63 0 102 -22t61 -66.5t30 -110.5t8 -153zM253 359q0 76 -4.5 120t-13 66.5t-19 28.5t-22.5 6h-21v-446h22q14 0 25 8t18.5 32.5t11 68.5t3.5 116zM269 760h-157l-55 146h88l46 -79l44 79h89z" />
    <glyph glyph-name="dcaron" unicode="&#x10f;" horiz-adv-x="359" 
d="M13 287q0 76 6 128t18.5 84t33.5 45.5t51 13.5q28 0 48 -11.5t31 -46.5h2v217h134v-717h-130v58h-2q-13 -35 -35.5 -50.5t-50.5 -15.5q-35 0 -55.5 16.5t-32 52t-15 91.5t-3.5 135zM147 279q0 -59 1.5 -92t4.5 -49.5t8.5 -20.5t13.5 -4t13.5 8.5t8.5 28t4.5 50.5t1.5 77
q0 52 -1.5 83.5t-5 48.5t-8.5 23t-12 6q-8 0 -13 -4.5t-9 -21t-5.5 -48t-1.5 -85.5zM450 583h-91l5 134h127z" />
    <glyph glyph-name="Dcroat" unicode="&#x110;" horiz-adv-x="427" 
d="M6 412h28v302h177q63 0 102 -22t61 -66.5t30 -110.5t8 -153q0 -81 -8.5 -147.5t-31 -114t-61 -74t-98.5 -26.5h-179v328h-28v84zM261 359q0 76 -4.5 120t-12.5 66.5t-18 28.5t-22 6h-21v-168h42v-84h-42v-194h22q14 0 24.5 8t17.5 32.5t10.5 68.5t3.5 116z" />
    <glyph glyph-name="dcroat" unicode="&#x111;" horiz-adv-x="370" 
d="M207 0v58h-2q-13 -35 -35.5 -50.5t-50.5 -15.5q-35 0 -55.5 16.5t-32 52t-15 91.5t-3.5 135q0 76 6 128t18.5 84t33.5 45.5t51 13.5q28 0 48 -11.5t31 -46.5h2v98h-63v65h63v54h134v-54h31v-65h-31v-598h-130zM203 277q0 52 -1.5 83.5t-5 48.5t-8.5 23t-12 6
q-8 0 -13 -4.5t-9 -21t-5.5 -48t-1.5 -85.5q0 -59 1.5 -92t4.5 -49.5t8.5 -20.5t13.5 -4t13.5 8.5t8.5 28t4.5 50.5t1.5 77z" />
    <glyph glyph-name="Emacron" unicode="&#x112;" horiz-adv-x="342" 
d="M25 0v714h300v-134h-152v-151h131v-125h-131v-170h156v-134h-304zM48 784v85h256v-85h-256z" />
    <glyph glyph-name="emacron" unicode="&#x113;" horiz-adv-x="342" 
d="M322 192q0 -30 -4.5 -65t-19.5 -65t-45 -50t-82 -20q-48 0 -79 16.5t-48.5 51.5t-24 90.5t-6.5 132.5q0 144 37 209.5t125 65.5q51 0 81 -20t46.5 -59t21.5 -98t5 -137h-188v-5q0 -50 1.5 -79t5.5 -44t10 -19.5t15 -4.5q20 0 25.5 29t5.5 71h118zM208 333q0 37 -1.5 60.5
t-5.5 37.5t-10 19.5t-16 5.5q-9 0 -15.5 -4.5t-10.5 -18t-6 -37.5t-2 -63h67zM44 621v84h256v-84h-256z" />
    <glyph glyph-name="Ebreve" unicode="&#x114;" horiz-adv-x="342" 
d="M25 0v714h300v-134h-152v-151h131v-125h-131v-170h156v-134h-304zM174 759q-56 0 -89.5 31.5t-38.5 105.5h80q2 -25 14 -39t35 -14t36.5 14t15.5 39h80q-3 -37 -13.5 -63t-28 -42.5t-41 -24t-50.5 -7.5z" />
    <glyph glyph-name="ebreve" unicode="&#x115;" horiz-adv-x="342" 
d="M322 192q0 -30 -4.5 -65t-19.5 -65t-45 -50t-82 -20q-48 0 -79 16.5t-48.5 51.5t-24 90.5t-6.5 132.5q0 144 37 209.5t125 65.5q51 0 81 -20t46.5 -59t21.5 -98t5 -137h-188v-5q0 -50 1.5 -79t5.5 -44t10 -19.5t15 -4.5q20 0 25.5 29t5.5 71h118zM208 333q0 37 -1.5 60.5
t-5.5 37.5t-10 19.5t-16 5.5q-9 0 -15.5 -4.5t-10.5 -18t-6 -37.5t-2 -63h67zM172 596q-56 0 -89.5 31.5t-38.5 105.5h80q2 -26 14 -40t35 -14t36.5 14t15.5 40h80q-3 -37 -13.5 -63t-28 -42.5t-41 -24t-50.5 -7.5z" />
    <glyph glyph-name="Edotaccent" unicode="&#x116;" horiz-adv-x="342" 
d="M25 0v714h300v-134h-152v-151h131v-125h-131v-170h156v-134h-304zM129 764v129h92v-129h-92z" />
    <glyph glyph-name="edotaccent" unicode="&#x117;" horiz-adv-x="342" 
d="M322 192q0 -30 -4.5 -65t-19.5 -65t-45 -50t-82 -20q-48 0 -79 16.5t-48.5 51.5t-24 90.5t-6.5 132.5q0 144 37 209.5t125 65.5q51 0 81 -20t46.5 -59t21.5 -98t5 -137h-188v-5q0 -50 1.5 -79t5.5 -44t10 -19.5t15 -4.5q20 0 25.5 29t5.5 71h118zM208 333q0 37 -1.5 60.5
t-5.5 37.5t-10 19.5t-16 5.5q-9 0 -15.5 -4.5t-10.5 -18t-6 -37.5t-2 -63h67zM127 601v128h92v-128h-92z" />
    <glyph glyph-name="Eogonek" unicode="&#x118;" horiz-adv-x="342" 
d="M284 0q-26 -41 -36.5 -66t-10.5 -48q0 -21 9 -29.5t25 -8.5q18 0 38 10l24 -50q-13 -9 -36.5 -18t-53.5 -9q-48 0 -71 23t-23 64q0 38 19 67.5t60 64.5h-203v714h300v-134h-152v-151h131v-125h-131v-170h156v-134h-45z" />
    <glyph glyph-name="eogonek" unicode="&#x119;" horiz-adv-x="342" 
d="M290 -192q-13 -9 -36 -18t-53 -9q-48 0 -71.5 23t-23.5 64q0 32 15.5 60t53.5 64h-4q-48 0 -79 16.5t-48.5 51.5t-24 90.5t-6.5 132.5q0 144 37.5 209.5t125.5 65.5q51 0 81 -20t46 -59t21 -98t5 -137h-188v-5q0 -50 1.5 -79t5.5 -44t10 -19.5t15 -4.5q20 0 25.5 29
t5.5 71h118q0 -24 -2.5 -51t-10.5 -52.5t-23.5 -47t-41.5 -34.5q-27 -40 -38.5 -70.5t-11.5 -50.5t9.5 -29t24.5 -9q19 0 38 10zM208 333q0 37 -1.5 60.5t-5 37.5t-9.5 19.5t-16 5.5q-9 0 -15.5 -4.5t-11 -18t-6.5 -37.5t-2 -63h67z" />
    <glyph glyph-name="Ecaron" unicode="&#x11a;" horiz-adv-x="337" 
d="M25 0v714h300v-134h-152v-151h131v-125h-131v-170h156v-134h-304zM254 760h-157l-55 146h88l46 -79l44 79h89z" />
    <glyph glyph-name="ecaron" unicode="&#x11b;" horiz-adv-x="342" 
d="M322 192q0 -30 -4.5 -65t-19.5 -65t-45 -50t-82 -20q-48 0 -79 16.5t-48.5 51.5t-24 90.5t-6.5 132.5q0 144 37 209.5t125 65.5q51 0 81 -20t46.5 -59t21.5 -98t5 -137h-188v-5q0 -50 1.5 -79t5.5 -44t10 -19.5t15 -4.5q20 0 25.5 29t5.5 71h118zM208 333q0 37 -1.5 60.5
t-5.5 37.5t-10 19.5t-16 5.5q-9 0 -15.5 -4.5t-10.5 -18t-6 -37.5t-2 -63h67zM256 596h-157l-55 146h88l46 -78l44 78h89z" />
    <glyph glyph-name="Gcircumflex" unicode="&#x11c;" horiz-adv-x="425" 
d="M295 0l-7 57h-3q-21 -35 -47.5 -50t-68.5 -15q-44 0 -73.5 21.5t-47.5 67t-25.5 115t-7.5 165.5q0 105 12 175t37.5 111t64 58t91.5 17q52 0 86.5 -15t55 -44t29 -73t8.5 -101h-129q-1 60 -11 86.5t-38 26.5q-17 0 -27.5 -8t-16.5 -33.5t-8.5 -73t-2.5 -125.5
q0 -80 2.5 -129t8.5 -75.5t15.5 -35.5t24.5 -9q13 0 22.5 6.5t16 24t9.5 47t3 76.5v7h-60v112h195v-386h-108zM265 760l-44 78l-46 -78h-88l55 146h157l55 -146h-89z" />
    <glyph glyph-name="gcircumflex" unicode="&#x11d;" horiz-adv-x="361" 
d="M339 -13q0 -95 -40 -132.5t-126 -37.5q-47 0 -74.5 11t-42.5 31t-20.5 48t-6.5 63h117q1 -32 7.5 -45t20.5 -13t22.5 11.5t8.5 50.5v94h-2q-12 -35 -33.5 -47t-48.5 -12q-31 0 -51.5 12.5t-33 42.5t-18 81t-5.5 128q0 78 5 132.5t18 88t34.5 49t54.5 15.5q27 0 48 -15
t34 -49h2v56h130v-563zM205 279q0 89 -6 123.5t-22 34.5q-8 0 -13.5 -4t-9.5 -19.5t-5.5 -46.5t-1.5 -86t1.5 -86.5t5 -47t9 -19.5t12.5 -4t13 4t9.5 20t5.5 47t2 84zM234 596l-44 79l-46 -79h-88l55 146h157l55 -146h-89z" />
    <glyph glyph-name="Gbreve" unicode="&#x11e;" horiz-adv-x="425" 
d="M295 0l-7 57h-3q-21 -35 -47.5 -50t-68.5 -15q-44 0 -73.5 21.5t-47.5 67t-25.5 115t-7.5 165.5q0 105 12 175t37.5 111t64 58t91.5 17q52 0 86.5 -15t55 -44t29 -73t8.5 -101h-129q-1 60 -11 86.5t-38 26.5q-17 0 -27.5 -8t-16.5 -33.5t-8.5 -73t-2.5 -125.5
q0 -80 2.5 -129t8.5 -75.5t15.5 -35.5t24.5 -9q13 0 22.5 6.5t16 24t9.5 47t3 76.5v7h-60v112h195v-386h-108zM220 759q-56 0 -89.5 31.5t-38.5 105.5h80q2 -25 14 -39t35 -14t36.5 14t15.5 39h80q-3 -37 -13.5 -63t-28 -42.5t-41 -24t-50.5 -7.5z" />
    <glyph glyph-name="gbreve" unicode="&#x11f;" horiz-adv-x="361" 
d="M339 -13q0 -95 -40 -132.5t-126 -37.5q-47 0 -74.5 11t-42.5 31t-20.5 48t-6.5 63h117q1 -32 7.5 -45t20.5 -13t22.5 11.5t8.5 50.5v94h-2q-12 -35 -33.5 -47t-48.5 -12q-31 0 -51.5 12.5t-33 42.5t-18 81t-5.5 128q0 78 5 132.5t18 88t34.5 49t54.5 15.5q27 0 48 -15
t34 -49h2v56h130v-563zM205 279q0 89 -6 123.5t-22 34.5q-8 0 -13.5 -4t-9.5 -19.5t-5.5 -46.5t-1.5 -86t1.5 -86.5t5 -47t9 -19.5t12.5 -4t13 4t9.5 20t5.5 47t2 84zM190 596q-56 0 -89.5 31.5t-38.5 105.5h80q2 -26 14 -40t35 -14t36.5 14t15.5 40h80q-3 -37 -13.5 -63
t-28 -42.5t-41 -24t-50.5 -7.5z" />
    <glyph glyph-name="Gdotaccent" unicode="&#x120;" horiz-adv-x="425" 
d="M295 0l-7 57h-3q-21 -35 -47.5 -50t-68.5 -15q-44 0 -73.5 21.5t-47.5 67t-25.5 115t-7.5 165.5q0 105 12 175t37.5 111t64 58t91.5 17q52 0 86.5 -15t55 -44t29 -73t8.5 -101h-129q-1 60 -11 86.5t-38 26.5q-17 0 -27.5 -8t-16.5 -33.5t-8.5 -73t-2.5 -125.5
q0 -80 2.5 -129t8.5 -75.5t15.5 -35.5t24.5 -9q13 0 22.5 6.5t16 24t9.5 47t3 76.5v7h-60v112h195v-386h-108zM172 764v129h92v-129h-92z" />
    <glyph glyph-name="gdotaccent" unicode="&#x121;" horiz-adv-x="361" 
d="M339 -13q0 -95 -40 -132.5t-126 -37.5q-47 0 -74.5 11t-42.5 31t-20.5 48t-6.5 63h117q1 -32 7.5 -45t20.5 -13t22.5 11.5t8.5 50.5v94h-2q-12 -35 -33.5 -47t-48.5 -12q-31 0 -51.5 12.5t-33 42.5t-18 81t-5.5 128q0 78 5 132.5t18 88t34.5 49t54.5 15.5q27 0 48 -15
t34 -49h2v56h130v-563zM205 279q0 89 -6 123.5t-22 34.5q-8 0 -13.5 -4t-9.5 -19.5t-5.5 -46.5t-1.5 -86t1.5 -86.5t5 -47t9 -19.5t12.5 -4t13 4t9.5 20t5.5 47t2 84zM144 601v128h92v-128h-92z" />
    <glyph glyph-name="Gcommaaccent" unicode="&#x122;" horiz-adv-x="425" 
d="M295 0l-7 57h-3q-21 -35 -47.5 -50t-68.5 -15q-44 0 -73.5 21.5t-47.5 67t-25.5 115t-7.5 165.5q0 105 12 175t37.5 111t64 58t91.5 17q52 0 86.5 -15t55 -44t29 -73t8.5 -101h-129q-1 60 -11 86.5t-38 26.5q-17 0 -27.5 -8t-16.5 -33.5t-8.5 -73t-2.5 -125.5
q0 -80 2.5 -129t8.5 -75.5t15.5 -35.5t24.5 -9q13 0 22.5 6.5t16 24t9.5 47t3 76.5v7h-60v112h195v-386h-108zM272 -50v-95q0 -38 -17.5 -63.5t-70.5 -30.5v42q17 3 26 13t10 30h-40v104h92z" />
    <glyph glyph-name="gcommaaccent" unicode="&#x123;" horiz-adv-x="361" 
d="M339 -13q0 -95 -40 -132.5t-126 -37.5q-47 0 -74.5 11t-42.5 31t-20.5 48t-6.5 63h117q1 -32 7.5 -45t20.5 -13t22.5 11.5t8.5 50.5v94h-2q-12 -35 -33.5 -47t-48.5 -12q-31 0 -51.5 12.5t-33 42.5t-18 81t-5.5 128q0 78 5 132.5t18 88t34.5 49t54.5 15.5q27 0 48 -15
t34 -49h2v56h130v-563zM205 279q0 89 -6 123.5t-22 34.5q-8 0 -13.5 -4t-9.5 -19.5t-5.5 -46.5t-1.5 -86t1.5 -86.5t5 -47t9 -19.5t12.5 -4t13 4t9.5 20t5.5 47t2 84zM148 596v95q0 38 17.5 63.5t70.5 30.5v-41q-35 -6 -36 -45h40v-103h-92z" />
    <glyph glyph-name="Hcircumflex" unicode="&#x124;" horiz-adv-x="416" 
d="M243 0v304h-70v-304h-148v714h148v-272h70v272h148v-714h-148zM253 760l-44 78l-46 -78h-88l55 146h157l55 -146h-89z" />
    <glyph glyph-name="hcircumflex" unicode="&#x125;" horiz-adv-x="365" 
d="M209 0v407q0 18 -5.5 27t-19.5 9q-13 0 -20.5 -11t-7.5 -30v-402h-134v717h134v-216h2q17 29 38.5 43t54.5 14q52 0 72 -30t20 -80v-448h-134zM221 760l-44 78l-46 -78h-88l55 146h157l55 -146h-89z" />
    <glyph glyph-name="Hbar" unicode="&#x126;" horiz-adv-x="416" 
d="M243 0v304h-70v-304h-148v714h148v-109h70v109h148v-714h-148zM243 442v79h-70v-79h70z" />
    <glyph glyph-name="hbar" unicode="&#x127;" horiz-adv-x="376" 
d="M220 0v407q0 18 -5.5 27t-19.5 9q-13 0 -20.5 -11t-7.5 -30v-402h-134v598h-31v65h31v54h134v-54h69v-65h-69v-97h2q17 29 38.5 43t54.5 14q52 0 72 -29.5t20 -80.5v-448h-134z" />
    <glyph glyph-name="Itilde" unicode="&#x128;" horiz-adv-x="198" 
d="M25 0v714h148v-714h-148zM239 893q-2 -62 -21 -97.5t-63 -35.5q-15 0 -27 5.5t-22.5 12t-21.5 12t-23 5.5q-11 0 -18 -9.5t-8 -25.5h-65q1 62 20.5 98t62.5 36q15 0 27 -5.5t22.5 -12.5t21.5 -12.5t23 -5.5q11 0 18 10t9 25h65v0z" />
    <glyph glyph-name="itilde" unicode="&#x129;" horiz-adv-x="177" 
d="M22 0v550h133v-550h-133zM231 730q-2 -63 -21 -98.5t-63 -35.5q-15 0 -27 5.5t-22.5 12.5t-21.5 12.5t-23 5.5q-11 0 -18 -10t-8 -25h-65q1 62 20.5 98t62.5 36q15 0 27 -5.5t22.5 -12.5t21.5 -12.5t23 -5.5q11 0 18 9.5t9 25.5h65v0z" />
    <glyph glyph-name="Imacron" unicode="&#x12a;" horiz-adv-x="198" 
d="M25 0v714h148v-714h-148zM-26 784v85h256v-85h-256z" />
    <glyph glyph-name="imacron" unicode="&#x12b;" horiz-adv-x="177" 
d="M22 0v550h133v-550h-133zM-38 621v84h256v-84h-256z" />
    <glyph glyph-name="Ibreve" unicode="&#x12c;" horiz-adv-x="198" 
d="M25 0v714h148v-714h-148zM97 759q-56 0 -89.5 31.5t-38.5 105.5h80q2 -25 14 -39t35 -14t36.5 14t15.5 39h80q-3 -37 -13.5 -63t-28 -42.5t-41 -24t-50.5 -7.5z" />
    <glyph glyph-name="ibreve" unicode="&#x12d;" horiz-adv-x="177" 
d="M22 0v550h133v-550h-133zM87 596q-56 0 -89.5 31.5t-38.5 105.5h80q2 -26 14 -40t35 -14t36.5 14t15.5 40h80q-3 -37 -13.5 -63t-28 -42.5t-41 -24t-50.5 -7.5z" />
    <glyph glyph-name="Iogonek" unicode="&#x12e;" horiz-adv-x="198" 
d="M178 -192q-13 -9 -36 -18t-54 -9q-48 0 -71.5 23t-23.5 64q0 38 20 67.5t61 64.5h-49v714h148v-714h-44q-27 -42 -37 -66.5t-10 -47.5q0 -38 34 -38q18 0 38 10l24 -50v0z" />
    <glyph glyph-name="iogonek" unicode="&#x12f;" horiz-adv-x="177" 
d="M175 -192q-13 -9 -36 -18t-53 -9q-48 0 -71.5 23t-23.5 64q0 38 19.5 67.5t60.5 64.5h-49v550h133v-550h-29q-27 -42 -37 -66.5t-10 -47.5q0 -38 34 -38q19 0 38 10zM22 598v125h133v-125h-133z" />
    <glyph glyph-name="Idotaccent" unicode="&#x130;" horiz-adv-x="198" 
d="M25 0v714h148v-714h-148zM57 764v129h92v-129h-92z" />
    <glyph glyph-name="dotlessi" unicode="&#x131;" horiz-adv-x="177" 
d="M22 0v550h133v-550h-133z" />
    <glyph glyph-name="IJ" unicode="&#x132;" horiz-adv-x="551" 
d="M25 0v714h148v-714h-148zM526 172q0 -50 -11 -84.5t-32 -55.5t-52.5 -30.5t-72.5 -9.5q-37 0 -66 8t-49 28.5t-30.5 57t-10.5 93.5v16h128v-20q0 -32 3.5 -46.5t19.5 -14.5t20.5 15.5t4.5 42.5v542h148v-542z" />
    <glyph glyph-name="ij" unicode="&#x133;" horiz-adv-x="358" 
d="M22 598v125h133v-125h-133zM22 0v550h133v-550h-133zM334 -66q0 -63 -30.5 -90t-99.5 -27h-23.5t-25.5 2v101q8 -1 9.5 -1h6.5q30 0 30 31v600h133v-616zM201 598v125h133v-125h-133z" />
    <glyph glyph-name="Jcircumflex" unicode="&#x134;" horiz-adv-x="354" 
d="M328 172q0 -50 -11 -84.5t-32 -55.5t-52.5 -30.5t-72.5 -9.5q-37 0 -66 8t-49 28.5t-30.5 57t-10.5 93.5v16h128v-20q0 -32 3.5 -46.5t19.5 -14.5t20.5 15.5t4.5 42.5v542h148v-542zM294 760l-44 78l-46 -78h-88l55 146h157l55 -146h-89z" />
    <glyph glyph-name="jcircumflex" unicode="&#x135;" horiz-adv-x="181" 
d="M157 -66q0 -63 -30.5 -90t-99.5 -27h-23.5t-25.5 2v101q8 -1 9.5 -1h6.5q30 0 30 31v600h133v-616v0zM134 596l-44 79l-46 -79h-88l55 146h157l55 -146h-89z" />
    <glyph glyph-name="Kcommaaccent" unicode="&#x136;" horiz-adv-x="407" 
d="M259 0l-62 256l-24 -60v-196h-148v714h148v-278h2l78 278h159l-110 -297l117 -417h-160zM259 -50v-95q0 -38 -17.5 -63.5t-70.5 -30.5v42q17 3 26 13t10 30h-40v104h92z" />
    <glyph glyph-name="kcommaaccent" unicode="&#x137;" horiz-adv-x="367" 
d="M229 0l-53 221l-20 -55v-166h-134v717h134v-367h3l66 200h139l-80 -222l87 -328h-142zM237 -50v-95q0 -38 -17.5 -63.5t-70.5 -30.5v42q17 3 26 13t10 30h-40v104h92z" />
    <glyph glyph-name="kgreenlandic" unicode="&#x138;" horiz-adv-x="367" 
d="M229 0l-53 217l-20 -55v-162h-134v550h134v-204h3l66 204h139l-80 -226l87 -324h-142z" />
    <glyph glyph-name="Lacute" unicode="&#x139;" horiz-adv-x="328" 
d="M28 0v714h148v-580h146v-134h-294zM149 760h-89l18 146h133z" />
    <glyph glyph-name="lacute" unicode="&#x13a;" horiz-adv-x="182" 
d="M24 0v717h134v-717h-134zM140 760h-89l18 146h133z" />
    <glyph glyph-name="Lcommaaccent" unicode="&#x13b;" horiz-adv-x="328" 
d="M28 0v714h148v-580h146v-134h-294zM218 -50v-95q0 -38 -17.5 -63.5t-70.5 -30.5v42q17 3 26 13t10 30h-40v104h92z" />
    <glyph glyph-name="lcommaaccent" unicode="&#x13c;" horiz-adv-x="182" 
d="M24 0v717h134v-717h-134zM138 -50v-95q0 -38 -17.5 -63.5t-70.5 -30.5v42q17 3 26 13t10 30h-40v104h92z" />
    <glyph glyph-name="Lcaron" unicode="&#x13d;" horiz-adv-x="328" 
d="M28 0v714h148v-580h146v-134h-294zM299 583h-91l5 134h127z" />
    <glyph glyph-name="lcaron" unicode="&#x13e;" horiz-adv-x="182" 
d="M24 0v717h134v-717h-134zM270 583h-91l5 134h127z" />
    <glyph glyph-name="Ldot" unicode="&#x13f;" horiz-adv-x="328" 
d="M28 0v714h148v-580h146v-134h-294zM221 360v128h92v-128h-92z" />
    <glyph glyph-name="ldot" unicode="&#x140;" horiz-adv-x="297" 
d="M24 0v717h134v-717h-134zM194 318v128h92v-128h-92z" />
    <glyph glyph-name="Lslash" unicode="&#x141;" horiz-adv-x="350" 
d="M50 0v256l-38 -24v118l38 24v340h149v-255l101 62v-117l-101 -63v-207h145v-134h-294z" />
    <glyph glyph-name="lslash" unicode="&#x142;" horiz-adv-x="237" 
d="M51 0v270l-46 -34v90l46 34v357h134v-266l47 35v-90l-47 -35v-361h-134z" />
    <glyph glyph-name="Nacute" unicode="&#x143;" horiz-adv-x="430" 
d="M254 0l-93 395h-2v-395h-134v714h154l90 -390h2v390h134v-714h-151zM258 760h-89l18 146h133z" />
    <glyph glyph-name="nacute" unicode="&#x144;" horiz-adv-x="365" 
d="M209 0v407q0 18 -5.5 27t-19.5 9q-13 0 -20.5 -11t-7.5 -30v-402h-134v550h130v-56h2q17 34 40.5 49t56.5 15q52 0 72 -30t20 -80v-448h-134zM222 596h-89l18 146h133z" />
    <glyph glyph-name="Ncommaaccent" unicode="&#x145;" horiz-adv-x="430" 
d="M254 0l-93 395h-2v-395h-134v714h154l90 -390h2v390h134v-714h-151zM260 -50v-95q0 -38 -17.5 -63.5t-70.5 -30.5v42q17 3 26 13t10 30h-40v104h92z" />
    <glyph glyph-name="ncommaaccent" unicode="&#x146;" horiz-adv-x="365" 
d="M209 0v407q0 18 -5.5 27t-19.5 9q-13 0 -20.5 -11t-7.5 -30v-402h-134v550h130v-56h2q17 34 40.5 49t56.5 15q52 0 72 -30t20 -80v-448h-134zM229 -50v-95q0 -38 -17.5 -63.5t-70.5 -30.5v42q17 3 26 13t10 30h-40v104h92z" />
    <glyph glyph-name="Ncaron" unicode="&#x147;" horiz-adv-x="430" 
d="M254 0l-93 395h-2v-395h-134v714h154l90 -390h2v390h134v-714h-151zM301 760h-157l-55 146h88l46 -79l44 79h89z" />
    <glyph glyph-name="ncaron" unicode="&#x148;" horiz-adv-x="365" 
d="M209 0v407q0 18 -5.5 27t-19.5 9q-13 0 -20.5 -11t-7.5 -30v-402h-134v550h130v-56h2q17 34 40.5 49t56.5 15q52 0 72 -30t20 -80v-448h-134zM260 596h-157l-55 146h88l46 -78l44 78h89z" />
    <glyph glyph-name="napostrophe" unicode="&#x149;" horiz-adv-x="509" 
d="M352 0v407q0 18 -5.5 27t-19.5 9q-13 0 -20.5 -11t-7.5 -30v-402h-134v550h130v-56h2q17 34 40.5 49t56.5 15q52 0 72 -30t20 -80v-448h-134zM129 563q0 -48 -6 -83t-20.5 -59t-38.5 -37t-61 -16v79q9 2 17 5.5t14.5 11.5t10 21.5t3.5 34.5v10h-44v184h125v-151v0z" />
    <glyph glyph-name="Eng" unicode="&#x14a;" horiz-adv-x="430" 
d="M405 -66q0 -63 -30.5 -90t-99.5 -27h-23t-26 2v108q8 -1 10 -1h6q30 0 30 31v37l-111 400h-2v-394h-134v714h154l90 -365h2v365h134v-780v0z" />
    <glyph glyph-name="eng" unicode="&#x14b;" horiz-adv-x="365" 
d="M343 -66q0 -63 -31 -90t-100 -27h-23.5t-25.5 2v101q8 -1 9.5 -1h6.5q30 0 30 31v457q0 18 -5.5 27t-19.5 9q-13 0 -20.5 -11t-7.5 -30v-402h-134v550h130v-56h2q17 34 40.5 49t56.5 15q52 0 72 -30t20 -80v-514v0z" />
    <glyph glyph-name="Omacron" unicode="&#x14c;" horiz-adv-x="412" 
d="M398 357q0 -99 -8 -168.5t-29.5 -113t-59 -63.5t-96.5 -20t-96 20t-58 63.5t-28.5 113t-7.5 168.5q0 94 7 163t28 114t58 66.5t97 21.5q61 0 99 -21.5t59 -66t28 -113.5t7 -164zM247 357q0 78 -2 124t-6.5 70.5t-12.5 31.5t-21 7q-12 0 -19.5 -9.5t-12 -35.5t-6 -71.5
t-1.5 -116.5q0 -77 1.5 -122.5t6 -70t12 -32t19.5 -7.5q13 0 21 10t12.5 35.5t6.5 70.5t2 116zM78 784v85h256v-85h-256z" />
    <glyph glyph-name="omacron" unicode="&#x14d;" horiz-adv-x="351" 
d="M338 275q0 -77 -7 -130.5t-25.5 -87.5t-50 -49.5t-80.5 -15.5t-80.5 15.5t-49.5 49.5t-25 88t-7 130q0 71 6.5 124t24 88.5t49 53t82.5 17.5q52 0 84 -17.5t49.5 -53t23.5 -88.5t6 -124zM204 275q0 60 -1 95.5t-4 54t-9 24t-15 5.5q-8 0 -13.5 -7t-8.5 -27t-4.5 -55
t-1.5 -90q0 -60 1.5 -95.5t4.5 -54t8.5 -23.5t13.5 -5q9 0 14.5 7t9 26.5t4.5 54t1 90.5zM49 621v84h256v-84h-256z" />
    <glyph glyph-name="Obreve" unicode="&#x14e;" horiz-adv-x="412" 
d="M398 357q0 -99 -8 -168.5t-29.5 -113t-59 -63.5t-96.5 -20t-96 20t-58 63.5t-28.5 113t-7.5 168.5q0 94 7 163t28 114t58 66.5t97 21.5q61 0 99 -21.5t59 -66t28 -113.5t7 -164zM247 357q0 78 -2 124t-6.5 70.5t-12.5 31.5t-21 7q-12 0 -19.5 -9.5t-12 -35.5t-6 -71.5
t-1.5 -116.5q0 -77 1.5 -122.5t6 -70t12 -32t19.5 -7.5q13 0 21 10t12.5 35.5t6.5 70.5t2 116zM208 759q-56 0 -89.5 31.5t-38.5 105.5h80q2 -25 14 -39t35 -14t36.5 14t15.5 39h80q-3 -37 -13.5 -63t-28 -42.5t-41 -24t-50.5 -7.5z" />
    <glyph glyph-name="obreve" unicode="&#x14f;" horiz-adv-x="351" 
d="M338 275q0 -77 -7 -130.5t-25.5 -87.5t-50 -49.5t-80.5 -15.5t-80.5 15.5t-49.5 49.5t-25 88t-7 130q0 71 6.5 124t24 88.5t49 53t82.5 17.5q52 0 84 -17.5t49.5 -53t23.5 -88.5t6 -124zM204 275q0 60 -1 95.5t-4 54t-9 24t-15 5.5q-8 0 -13.5 -7t-8.5 -27t-4.5 -55
t-1.5 -90q0 -60 1.5 -95.5t4.5 -54t8.5 -23.5t13.5 -5q9 0 14.5 7t9 26.5t4.5 54t1 90.5zM176 596q-56 0 -89.5 31.5t-38.5 105.5h80q2 -26 14 -40t35 -14t36.5 14t15.5 40h80q-3 -37 -13.5 -63t-28 -42.5t-41 -24t-50.5 -7.5z" />
    <glyph glyph-name="Ohungarumlaut" unicode="&#x150;" horiz-adv-x="412" 
d="M398 357q0 -99 -8 -168.5t-29.5 -113t-59 -63.5t-96.5 -20t-96 20t-58 63.5t-28.5 113t-7.5 168.5q0 94 7 163t28 114t58 66.5t97 21.5q61 0 99 -21.5t59 -66t28 -113.5t7 -164zM247 357q0 78 -2 124t-6.5 70.5t-12.5 31.5t-21 7q-12 0 -19.5 -9.5t-12 -35.5t-6 -71.5
t-1.5 -116.5q0 -77 1.5 -122.5t6 -70t12 -32t19.5 -7.5q13 0 21 10t12.5 35.5t6.5 70.5t2 116zM329 760h-89l18 146h133zM175 760h-90l19 146h133z" />
    <glyph glyph-name="ohungarumlaut" unicode="&#x151;" horiz-adv-x="351" 
d="M338 275q0 -77 -7 -130.5t-25.5 -87.5t-50 -49.5t-80.5 -15.5t-80.5 15.5t-49.5 49.5t-25 88t-7 130q0 71 6.5 124t24 88.5t49 53t82.5 17.5q52 0 84 -17.5t49.5 -53t23.5 -88.5t6 -124zM204 275q0 60 -1 95.5t-4 54t-9 24t-15 5.5q-8 0 -13.5 -7t-8.5 -27t-4.5 -55
t-1.5 -90q0 -60 1.5 -95.5t4.5 -54t8.5 -23.5t13.5 -5q9 0 14.5 7t9 26.5t4.5 54t1 90.5zM55 596l19 146h133l-62 -146h-90zM210 596l18 146h133l-62 -146h-89z" />
    <glyph glyph-name="OE" unicode="&#x152;" horiz-adv-x="558" 
d="M256 0v37h-2q-17 -24 -39.5 -34.5t-51.5 -10.5q-48 0 -77 22.5t-44.5 68t-21 113.5t-5.5 159q0 87 5.5 155.5t22.5 115.5t47 71.5t80 24.5q30 0 50 -10t34 -29h2v31h285v-134h-136v-151h115v-125h-115v-170h141v-134h-290zM252 389q0 64 -2.5 103.5t-8 61.5t-13.5 29
t-19 7q-12 0 -20 -9.5t-13 -35.5t-7.5 -71.5t-2.5 -117.5q0 -77 2.5 -122.5t7.5 -70.5t13 -32.5t19 -7.5q13 0 21.5 10t13.5 36t7 71t2 116v33z" />
    <glyph glyph-name="oe" unicode="&#x153;" horiz-adv-x="545" 
d="M525 192q0 -30 -4 -65t-19 -65t-45.5 -50t-82.5 -20q-30 0 -55.5 11t-44.5 39h-2q-17 -27 -42 -38.5t-60 -11.5q-47 0 -77.5 15.5t-48 49.5t-24.5 88t-7 130q0 71 6 124t23.5 88.5t48 53t79.5 17.5q38 0 62.5 -12.5t41.5 -38.5h1q20 25 45 38t58 13q50 0 80.5 -20t47 -59
t21.5 -98t5 -137h-188v-5q0 -50 2 -79t5.5 -44t9.5 -19.5t15 -4.5q21 0 26 29t6 71h117zM412 333q0 37 -1.5 60.5t-5 37.5t-10 19.5t-15.5 5.5q-10 0 -16.5 -4.5t-11 -18t-6.5 -37.5t-2 -63h68zM204 275q0 60 -1 95.5t-4 54t-9 24t-15 5.5q-8 0 -13.5 -7t-8.5 -27t-4.5 -55
t-1.5 -90q0 -60 1.5 -95.5t4.5 -54t8.5 -23.5t13.5 -5q9 0 14.5 7t9 26.5t4.5 54t1 90.5z" />
    <glyph glyph-name="Racute" unicode="&#x154;" horiz-adv-x="414" 
d="M392 534q0 -75 -19.5 -116.5t-67.5 -61.5v-3q24 -7 39.5 -17.5t24.5 -30t13 -50t5 -77.5q1 -80 4.5 -120t12.5 -50v-8h-149q-3 7 -4.5 22t-3 35.5t-2.5 44t-1 48.5q0 46 -3 72.5t-8.5 40t-15 16.5t-23.5 3h-21v-282h-148v714h191q93 0 134.5 -47t41.5 -133zM247 502
q0 47 -11.5 68.5t-40.5 21.5h-19v-196h22q28 0 38.5 27t10.5 79zM236 760h-89l18 146h133z" />
    <glyph glyph-name="racute" unicode="&#x155;" horiz-adv-x="247" 
d="M22 0v550h131v-74h2q8 41 25 61.5t49 20.5h5.5t8.5 -1v-147q-10 1 -16.5 1.5t-14.5 0.5q-32 0 -44 -18t-12 -44v-350h-134zM176 596h-89l18 146h133z" />
    <glyph glyph-name="Rcommaaccent" unicode="&#x156;" horiz-adv-x="414" 
d="M392 534q0 -75 -19.5 -116.5t-67.5 -61.5v-3q24 -7 39.5 -17.5t24.5 -30t13 -50t5 -77.5q1 -80 4.5 -120t12.5 -50v-8h-149q-3 7 -4.5 22t-3 35.5t-2.5 44t-1 48.5q0 46 -3 72.5t-8.5 40t-15 16.5t-23.5 3h-21v-282h-148v714h191q93 0 134.5 -47t41.5 -133zM247 502
q0 47 -11.5 68.5t-40.5 21.5h-19v-196h22q28 0 38.5 27t10.5 79zM255 -50v-95q0 -38 -17.5 -63.5t-70.5 -30.5v42q17 3 26 13t10 30h-40v104h92z" />
    <glyph glyph-name="rcommaaccent" unicode="&#x157;" horiz-adv-x="247" 
d="M22 0v550h131v-74h2q8 41 25 61.5t49 20.5h5.5t8.5 -1v-147q-10 1 -16.5 1.5t-14.5 0.5q-32 0 -44 -18t-12 -44v-350h-134zM136 -50v-95q0 -38 -17.5 -63.5t-70.5 -30.5v42q17 3 26 13t10 30h-40v104h92z" />
    <glyph glyph-name="Rcaron" unicode="&#x158;" horiz-adv-x="414" 
d="M392 534q0 -75 -19.5 -116.5t-67.5 -61.5v-3q24 -7 39.5 -17.5t24.5 -30t13 -50t5 -77.5q1 -80 4.5 -120t12.5 -50v-8h-149q-3 7 -4.5 22t-3 35.5t-2.5 44t-1 48.5q0 46 -3 72.5t-8.5 40t-15 16.5t-23.5 3h-21v-282h-148v714h191q93 0 134.5 -47t41.5 -133zM247 502
q0 47 -11.5 68.5t-40.5 21.5h-19v-196h22q28 0 38.5 27t10.5 79zM276 760h-157l-55 146h88l46 -79l44 79h89z" />
    <glyph glyph-name="rcaron" unicode="&#x159;" horiz-adv-x="247" 
d="M22 0v550h131v-74h2q8 41 25 61.5t49 20.5h5.5t8.5 -1v-147q-10 1 -16.5 1.5t-14.5 0.5q-32 0 -44 -18t-12 -44v-350h-134zM219 596h-157l-55 146h88l46 -78l44 78h89z" />
    <glyph glyph-name="Sacute" unicode="&#x15a;" horiz-adv-x="383" 
d="M372 205q0 -109 -46.5 -161t-136.5 -52q-46 0 -78.5 11t-53.5 37t-32 70.5t-13 111.5h135q3 -62 11.5 -85t31.5 -23q37 0 37 57q0 39 -16 64.5t-40 46t-51.5 40t-51.5 47t-40 66t-16 96.5q0 98 46 144.5t133 46.5q49 0 82 -14t53 -41t28.5 -66.5t8.5 -91.5h-120
q-2 45 -9.5 70t-33.5 25q-24 0 -30.5 -17.5t-6.5 -36.5q0 -36 15.5 -59.5t38.5 -42.5t50.5 -37.5t50.5 -45t38.5 -64.5t15.5 -96zM232 760h-89l18 146h133z" />
    <glyph glyph-name="sacute" unicode="&#x15b;" horiz-adv-x="318" 
d="M308 163q0 -38 -7.5 -69.5t-25 -54t-47 -35t-74.5 -12.5q-76 0 -107 42.5t-35 134.5h120q2 -38 6.5 -61t21.5 -23t20.5 16t3.5 33q0 29 -12.5 47.5t-32 33.5t-41.5 29t-41.5 34t-32 49t-12.5 75q0 78 36 117t113 39q45 0 72.5 -12.5t42.5 -34.5t20 -52.5t5 -66.5h-108
q-1 29 -5.5 49t-23.5 20q-16 0 -20 -14.5t-4 -29.5q0 -25 12.5 -40.5t31 -29t40.5 -27t40.5 -33.5t31 -49.5t12.5 -74.5zM206 596h-89l18 146h133z" />
    <glyph glyph-name="Scircumflex" unicode="&#x15c;" horiz-adv-x="383" 
d="M372 205q0 -109 -46.5 -161t-136.5 -52q-46 0 -78.5 11t-53.5 37t-32 70.5t-13 111.5h135q3 -62 11.5 -85t31.5 -23q37 0 37 57q0 39 -16 64.5t-40 46t-51.5 40t-51.5 47t-40 66t-16 96.5q0 98 46 144.5t133 46.5q49 0 82 -14t53 -41t28.5 -66.5t8.5 -91.5h-120
q-2 45 -9.5 70t-33.5 25q-24 0 -30.5 -17.5t-6.5 -36.5q0 -36 15.5 -59.5t38.5 -42.5t50.5 -37.5t50.5 -45t38.5 -64.5t15.5 -96zM239 760l-44 78l-46 -78h-88l55 146h157l55 -146h-89z" />
    <glyph glyph-name="scircumflex" unicode="&#x15d;" horiz-adv-x="318" 
d="M308 163q0 -38 -7.5 -69.5t-25 -54t-47 -35t-74.5 -12.5q-76 0 -107 42.5t-35 134.5h120q2 -38 6.5 -61t21.5 -23t20.5 16t3.5 33q0 29 -12.5 47.5t-32 33.5t-41.5 29t-41.5 34t-32 49t-12.5 75q0 78 36 117t113 39q45 0 72.5 -12.5t42.5 -34.5t20 -52.5t5 -66.5h-108
q-1 29 -5.5 49t-23.5 20q-16 0 -20 -14.5t-4 -29.5q0 -25 12.5 -40.5t31 -29t40.5 -27t40.5 -33.5t31 -49.5t12.5 -74.5zM203 596l-44 79l-46 -79h-88l55 146h157l55 -146h-89z" />
    <glyph glyph-name="Scedilla" unicode="&#x15e;" horiz-adv-x="383" 
d="M289 -130q0 -46 -30 -68t-78 -22q-26 0 -47 5t-35 13l17 47q14 -7 27.5 -9t25.5 -2q20 0 32.5 8t12.5 28q0 31 -34 31q-10 0 -16.5 -2t-13.5 -5l-23 10l28 90q-37 3 -63 16.5t-43.5 40t-26 68.5t-10.5 103h135q3 -62 11.5 -85t31.5 -23q37 0 37 57q0 39 -16 64.5t-40 46
t-51.5 40t-51.5 47t-40 66t-16 96.5q0 98 46 144.5t133 46.5q49 0 82 -14t53 -41t28.5 -66.5t8.5 -91.5h-120q-2 45 -9.5 70t-33.5 25q-24 0 -30.5 -17.5t-6.5 -36.5q0 -36 15.5 -59.5t38.5 -42.5t50.5 -37.5t50.5 -45t38.5 -64.5t15.5 -96q0 -104 -43 -156t-126 -56
l-16 -50l2 -1q7 2 13.5 2.5t11.5 0.5q75 0 75 -75z" />
    <glyph glyph-name="scedilla" unicode="&#x15f;" horiz-adv-x="318" 
d="M257 -130q0 -46 -30 -68t-78 -22q-26 0 -47 5t-35 13l17 47q14 -7 27.5 -9t25.5 -2q20 0 32.5 8t12.5 28q0 31 -34 31q-10 0 -16.5 -2t-13.5 -5l-23 10l28 90q-59 8 -83.5 50t-27.5 125h120q2 -38 6.5 -61t21.5 -23t20.5 16t3.5 33q0 29 -12.5 47.5t-32 33.5t-41.5 29
t-41.5 34t-32 49t-12.5 75q0 78 36 117t113 39q45 0 72.5 -12.5t42.5 -34.5t20 -52.5t5 -66.5h-108q-1 29 -5.5 49t-23.5 20q-16 0 -20 -14.5t-4 -29.5q0 -25 12.5 -40.5t31 -29t40.5 -27t40.5 -33.5t31 -49.5t12.5 -74.5q0 -36 -6.5 -66t-22.5 -52.5t-42.5 -36t-65.5 -15.5
l-16 -50l2 -1q7 2 13.5 2.5t11.5 0.5q75 0 75 -75z" />
    <glyph glyph-name="Scaron" unicode="&#x160;" horiz-adv-x="383" 
d="M372 205q0 -109 -46.5 -161t-136.5 -52q-46 0 -78.5 11t-53.5 37t-32 70.5t-13 111.5h135q3 -62 11.5 -85t31.5 -23q37 0 37 57q0 39 -16 64.5t-40 46t-51.5 40t-51.5 47t-40 66t-16 96.5q0 98 46 144.5t133 46.5q49 0 82 -14t53 -41t28.5 -66.5t8.5 -91.5h-120
q-2 45 -9.5 70t-33.5 25q-24 0 -30.5 -17.5t-6.5 -36.5q0 -36 15.5 -59.5t38.5 -42.5t50.5 -37.5t50.5 -45t38.5 -64.5t15.5 -96zM274 760h-157l-55 146h88l46 -79l44 79h89z" />
    <glyph glyph-name="scaron" unicode="&#x161;" horiz-adv-x="318" 
d="M308 163q0 -38 -7.5 -69.5t-25 -54t-47 -35t-74.5 -12.5q-76 0 -107 42.5t-35 134.5h120q2 -38 6.5 -61t21.5 -23t20.5 16t3.5 33q0 29 -12.5 47.5t-32 33.5t-41.5 29t-41.5 34t-32 49t-12.5 75q0 78 36 117t113 39q45 0 72.5 -12.5t42.5 -34.5t20 -52.5t5 -66.5h-108
q-1 29 -5.5 49t-23.5 20q-16 0 -20 -14.5t-4 -29.5q0 -25 12.5 -40.5t31 -29t40.5 -27t40.5 -33.5t31 -49.5t12.5 -74.5zM241 596h-157l-55 146h88l46 -78l44 78h89z" />
    <glyph glyph-name="Tcommaaccent" unicode="&#x162;" horiz-adv-x="364" 
d="M107 0v580h-101v134h352v-134h-102v-580h-149zM227 -50v-95q0 -38 -17.5 -63.5t-70.5 -30.5v42q17 3 26 13t10 30h-40v104h92z" />
    <glyph glyph-name="tcommaaccent" unicode="&#x163;" horiz-adv-x="236" 
d="M224 3q-17 -3 -36 -5t-41 -2q-32 0 -52 7.5t-31 21t-15 33.5t-4 45v340h-39v107h39v146h134v-146h45v-107h-45v-315q0 -14 7.5 -17.5t15.5 -3.5q10 0 22 3v-107v0zM185 -50v-95q0 -38 -17.5 -63.5t-70.5 -30.5v42q17 3 26 13t10 30h-40v104h92z" />
    <glyph glyph-name="Tcaron" unicode="&#x164;" horiz-adv-x="364" 
d="M107 0v580h-101v134h352v-134h-102v-580h-149zM265 760h-157l-55 146h88l46 -79l44 79h89z" />
    <glyph glyph-name="tcaron" unicode="&#x165;" horiz-adv-x="236" 
d="M224 3q-17 -3 -36 -5t-41 -2q-32 0 -52 7.5t-31 21t-15 33.5t-4 45v340h-39v107h39v146h134v-146h45v-107h-45v-315q0 -14 7.5 -17.5t15.5 -3.5q10 0 22 3v-107v0zM290 583h-91l5 134h127z" />
    <glyph glyph-name="Tbar" unicode="&#x166;" horiz-adv-x="364" 
d="M107 0v352h-66v84h66v144h-101v134h352v-134h-102v-144h67v-84h-67v-352h-149z" />
    <glyph glyph-name="tbar" unicode="&#x167;" horiz-adv-x="236" 
d="M224 3q-17 -3 -36 -5t-41 -2q-32 0 -52 7.5t-31 21t-15 33.5t-4 45v183h-39v65h39v92h-39v107h39v146h134v-146h45v-107h-45v-92h43v-65h-43v-158q0 -14 7.5 -17.5t15.5 -3.5q10 0 22 3v-107v0z" />
    <glyph glyph-name="Utilde" unicode="&#x168;" horiz-adv-x="402" 
d="M381 181q0 -100 -43 -145t-137 -45q-51 0 -85.5 11t-55.5 34t-30 58.5t-9 85.5v534h149v-550q0 -22 7 -33t24 -11q32 0 32 44v550h148v-533v0zM345 893q-2 -62 -21 -97.5t-63 -35.5q-15 0 -27 5.5t-22.5 12t-21.5 12t-23 5.5q-11 0 -18 -9.5t-8 -25.5h-65q1 62 20.5 98
t62.5 36q15 0 27 -5.5t22.5 -12.5t21.5 -12.5t23 -5.5q11 0 18 10t9 25h65v0z" />
    <glyph glyph-name="utilde" unicode="&#x169;" horiz-adv-x="362" 
d="M210 0v54h-2q-14 -35 -37 -48.5t-56 -13.5q-50 0 -72 29t-22 81v448h133v-407q0 -36 24 -36q13 0 20.5 11t7.5 30v402h134v-550h-130zM327 730q-2 -63 -21 -98.5t-63 -35.5q-15 0 -27 5.5t-22.5 12.5t-21.5 12.5t-23 5.5q-11 0 -18 -10t-8 -25h-65q1 62 20.5 98t62.5 36
q15 0 27 -5.5t22.5 -12.5t21.5 -12.5t23 -5.5q11 0 18 9.5t9 25.5h65v0z" />
    <glyph glyph-name="Umacron" unicode="&#x16a;" horiz-adv-x="402" 
d="M381 181q0 -100 -43 -145t-137 -45q-51 0 -85.5 11t-55.5 34t-30 58.5t-9 85.5v534h149v-550q0 -22 7 -33t24 -11q32 0 32 44v550h148v-533v0zM79 784v85h256v-85h-256z" />
    <glyph glyph-name="umacron" unicode="&#x16b;" horiz-adv-x="362" 
d="M210 0v54h-2q-14 -35 -37 -48.5t-56 -13.5q-50 0 -72 29t-22 81v448h133v-407q0 -36 24 -36q13 0 20.5 11t7.5 30v402h134v-550h-130zM57 621v84h256v-84h-256z" />
    <glyph glyph-name="Ubreve" unicode="&#x16c;" horiz-adv-x="402" 
d="M381 181q0 -100 -43 -145t-137 -45q-51 0 -85.5 11t-55.5 34t-30 58.5t-9 85.5v534h149v-550q0 -22 7 -33t24 -11q32 0 32 44v550h148v-533v0zM200 759q-56 0 -89.5 31.5t-38.5 105.5h80q2 -25 14 -39t35 -14t36.5 14t15.5 39h80q-3 -37 -13.5 -63t-28 -42.5t-41 -24
t-50.5 -7.5z" />
    <glyph glyph-name="ubreve" unicode="&#x16d;" horiz-adv-x="362" 
d="M210 0v54h-2q-14 -35 -37 -48.5t-56 -13.5q-50 0 -72 29t-22 81v448h133v-407q0 -36 24 -36q13 0 20.5 11t7.5 30v402h134v-550h-130zM185 596q-56 0 -89.5 31.5t-38.5 105.5h80q2 -26 14 -40t35 -14t36.5 14t15.5 40h80q-3 -37 -13.5 -63t-28 -42.5t-41 -24t-50.5 -7.5z
" />
    <glyph glyph-name="Uring" unicode="&#x16e;" horiz-adv-x="402" 
d="M381 181q0 -100 -43 -145t-137 -45q-51 0 -85.5 11t-55.5 34t-30 58.5t-9 85.5v534h149v-550q0 -22 7 -33t24 -11q32 0 32 44v550h148v-533v0zM315 854q0 -52 -32.5 -83.5t-80.5 -31.5q-23 0 -43.5 8.5t-36 23.5t-24.5 36t-9 47q0 25 9 46.5t24 36.5t35.5 23.5t44.5 8.5
q22 0 42.5 -8t36.5 -22.5t25 -36t9 -48.5zM254 854q0 23 -14.5 38.5t-37.5 15.5q-21 0 -36.5 -14t-15.5 -40q0 -23 14.5 -38t37.5 -15q22 0 37 15t15 38z" />
    <glyph glyph-name="uring" unicode="&#x16f;" horiz-adv-x="362" 
d="M210 0v54h-2q-14 -35 -37 -48.5t-56 -13.5q-50 0 -72 29t-22 81v448h133v-407q0 -36 24 -36q13 0 20.5 11t7.5 30v402h134v-550h-130zM297 691q0 -53 -32.5 -84.5t-80.5 -31.5q-47 0 -80 31.5t-33 84.5q0 25 9 46t24 36t35.5 23.5t44.5 8.5q22 0 42.5 -8t36.5 -22.5
t25 -35.5t9 -48zM236 691q0 23 -14.5 38.5t-37.5 15.5q-21 0 -36.5 -14t-15.5 -40q0 -23 14.5 -38t37.5 -15q22 0 37 15t15 38z" />
    <glyph glyph-name="Uhungarumlaut" unicode="&#x170;" horiz-adv-x="402" 
d="M381 181q0 -100 -43 -145t-137 -45q-51 0 -85.5 11t-55.5 34t-30 58.5t-9 85.5v534h149v-550q0 -22 7 -33t24 -11q32 0 32 44v550h148v-533v0zM326 760h-89l18 146h133zM172 760h-90l19 146h133z" />
    <glyph glyph-name="uhungarumlaut" unicode="&#x171;" horiz-adv-x="362" 
d="M210 0v54h-2q-14 -35 -37 -48.5t-56 -13.5q-50 0 -72 29t-22 81v448h133v-407q0 -36 24 -36q13 0 20.5 11t7.5 30v402h134v-550h-130zM59 596l19 146h133l-62 -146h-90zM214 596l18 146h133l-62 -146h-89z" />
    <glyph glyph-name="Uogonek" unicode="&#x172;" horiz-adv-x="402" 
d="M312 -192q-12 -9 -35.5 -18t-54.5 -9q-47 0 -70.5 23t-23.5 64q0 35 17 63t52 60q-50 0 -84 11t-54.5 34t-29 58t-8.5 85v535h149v-552q0 -22 7 -32t24 -10q16 0 24 9.5t8 32.5v552h148v-534q0 -84 -29 -128t-92 -56q-25 -39 -34.5 -63t-9.5 -47q0 -21 9 -29.5t25 -8.5
q19 0 38 10l24 -50v0z" />
    <glyph glyph-name="uogonek" unicode="&#x173;" horiz-adv-x="362" 
d="M314 -192q-13 -9 -36 -18t-54 -9q-48 0 -71.5 23t-23.5 64q0 38 19.5 67.5t61.5 65.5v55h-2q-14 -36 -37 -50t-56 -14q-50 0 -72 29t-22 81v448h133v-407q0 -36 24 -36q13 0 20.5 11t7.5 30v402h134v-550h-75q-26 -41 -36.5 -66t-10.5 -48q0 -38 34 -38q18 0 38 10
l24 -50v0z" />
    <glyph glyph-name="Wcircumflex" unicode="&#x174;" horiz-adv-x="541" 
d="M315 0l-37 417h-2l-41 -417h-157l-82 714h143l32 -450h2l35 450h139l31 -450h2l34 450h132l-80 -714h-151zM323 760l-44 78l-46 -78h-88l55 146h157l55 -146h-89z" />
    <glyph glyph-name="wcircumflex" unicode="&#x175;" horiz-adv-x="495" 
d="M279 0l-24 364h-2l-30 -364h-146l-75 550h138l17 -354h2l34 354h131l24 -354h2l24 354h121l-69 -550h-147zM304 596l-44 79l-46 -79h-88l55 146h157l55 -146h-89z" />
    <glyph glyph-name="Ycircumflex" unicode="&#x176;" horiz-adv-x="399" 
d="M128 0v235l-139 479h164l47 -283h2l53 283h155l-134 -479v-235h-148zM250 760l-44 78l-46 -78h-88l55 146h157l55 -146h-89z" />
    <glyph glyph-name="ycircumflex" unicode="&#x177;" horiz-adv-x="342" 
d="M244 -23q-8 -45 -17.5 -76t-26.5 -49.5t-44.5 -26.5t-70.5 -8q-18 0 -31.5 0.5t-28.5 2.5v101q19 -3 33 -3q19 0 27 7.5t11 23.5q1 9 1 18t-2 20l-99 563h141l35 -380h1l39 380h136l-104 -573v0zM221 596l-44 79l-46 -79h-88l55 146h157l55 -146h-89z" />
    <glyph glyph-name="Ydieresis" unicode="&#x178;" horiz-adv-x="399" 
d="M128 0v235l-139 479h164l47 -283h2l53 283h155l-134 -479v-235h-148zM94 764v129h93v-129h-93zM226 764v129h92v-129h-92z" />
    <glyph glyph-name="Zacute" unicode="&#x179;" horiz-adv-x="374" 
d="M11 0v107l174 473h-162v134h336v-122l-169 -458h170v-134h-349zM236 760h-89l18 146h133z" />
    <glyph glyph-name="zacute" unicode="&#x17a;" horiz-adv-x="301" 
d="M10 0v95l123 348h-121v107h276v-89l-132 -353h134v-108h-280zM196 596h-89l18 146h133z" />
    <glyph glyph-name="Zdotaccent" unicode="&#x17b;" horiz-adv-x="374" 
d="M11 0v107l174 473h-162v134h336v-122l-169 -458h170v-134h-349zM148 764v129h92v-129h-92z" />
    <glyph glyph-name="zdotaccent" unicode="&#x17c;" horiz-adv-x="301" 
d="M10 0v95l123 348h-121v107h276v-89l-132 -353h134v-108h-280zM110 601v128h92v-128h-92z" />
    <glyph glyph-name="Zcaron" unicode="&#x17d;" horiz-adv-x="374" 
d="M11 0v107l174 473h-162v134h336v-122l-169 -458h170v-134h-349zM275 760h-157l-55 146h88l46 -79l44 79h89z" />
    <glyph glyph-name="zcaron" unicode="&#x17e;" horiz-adv-x="301" 
d="M10 0v95l123 348h-121v107h276v-89l-132 -353h134v-108h-280zM237 596h-157l-55 146h88l46 -78l44 78h89z" />
    <glyph glyph-name="florin" unicode="&#x192;" horiz-adv-x="401" 
d="M273 414h86l-11 -86h-86l-38 -320q-11 -97 -51 -140.5t-118 -43.5q-22 0 -39.5 2t-37.5 7l14 107q13 -4 27 -4q32 0 45.5 17t18.5 61l39 314h-82l9 86h84l13 104q7 53 19.5 89t34 58t53.5 31.5t77 9.5q41 0 64 -6l-14 -109q-6 2 -14 2.5t-16 0.5q-16 0 -26.5 -4.5
t-18 -15t-13 -29.5t-9.5 -47z" />
    <glyph glyph-name="Scommaaccent" unicode="&#x218;" horiz-adv-x="383" 
d="M372 205q0 -109 -46.5 -161t-136.5 -52q-46 0 -78.5 11t-53.5 37t-32 70.5t-13 111.5h135q3 -62 11.5 -85t31.5 -23q37 0 37 57q0 39 -16 64.5t-40 46t-51.5 40t-51.5 47t-40 66t-16 96.5q0 98 46 144.5t133 46.5q49 0 82 -14t53 -41t28.5 -66.5t8.5 -91.5h-120
q-2 45 -9.5 70t-33.5 25q-24 0 -30.5 -17.5t-6.5 -36.5q0 -36 15.5 -59.5t38.5 -42.5t50.5 -37.5t50.5 -45t38.5 -64.5t15.5 -96zM236 -50v-95q0 -38 -17.5 -63.5t-70.5 -30.5v42q17 3 26 13t10 30h-40v104h92z" />
    <glyph glyph-name="scommaaccent" unicode="&#x219;" horiz-adv-x="318" 
d="M308 163q0 -38 -7.5 -69.5t-25 -54t-47 -35t-74.5 -12.5q-76 0 -107 42.5t-35 134.5h120q2 -38 6.5 -61t21.5 -23t20.5 16t3.5 33q0 29 -12.5 47.5t-32 33.5t-41.5 29t-41.5 34t-32 49t-12.5 75q0 78 36 117t113 39q45 0 72.5 -12.5t42.5 -34.5t20 -52.5t5 -66.5h-108
q-1 29 -5.5 49t-23.5 20q-16 0 -20 -14.5t-4 -29.5q0 -25 12.5 -40.5t31 -29t40.5 -27t40.5 -33.5t31 -49.5t12.5 -74.5zM204 -50v-95q0 -38 -17.5 -63.5t-70.5 -30.5v42q17 3 26 13t10 30h-40v104h92z" />
    <glyph glyph-name="uni021A" unicode="&#x21a;" horiz-adv-x="364" 
d="M107 0v580h-101v134h352v-134h-102v-580h-149zM227 -50v-95q0 -38 -17.5 -63.5t-70.5 -30.5v42q17 3 26 13t10 30h-40v104h92z" />
    <glyph glyph-name="uni021B" unicode="&#x21b;" horiz-adv-x="236" 
d="M224 3q-17 -3 -36 -5t-41 -2q-32 0 -52 7.5t-31 21t-15 33.5t-4 45v340h-39v107h39v146h134v-146h45v-107h-45v-315q0 -14 7.5 -17.5t15.5 -3.5q10 0 22 3v-107v0zM185 -50v-95q0 -38 -17.5 -63.5t-70.5 -30.5v42q17 3 26 13t10 30h-40v104h92z" />
    <glyph glyph-name="uni0237" unicode="&#x237;" horiz-adv-x="181" 
d="M157 -66q0 -63 -30.5 -90t-99.5 -27h-23.5t-25.5 2v101q8 -1 9.5 -1h6.5q30 0 30 31v600h133v-616v0z" />
    <glyph glyph-name="circumflex" unicode="&#x2c6;" horiz-adv-x="271" 
d="M180 596l-44 79l-46 -79h-88l55 146h157l55 -146h-89z" />
    <glyph glyph-name="caron" unicode="&#x2c7;" horiz-adv-x="271" 
d="M214 596h-157l-55 146h88l46 -78l44 78h89z" />
    <glyph glyph-name="uni02C9" unicode="&#x2c9;" horiz-adv-x="271" 
d="M7 621v84h256v-84h-256z" />
    <glyph glyph-name="breve" unicode="&#x2d8;" horiz-adv-x="271" 
d="M133 596q-56 0 -89.5 31.5t-38.5 105.5h80q2 -26 14 -40t35 -14t36.5 14t15.5 40h80q-3 -37 -13.5 -63t-28 -42.5t-41 -24t-50.5 -7.5z" />
    <glyph glyph-name="dotaccent" unicode="&#x2d9;" horiz-adv-x="271" 
d="M89 601v128h92v-128h-92z" />
    <glyph glyph-name="ring" unicode="&#x2da;" horiz-adv-x="271" 
d="M249 691q0 -53 -32.5 -84.5t-80.5 -31.5q-47 0 -80 31.5t-33 84.5q0 25 9 46t24 36t35.5 23.5t44.5 8.5q22 0 42.5 -8t36.5 -22.5t25 -35.5t9 -48zM188 691q0 23 -14.5 38.5t-37.5 15.5q-21 0 -36.5 -14t-15.5 -40q0 -23 14.5 -38t37.5 -15q22 0 37 15t15 38z" />
    <glyph glyph-name="ogonek" unicode="&#x2db;" horiz-adv-x="271" 
d="M137 -219q-48 0 -71 23t-23 64q0 38 19 67.5t60 64.5h56q-26 -41 -36.5 -66t-10.5 -48q0 -21 9 -29.5t25 -8.5q18 0 38 10l24 -50q-13 -9 -36.5 -18t-53.5 -9z" />
    <glyph glyph-name="tilde" unicode="&#x2dc;" horiz-adv-x="271" 
d="M270 730q-2 -63 -21 -98.5t-63 -35.5q-15 0 -27 5.5t-22.5 12.5t-21.5 12.5t-23 5.5q-11 0 -18 -10t-8 -25h-65q1 62 20.5 98t62.5 36q15 0 27 -5.5t22.5 -12.5t21.5 -12.5t23 -5.5q11 0 18 9.5t9 25.5h65v0z" />
    <glyph glyph-name="hungarumlaut" unicode="&#x2dd;" horiz-adv-x="271" 
d="M-18 596l19 146h133l-62 -146h-90zM137 596l18 146h133l-62 -146h-89z" />
    <glyph glyph-name="gravecomb" unicode="&#x300;" horiz-adv-x="0" 
d="M-89 596l-62 146h133l18 -146h-89z" />
    <glyph glyph-name="acutecomb" unicode="&#x301;" horiz-adv-x="0" 
d="M-62 596h-89l18 146h133z" />
    <glyph glyph-name="uni0302" unicode="&#x302;" horiz-adv-x="0" 
d="M-89 596l-44 79l-46 -79h-88l55 146h157l55 -146h-89z" />
    <glyph glyph-name="tildecomb" unicode="&#x303;" horiz-adv-x="0" 
d="M0 730q-2 -63 -21 -98.5t-63 -35.5q-15 0 -27 5.5t-22.5 12.5t-21.5 12.5t-23 5.5q-11 0 -18 -10t-8 -25h-65q1 62 20.5 98t62.5 36q15 0 27 -5.5t22.5 -12.5t21.5 -12.5t23 -5.5q11 0 18 9.5t9 25.5h65v0z" />
    <glyph glyph-name="uni0304" unicode="&#x304;" horiz-adv-x="0" 
d="M-256 621v84h256v-84h-256z" />
    <glyph glyph-name="uni0306" unicode="&#x306;" horiz-adv-x="0" 
d="M-133 596q-56 0 -89.5 31.5t-38.5 105.5h80q2 -26 14 -40t35 -14t36.5 14t15.5 40h80q-3 -37 -13.5 -63t-28 -42.5t-41 -24t-50.5 -7.5z" />
    <glyph glyph-name="uni0307" unicode="&#x307;" horiz-adv-x="0" 
d="M-92 601v128h92v-128h-92z" />
    <glyph glyph-name="uni0308" unicode="&#x308;" horiz-adv-x="0" 
d="M-224 729h93v-128h-93v128zM-92 729h92v-128h-92v128z" />
    <glyph glyph-name="uni030A" unicode="&#x30a;" horiz-adv-x="0" 
d="M0 691q0 -53 -32.5 -84.5t-80.5 -31.5q-47 0 -80 31.5t-33 84.5q0 25 9 46t24 36t35.5 23.5t44.5 8.5q22 0 42.5 -8t36.5 -22.5t25 -35.5t9 -48zM-61 691q0 23 -14.5 38.5t-37.5 15.5q-21 0 -36.5 -14t-15.5 -40q0 -23 14.5 -38t37.5 -15q22 0 37 15t15 38z" />
    <glyph glyph-name="uni030B" unicode="&#x30b;" horiz-adv-x="0" 
d="M-306 596l19 146h133l-62 -146h-90zM-151 596l18 146h133l-62 -146h-89z" />
    <glyph glyph-name="uni030C" unicode="&#x30c;" horiz-adv-x="0" 
d="M-55 596h-157l-55 146h88l46 -78l44 78h89z" />
    <glyph glyph-name="uni0326" unicode="&#x326;" horiz-adv-x="0" 
d="M0 -50v-95q0 -38 -17.5 -63.5t-70.5 -30.5v42q17 3 26 13t10 30h-40v104h92z" />
    <glyph glyph-name="uni0327" unicode="&#x327;" horiz-adv-x="0" 
d="M0 -130q0 -46 -30 -68t-78 -22q-26 0 -47 5t-35 13l17 47q14 -7 27.5 -9t25.5 -2q20 0 32.5 8t12.5 28q0 31 -34 31q-10 0 -16.5 -2t-13.5 -5l-23 10l30 96h49l-19 -57l2 -1q7 2 13.5 2.5t11.5 0.5q75 0 75 -75z" />
    <glyph glyph-name="uni0328" unicode="&#x328;" horiz-adv-x="0" 
d="M-90 -219q-48 0 -71 23t-23 64q0 38 19 67.5t60 64.5h56q-26 -41 -36.5 -66t-10.5 -48q0 -21 9 -29.5t25 -8.5q18 0 38 10l24 -50q-13 -9 -36.5 -18t-53.5 -9z" />
    <glyph glyph-name="Delta" unicode="&#x394;" horiz-adv-x="400" 
d="M-3 0l102 714h201l104 -714h-407zM197 566h-2l-40 -432h87z" />
    <glyph glyph-name="Omega" unicode="&#x3a9;" horiz-adv-x="425" 
d="M223 0v134q7 7 13.5 21.5t11 41t7.5 67.5t3 101q0 73 -2 118.5t-7 70.5t-14 33.5t-24 8.5q-14 0 -22.5 -9t-13.5 -34.5t-7 -70.5t-2 -117q0 -61 3 -102.5t8 -68t11 -40.5t13 -20v-134h-184v134h70q-19 22 -31.5 54.5t-20.5 70t-11.5 77.5t-3.5 78q0 68 7 125t27.5 97.5
t58 63t98.5 22.5q62 0 100 -22.5t58.5 -63t27.5 -97t7 -125.5q0 -38 -3.5 -78t-11 -77.5t-20 -70t-30.5 -54.5h67v-134h-183z" />
    <glyph glyph-name="mu" unicode="&#x3bc;" horiz-adv-x="362" 
d="M210 0v56h-2q-4 -20 -11 -31.5t-16 -17.5q-14 -9 -27 -4v-186h-133v733h133v-411q1 -32 24 -32q13 0 20.5 11t7.5 30v402h134v-550h-130z" />
    <glyph glyph-name="pi" unicode="&#x3c0;" horiz-adv-x="424" 
d="M409 2q-20 -5 -37.5 -7t-37.5 -2q-31 0 -51 8t-31.5 23.5t-16 39t-4.5 54.5v291h-51v-409h-123v409h-47v141h401v-141h-57v-274q0 -17 7.5 -23.5t19.5 -6.5q17 0 28 4v-107v0z" />
    <glyph glyph-name="Wgrave" unicode="&#x1e80;" horiz-adv-x="541" 
d="M315 0l-37 417h-2l-41 -417h-157l-82 714h143l32 -450h2l35 450h139l31 -450h2l34 450h132l-80 -714h-151zM171 906h133l18 -146h-89z" />
    <glyph glyph-name="wgrave" unicode="&#x1e81;" horiz-adv-x="495" 
d="M279 0l-24 364h-2l-30 -364h-146l-75 550h138l17 -354h2l34 354h131l24 -354h2l24 354h121l-69 -550h-147zM214 596l-62 146h133l18 -146h-89z" />
    <glyph glyph-name="Wacute" unicode="&#x1e82;" horiz-adv-x="541" 
d="M315 0l-37 417h-2l-41 -417h-157l-82 714h143l32 -450h2l35 450h139l31 -450h2l34 450h132l-80 -714h-151zM325 760h-89l18 146h133z" />
    <glyph glyph-name="wacute" unicode="&#x1e83;" horiz-adv-x="495" 
d="M279 0l-24 364h-2l-30 -364h-146l-75 550h138l17 -354h2l34 354h131l24 -354h2l24 354h121l-69 -550h-147zM304 596h-89l18 146h133z" />
    <glyph glyph-name="Wdieresis" unicode="&#x1e84;" horiz-adv-x="541" 
d="M315 0l-37 417h-2l-41 -417h-157l-82 714h143l32 -450h2l35 450h139l31 -450h2l34 450h132l-80 -714h-151zM168 764v129h93v-129h-93zM300 764v129h92v-129h-92z" />
    <glyph glyph-name="wdieresis" unicode="&#x1e85;" horiz-adv-x="495" 
d="M279 0l-24 364h-2l-30 -364h-146l-75 550h138l17 -354h2l34 354h131l24 -354h2l24 354h121l-69 -550h-147zM145 729h93v-128h-93v128zM277 729h92v-128h-92v128z" />
    <glyph glyph-name="uni1E9E" unicode="&#x1e9e;" horiz-adv-x="501" 
d="M490 173q0 -95 -43.5 -138t-111.5 -43q-34 0 -60 8t-44.5 30t-29 59.5t-13.5 97.5h113q2 -41 8.5 -58.5t22.5 -17.5q14 0 21 11.5t7 30.5q0 34 -23 67.5t-50.5 72.5t-50.5 87t-23 112q0 40 12 65t33 40q-53 -3 -71.5 -27t-18.5 -66v-504h-143v514q0 62 15 102.5t45.5 64
t78 32.5t113.5 9q30 0 66.5 -3.5t68.5 -8.5v-122q-27 -1 -44.5 -19.5t-17.5 -50.5q0 -33 10.5 -59.5t26 -50t33.5 -47t33.5 -51t26 -61t10.5 -76.5z" />
    <glyph glyph-name="Ygrave" unicode="&#x1ef2;" horiz-adv-x="399" 
d="M128 0v235l-139 479h164l47 -283h2l53 283h155l-134 -479v-235h-148zM97 906h133l18 -146h-89z" />
    <glyph glyph-name="ygrave" unicode="&#x1ef3;" horiz-adv-x="342" 
d="M244 -23q-8 -45 -17.5 -76t-26.5 -49.5t-44.5 -26.5t-70.5 -8q-18 0 -31.5 0.5t-28.5 2.5v101q19 -3 33 -3q19 0 27 7.5t11 23.5q1 9 1 18t-2 20l-99 563h141l35 -380h1l39 380h136l-104 -573v0zM133 596l-62 146h133l18 -146h-89z" />
    <glyph glyph-name="endash" unicode="&#x2013;" horiz-adv-x="500" 
d="M0 240v124h500v-124h-500z" />
    <glyph glyph-name="emdash" unicode="&#x2014;" horiz-adv-x="1000" 
d="M29 240v124h942v-124h-942z" />
    <glyph glyph-name="quoteleft" unicode="&#x2018;" horiz-adv-x="180" 
d="M29 519q0 48 5.5 83t20 59t38.5 37t61 16v-79q-9 -2 -17 -5.5t-14.5 -11.5t-10 -21.5t-3.5 -34.5v-10h45v-184h-125v151v0z" />
    <glyph glyph-name="quoteright" unicode="&#x2019;" horiz-adv-x="180" 
d="M152 563q0 -48 -6 -83t-20.5 -59t-38.5 -37t-61 -16v79q9 2 17 5.5t14.5 11.5t10 21.5t3.5 34.5v10h-44v184h125v-151v0z" />
    <glyph glyph-name="quotesinglbase" unicode="&#x201a;" horiz-adv-x="180" 
d="M152 37q0 -48 -6 -83t-20.5 -59t-38.5 -37t-61 -16v79q9 2 17 5.5t14.5 11.5t10 21.5t3.5 34.5v10h-44v184h125v-151z" />
    <glyph glyph-name="quotedblleft" unicode="&#x201c;" horiz-adv-x="341" 
d="M29 519q0 48 5.5 83t20 59t38.5 37t61 16v-79q-9 -2 -17 -5.5t-14.5 -11.5t-10 -21.5t-3.5 -34.5v-10h45v-184h-125v151zM190 519q0 48 6 83t20 59t38.5 37t60.5 16v-79q-9 -2 -17 -5.5t-14.5 -11.5t-10 -21.5t-3.5 -34.5v-10h45v-184h-125v151z" />
    <glyph glyph-name="quotedblright" unicode="&#x201d;" horiz-adv-x="341" 
d="M313 563q0 -48 -6 -83t-20 -59t-38.5 -37t-60.5 -16v79q9 2 17 5.5t14 11.5t9.5 21.5t3.5 34.5v10h-44v184h125v-151zM152 563q0 -48 -6 -83t-20.5 -59t-38.5 -37t-61 -16v79q9 2 17 5.5t14.5 11.5t10 21.5t3.5 34.5v10h-44v184h125v-151z" />
    <glyph glyph-name="quotedblbase" unicode="&#x201e;" horiz-adv-x="341" 
d="M313 37q0 -48 -6 -83t-20 -59t-38.5 -37t-60.5 -16v79q9 2 17 5.5t14 11.5t9.5 21.5t3.5 34.5v10h-44v184h125v-151zM152 37q0 -48 -6 -83t-20.5 -59t-38.5 -37t-61 -16v79q9 2 17 5.5t14.5 11.5t10 21.5t3.5 34.5v10h-44v184h125v-151z" />
    <glyph glyph-name="dagger" unicode="&#x2020;" horiz-adv-x="405" 
d="M145 -139v586h-134v103h134v164h115v-164h135v-103h-135v-586h-115z" />
    <glyph glyph-name="daggerdbl" unicode="&#x2021;" horiz-adv-x="405" 
d="M145 -139v199h-134v104h134v259h-134v103h134v188h115v-188h135v-103h-135v-259h135v-104h-135v-199h-115z" />
    <glyph glyph-name="bullet" unicode="&#x2022;" horiz-adv-x="500" 
d="M250 535q36 0 68.5 -14t56.5 -38t38.5 -56.5t14.5 -69.5q0 -36 -14 -68.5t-38 -57t-56.5 -38.5t-69.5 -14q-38 0 -70.5 14t-56.5 38.5t-37.5 57t-13.5 68.5q0 37 14 69.5t38 56.5t56.5 38t69.5 14z" />
    <glyph glyph-name="ellipsis" unicode="&#x2026;" horiz-adv-x="1000" 
d="M106 196h122v-196h-122v196zM439 196h122v-196h-122v196zM772 196h122v-196h-122v196z" />
    <glyph glyph-name="perthousand" unicode="&#x2030;" horiz-adv-x="724" 
d="M227 539q0 -91 -23 -129t-81 -38q-56 0 -78 38t-22 129q0 85 21 124t79 39q59 0 81.5 -39t22.5 -124zM140 539q0 30 -0.5 48t-2.5 28t-5.5 13.5t-8.5 3.5q-9 0 -12 -19t-3 -74q0 -30 0.5 -48.5t2 -29t4.5 -14t8 -3.5t8.5 4t5.5 14.5t2.5 29t0.5 47.5zM326 708h88
l-238 -716h-88zM482 163q0 -91 -23 -129t-81 -38q-56 0 -78 38t-22 129q0 42 4.5 72.5t16 51t31 30t48.5 9.5q59 0 81.5 -39t22.5 -124zM395 163q0 30 -0.5 48.5t-2.5 28t-5.5 13t-8.5 3.5q-9 0 -12 -19t-3 -74q0 -30 0.5 -48.5t2 -29t4.5 -14t8 -3.5t8.5 4t5.5 14.5t2.5 29
t0.5 47.5zM701 163q0 -91 -23 -129t-81 -38q-56 0 -78 38t-22 129q0 85 21 124t80 39t81 -38.5t22 -124.5zM615 163q0 30 -1 48.5t-3 28t-5 13t-8 3.5q-9 0 -12.5 -19t-3.5 -74q0 -30 0.5 -48.5t2 -29t4.5 -14t8 -3.5t8.5 4t5.5 14.5t3 29t1 47.5z" />
    <glyph glyph-name="guilsinglleft" unicode="&#x2039;" horiz-adv-x="190" 
d="M21 203v170l145 122v-149l-71 -56l71 -57v-149z" />
    <glyph glyph-name="guilsinglright" unicode="&#x203a;" horiz-adv-x="190" 
d="M25 84v149l70 57l-70 56v149l145 -122v-170z" />
    <glyph glyph-name="fraction" unicode="&#x2044;" horiz-adv-x="101" 
d="M126 708h88l-238 -716h-88z" />
    <glyph glyph-name="uni2070" unicode="&#x2070;" 
d="M264 615q0 -61 -6 -102.5t-20.5 -67t-39 -36.5t-62.5 -11t-62.5 11t-38.5 36.5t-20 67t-6 102.5q0 57 5 97t19 66t38.5 38t63.5 12q40 0 65 -12t39 -37.5t19.5 -66t5.5 -97.5zM158 615q0 44 -1 69.5t-3.5 38.5t-7 16.5t-11.5 3.5q-6 0 -10.5 -5.5t-6.5 -19.5t-3 -39
t-1 -64q0 -43 1 -69t3 -39.5t6.5 -18t11.5 -4.5t11.5 6t6.5 20.5t3 40t1 64.5z" />
    <glyph glyph-name="uni2074" unicode="&#x2074;" 
d="M143 403v73h-136v80l112 268h115v-269h34v-79h-34v-73h-91zM143 697h-2l-53 -142h55v142z" />
    <glyph glyph-name="uni2075" unicode="&#x2075;" 
d="M258 560q0 -91 -32.5 -126.5t-93.5 -35.5q-25 0 -46 5.5t-36 20t-24 40.5t-9 67h98q1 -32 4 -44.5t14 -12.5t15 17t4 56q0 38 -3.5 53.5t-16.5 15.5q-11 0 -14 -11t-4 -21h-91l9 238h210v-80h-127l-5 -84l1 1q20 32 64 32q25 0 41 -9.5t25.5 -26.5t13 -41t3.5 -54z" />
    <glyph glyph-name="uni2076" unicode="&#x2076;" 
d="M261 553q0 -44 -10 -73.5t-27 -47.5t-40 -26t-49 -8q-38 0 -62 11t-38 35t-19 62.5t-5 92.5q0 50 4 92t17.5 72.5t39 47.5t68.5 17q31 0 52 -9t33 -24t17 -36t6 -45h-88q-1 17 -4.5 27.5t-16.5 10.5q-17 0 -21.5 -24t-5.5 -82h1q22 37 65 37q17 0 32 -5.5t26.5 -20
t18 -39.5t6.5 -65zM154 539q0 39 -4.5 51.5t-15.5 12.5q-12 0 -16.5 -16.5t-4.5 -49.5q0 -38 4.5 -49.5t15.5 -11.5q6 0 10 2t6.5 9t3.5 19.5t1 32.5z" />
    <glyph glyph-name="uni2077" unicode="&#x2077;" 
d="M53 403q12 97 38.5 180t60.5 147h-141v91h246v-82q-39 -78 -62.5 -157.5t-33.5 -178.5h-108z" />
    <glyph glyph-name="uni2078" unicode="&#x2078;" 
d="M263 526q0 -72 -32.5 -100t-94.5 -28q-63 0 -95 28t-32 100q0 39 11 65.5t45 37.5v1q-47 18 -47 87q0 57 29.5 84t87.5 27q57 0 88 -26t31 -85q0 -36 -12.5 -57t-35.5 -30v-1q32 -10 44.5 -35t12.5 -68zM158 534q0 27 -4 43t-18 16t-18 -17.5t-4 -41.5q0 -31 3.5 -45.5
t18.5 -14.5q14 0 18 16t4 44zM156 707q0 23 -4 33.5t-16 10.5t-16.5 -10t-4.5 -35q0 -29 5 -39t16 -10t15.5 10.5t4.5 39.5z" />
    <glyph glyph-name="uni2079" unicode="&#x2079;" 
d="M8 675q0 44 10 73.5t27.5 47t41 25t49.5 7.5q37 0 61 -11t38 -35t19 -62.5t5 -92.5q0 -50 -4 -92t-17.5 -72.5t-39.5 -47.5t-69 -17q-32 0 -52.5 9t-32.5 24t-17 36t-6 45h88q1 -17 5 -28t15 -11q17 0 22.5 24.5t5.5 82.5h-1q-22 -37 -65 -37q-17 0 -32.5 5.5t-26.5 20.5
t-17.5 40.5t-6.5 65.5zM115 687q0 -39 4.5 -51.5t15.5 -12.5q12 0 16.5 16.5t4.5 48.5q0 39 -4.5 50.5t-15.5 11.5t-16 -11.5t-5 -51.5z" />
    <glyph glyph-name="uni2080" unicode="&#x2080;" 
d="M264 51q0 -61 -6 -102.5t-20.5 -67t-39 -36.5t-62.5 -11t-62.5 11t-38.5 36.5t-20 67t-6 102.5q0 57 5 97t19 66t38.5 38t63.5 12q40 0 65 -12t39 -37.5t19.5 -66t5.5 -97.5zM158 51q0 44 -1 69.5t-3.5 38.5t-7 16.5t-11.5 3.5q-6 0 -10.5 -5.5t-6.5 -19.5t-3 -39t-1 -64
q0 -43 1 -69t3 -39.5t6.5 -18t11.5 -4.5t11.5 6t6.5 20.5t3 40t1 64.5z" />
    <glyph glyph-name="uni2081" unicode="&#x2081;" 
d="M104 -161v295h-68v71q44 4 64.5 17.5t31.5 42.5h73v-426h-101z" />
    <glyph glyph-name="uni2082" unicode="&#x2082;" 
d="M19 -161v20q0 43 22.5 81.5t61.5 88.5q26 33 40.5 58.5t14.5 57.5q0 21 -5 29.5t-16 8.5t-16.5 -15.5t-5.5 -43.5h-97q0 33 6 59.5t20.5 44.5t37.5 27.5t58 9.5q59 0 89.5 -29t30.5 -92q0 -26 -7 -48t-18 -40.5t-24 -34.5t-25 -29q-17 -19 -30 -36t-20 -34h121v-83h-238z
" />
    <glyph glyph-name="uni2083" unicode="&#x2083;" 
d="M259 -36q0 -41 -12 -66.5t-30.5 -39.5t-41 -19t-44.5 -5q-68 0 -95.5 35t-26.5 105h99q2 -38 7 -51.5t17 -13.5t18.5 11t6.5 43q0 19 -2 30.5t-7 18t-15.5 9t-26.5 2.5v67q29 0 38.5 9.5t9.5 43.5q0 24 -5 33t-17 9q-14 0 -18 -14.5t-4 -38.5h-97q4 68 32 100t93 32
q23 0 44.5 -5.5t37.5 -18t25.5 -32.5t9.5 -50q0 -43 -16 -65.5t-44 -30.5v-2q35 -9 49.5 -31t14.5 -65z" />
    <glyph glyph-name="uni2084" unicode="&#x2084;" 
d="M143 -161v73h-136v80l112 268h115v-269h34v-79h-34v-73h-91zM143 133h-2l-53 -142h55v142z" />
    <glyph glyph-name="uni2085" unicode="&#x2085;" 
d="M258 -4q0 -91 -32.5 -126.5t-93.5 -35.5q-25 0 -46 5.5t-36 20t-24 40.5t-9 67h98q1 -32 4 -44.5t14 -12.5t15 17t4 56q0 38 -3.5 53.5t-16.5 15.5q-11 0 -14 -11t-4 -21h-91l9 238h210v-80h-127l-5 -84l1 1q20 32 64 32q25 0 41 -9.5t25.5 -26.5t13 -41t3.5 -54z" />
    <glyph glyph-name="uni2086" unicode="&#x2086;" 
d="M261 -11q0 -44 -10 -73.5t-27 -47.5t-40 -26t-49 -8q-38 0 -62 11t-38 35t-19 62.5t-5 92.5q0 50 4 92t17.5 72.5t39 47.5t68.5 17q31 0 52 -9t33 -24t17 -36t6 -45h-88q-1 17 -4.5 27.5t-16.5 10.5q-17 0 -21.5 -24t-5.5 -82h1q22 37 65 37q17 0 32 -5.5t26.5 -20
t18 -39.5t6.5 -65zM154 -25q0 39 -4.5 51.5t-15.5 12.5q-12 0 -16.5 -16.5t-4.5 -49.5q0 -38 4.5 -49.5t15.5 -11.5q6 0 10 2t6.5 9t3.5 19.5t1 32.5z" />
    <glyph glyph-name="uni2087" unicode="&#x2087;" 
d="M53 -161q12 97 38.5 180t60.5 147h-141v91h246v-82q-39 -78 -62.5 -157.5t-33.5 -178.5h-108z" />
    <glyph glyph-name="uni2088" unicode="&#x2088;" 
d="M263 -38q0 -72 -32.5 -100t-94.5 -28q-63 0 -95 28t-32 100q0 39 11 65.5t45 37.5v1q-47 18 -47 87q0 57 29.5 84t87.5 27q57 0 88 -26t31 -85q0 -36 -12.5 -57t-35.5 -30v-1q32 -10 44.5 -35t12.5 -68zM158 -30q0 27 -4 43t-18 16t-18 -17.5t-4 -41.5q0 -31 3.5 -45.5
t18.5 -14.5q14 0 18 16t4 44zM156 143q0 23 -4 33.5t-16 10.5t-16.5 -10t-4.5 -35q0 -29 5 -39t16 -10t15.5 10.5t4.5 39.5z" />
    <glyph glyph-name="uni2089" unicode="&#x2089;" 
d="M8 111q0 44 10 73.5t27.5 47t41 25t49.5 7.5q37 0 61 -11t38 -35t19 -62.5t5 -92.5q0 -50 -4 -92t-17.5 -72.5t-39.5 -47.5t-69 -17q-32 0 -52.5 9t-32.5 24t-17 36t-6 45h88q1 -17 5 -28t15 -11q17 0 22.5 24.5t5.5 82.5h-1q-22 -37 -65 -37q-17 0 -32.5 5.5t-26.5 20.5
t-17.5 40.5t-6.5 65.5zM115 123q0 -39 4.5 -51.5t15.5 -12.5q12 0 16.5 16.5t4.5 48.5q0 39 -4.5 50.5t-15.5 11.5t-16 -11.5t-5 -51.5z" />
    <glyph glyph-name="Euro" unicode="&#x20ac;" horiz-adv-x="401" 
d="M221 236q7 -62 26.5 -90t58.5 -28q27 0 46.5 7t41.5 21v-128q-28 -14 -56.5 -19.5t-66.5 -5.5q-47 0 -81.5 13.5t-59 43t-39 75.5t-20.5 111h-62l18 86h39v44v12h-56l17 86h44q7 70 26 117t47.5 74.5t66 39t81.5 11.5q32 0 61 -6.5t54 -20.5l-25 -121q-17 14 -34 19.5
t-33 5.5q-40 0 -62.5 -26.5t-31.5 -92.5h145l-17 -86h-133v-14v-42h124l-18 -86h-101z" />
    <glyph glyph-name="uni20B9" unicode="&#x20b9;" horiz-adv-x="401" 
d="M339 475q-2 -78 -40 -122t-103 -58l168 -295h-167l-160 288v78h34q54 0 87 24.5t37 84.5h-158v82h145q-16 29 -44.5 40.5t-60.5 11.5h-40v86h339v-81h-86q26 -23 38 -57h48v-82h-37z" />
    <glyph glyph-name="uni20BA" unicode="&#x20ba;" horiz-adv-x="401" 
d="M194 319v-196h3q37 0 50 37t14 112h122q0 -86 -16 -139t-45.5 -82.5t-71 -40t-93.5 -10.5h-95v249l-40 -21v93l40 21v60l-40 -21v94l40 21v199h132v-129l94 50v-94l-94 -50v-60l94 50v-93z" />
    <glyph glyph-name="afii61289" unicode="&#x2113;" horiz-adv-x="407" 
d="M370 573q0 -86 -42 -160t-122 -150v-117q0 -28 11 -45.5t40 -17.5q16 0 35.5 6t39.5 22l39 -69q-31 -29 -66.5 -42t-75.5 -13q-62 0 -99.5 36t-37.5 122v20l-39 -34l-45 74l84 71v263q0 39 10 72.5t29 58t47 38t64 13.5q33 0 57.5 -11t40 -31t23 -47t7.5 -59zM206 374
q71 88 71 191q0 33 -7.5 51t-27.5 18q-11 0 -18 -6.5t-11 -17t-5.5 -22.5t-1.5 -24v-190z" />
    <glyph glyph-name="trademark" unicode="&#x2122;" horiz-adv-x="506" 
d="M399 357v230h-1l-24 -230h-58l-24 230h-2v-230h-76v357h103l27 -228h1l22 228h109v-357h-77zM62 357v284h-51v73h188v-73h-51v-284h-86z" />
    <glyph glyph-name="uni2126" unicode="&#x2126;" horiz-adv-x="425" 
d="M223 0v134q7 7 13.5 21.5t11 41t7.5 67.5t3 101q0 73 -2 118.5t-7 70.5t-14 33.5t-24 8.5q-14 0 -22.5 -9t-13.5 -34.5t-7 -70.5t-2 -117q0 -61 3 -102.5t8 -68t11 -40.5t13 -20v-134h-184v134h70q-19 22 -31.5 54.5t-20.5 70t-11.5 77.5t-3.5 78q0 68 7 125t27.5 97.5
t58 63t98.5 22.5q62 0 100 -22.5t58.5 -63t27.5 -97t7 -125.5q0 -38 -3.5 -78t-11 -77.5t-20 -70t-30.5 -54.5h67v-134h-183z" />
    <glyph glyph-name="estimated" unicode="&#x212e;" horiz-adv-x="830" 
d="M415 671q77 0 145.5 -26t120.5 -72.5t82 -110t30 -138.5h-608q-10 0 -10 -11v-197q48 -51 111 -78.5t129 -27.5q75 0 140.5 33t111.5 88h57q-57 -69 -139.5 -105.5t-169.5 -36.5q-75 0 -143.5 25t-121 70t-83.5 107.5t-31 138.5q0 73 30 135.5t81.5 108.5t120.5 71.5
t147 25.5zM415 650q-70 0 -133 -28t-107 -79v-185q0 -11 10 -11h461q9 0 9 11v184q-45 52 -109 80t-131 28z" />
    <glyph glyph-name="partialdiff" unicode="&#x2202;" horiz-adv-x="433" 
d="M416 352q0 -67 -7.5 -132t-30 -116t-65.5 -82.5t-113 -31.5q-91 0 -137.5 62.5t-46.5 168.5q0 47 11 88.5t32.5 72t52.5 48t71 17.5q32 0 59.5 -11.5t47.5 -31.5q0 42 -5.5 77t-17.5 60.5t-31.5 39.5t-47.5 14q-24 0 -41 -7.5t-40 -26.5l-71 91q36 33 72.5 50t85.5 17
q72 0 116 -30.5t67.5 -81t31 -117t7.5 -138.5zM283 280q-12 20 -30.5 32t-38.5 12q-18 0 -31 -9.5t-21.5 -25t-13 -35t-4.5 -39.5t3 -38.5t10.5 -32.5t19.5 -23t29 -9q23 0 38 14t23.5 36.5t12 49.5t3.5 53v15z" />
    <glyph glyph-name="uni2206" unicode="&#x2206;" horiz-adv-x="400" 
d="M-3 0l102 714h201l104 -714h-407zM197 566h-2l-40 -432h87z" />
    <glyph glyph-name="product" unicode="&#x220f;" horiz-adv-x="563" 
d="M391 -206v856h-218v-856h-148v990h513v-990h-147z" />
    <glyph glyph-name="summation" unicode="&#x2211;" horiz-adv-x="501" 
d="M-4 -206v116l225 385l-214 372v117h487v-133h-303l199 -356l-214 -368h329v-133h-509z" />
    <glyph glyph-name="minus" unicode="&#x2212;" horiz-adv-x="401" 
d="M18 198v111h365v-111h-365z" />
    <glyph glyph-name="uni2215" unicode="&#x2215;" horiz-adv-x="101" 
d="M126 708h88l-238 -716h-88z" />
    <glyph glyph-name="uni2219" unicode="&#x2219;" horiz-adv-x="401" 
d="M138 154v197h122v-197h-122z" />
    <glyph glyph-name="radical" unicode="&#x221a;" horiz-adv-x="499" 
d="M324 -214h-108l-123 302l-48 -20l-42 104l156 68l92 -238l137 784h123z" />
    <glyph glyph-name="infinity" unicode="&#x221e;" horiz-adv-x="716" 
d="M697 276q0 -45 -12 -82.5t-34 -64.5t-53 -42t-68 -15q-45 0 -90.5 27t-81.5 90q-19 -33 -40 -55.5t-42.5 -36t-43.5 -19t-43 -5.5q-36 0 -67.5 14.5t-54 40.5t-35.5 63.5t-13 84.5q0 46 13 83t35.5 62.5t52.5 39t65 13.5q17 0 36 -3t40.5 -15t45.5 -36.5t51 -68.5
q25 43 48.5 67.5t45.5 37t41.5 15.5t37.5 3q37 0 68 -14.5t52.5 -40.5t33.5 -62.5t12 -80.5zM599 274q0 36 -21 60t-53 24q-9 0 -20 -2.5t-25 -11.5t-31 -26t-37 -46q21 -29 38 -45.5t31 -25t25.5 -10.5t20.5 -2q28 0 50 21.5t22 63.5zM303 272q-20 27 -37 44t-31.5 26.5
t-26.5 12.5t-21 3q-28 0 -48.5 -24.5t-20.5 -60.5q0 -38 20.5 -60.5t50.5 -22.5q11 0 23.5 3t26.5 12t30 25t34 42z" />
    <glyph glyph-name="integral" unicode="&#x222b;" horiz-adv-x="389" 
d="M406 697q0 -28 -17 -46t-46 -18q-31 0 -42 14.5t-15 32.5t-6.5 32.5t-15.5 14.5q-9 0 -15 -9t-8 -35q0 -15 0.5 -40t1.5 -51.5t2 -50.5t1 -37v-420q0 -46 -4.5 -98.5t-22 -97t-52.5 -74t-97 -29.5q-24 0 -46 6.5t-39.5 18t-27.5 28t-10 36.5q0 29 17.5 46.5t44.5 17.5
q30 0 41.5 -14.5t16 -32t7.5 -32t15 -14.5q9 0 14.5 9.5t6.5 32.5q1 13 0.5 36.5t-2 48.5t-2.5 47.5t-1 34.5v467q0 51 8 99t28.5 84.5t54.5 59t87 22.5q24 0 46 -6t39.5 -17.5t27.5 -28t10 -37.5z" />
    <glyph glyph-name="approxequal" unicode="&#x2248;" horiz-adv-x="436" 
d="M432 136q-20 -35 -51.5 -58.5t-73.5 -23.5q-30 0 -51 9.5t-39 21t-36.5 21t-43.5 9.5t-46.5 -14.5t-42.5 -47.5l-45 109q20 35 51.5 58t73.5 23q33 0 55.5 -9.5t40.5 -20.5t35 -20.5t39 -9.5q25 0 47 14t42 47zM432 345q-20 -35 -51.5 -58.5t-73.5 -23.5q-30 0 -51 9.5
t-39 21t-36.5 21t-43.5 9.5t-46.5 -14.5t-42.5 -47.5l-45 108q20 35 51.5 58.5t73.5 23.5q33 0 55.5 -9.5t40.5 -21t35 -21t39 -9.5q25 0 47 14.5t42 47.5z" />
    <glyph glyph-name="notequal" unicode="&#x2260;" horiz-adv-x="401" 
d="M189 109l-54 -114l-90 39l35 75h-62v111h112l33 67h-145v112h195l53 113l91 -40l-35 -73h61v-112h-112l-32 -67h144v-111h-194z" />
    <glyph glyph-name="lessequal" unicode="&#x2264;" horiz-adv-x="401" 
d="M19 33v112h365v-112h-365zM384 373l-252 -55l252 -53v-109l-365 89v149l365 88v-109z" />
    <glyph glyph-name="greaterequal" unicode="&#x2265;" horiz-adv-x="401" 
d="M17 33v112h365v-112h-365zM17 156v109l251 53l-251 55v109l365 -88v-149z" />
    <glyph glyph-name="lozenge" unicode="&#x25ca;" horiz-adv-x="449" 
d="M293 -35h-139l-151 391l153 391h137l153 -391zM224 613l-96 -257l96 -257l97 257z" />
    <glyph glyph-name="uniE000" unicode="&#xe000;" 
d="M264 213q0 -61 -6 -102.5t-20.5 -67t-39 -36.5t-62.5 -11t-62.5 11t-38.5 36.5t-20 67t-6 102.5q0 57 5 97t19 66t38.5 38t63.5 12q40 0 65 -12t39 -37.5t19.5 -66t5.5 -97.5zM158 213q0 44 -1 69.5t-3.5 38.5t-7 16.5t-11.5 3.5q-6 0 -10.5 -5.5t-6.5 -19.5t-3 -39
t-1 -64q0 -43 1 -69t3 -39.5t6.5 -18t11.5 -4.5t11.5 6t6.5 20.5t3 40t1 64.5z" />
    <glyph glyph-name="uniE001" unicode="&#xe001;" 
d="M104 1v295h-68v71q44 4 64.5 17.5t31.5 42.5h73v-426h-101z" />
    <glyph glyph-name="uniE002" unicode="&#xe002;" 
d="M19 1v20q0 43 22.5 81.5t61.5 88.5q26 33 40.5 58.5t14.5 57.5q0 21 -5 29.5t-16 8.5t-16.5 -15.5t-5.5 -43.5h-97q0 33 6 59.5t20.5 44.5t37.5 27.5t58 9.5q59 0 89.5 -29t30.5 -92q0 -26 -7 -48t-18 -40.5t-24 -34.5t-25 -29q-17 -19 -30 -36t-20 -34h121v-83h-238z
" />
    <glyph glyph-name="uniE003" unicode="&#xe003;" 
d="M259 126q0 -41 -12 -66.5t-30.5 -39.5t-41 -19t-44.5 -5q-68 0 -95.5 35t-26.5 105h99q2 -38 7 -51.5t17 -13.5t18.5 11t6.5 43q0 19 -2 30.5t-7 18t-15.5 9t-26.5 2.5v67q29 0 38.5 9.5t9.5 43.5q0 24 -5 33t-17 9q-14 0 -18 -14.5t-4 -38.5h-97q4 68 32 100t93 32
q23 0 44.5 -5.5t37.5 -18t25.5 -32.5t9.5 -50q0 -43 -16 -65.5t-44 -30.5v-2q35 -9 49.5 -31t14.5 -65z" />
    <glyph glyph-name="uniE004" unicode="&#xe004;" 
d="M143 1v73h-136v80l112 268h115v-269h34v-79h-34v-73h-91zM143 295h-2l-53 -142h55v142z" />
    <glyph glyph-name="uniE005" unicode="&#xe005;" 
d="M258 158q0 -91 -32.5 -126.5t-93.5 -35.5q-25 0 -46 5.5t-36 20t-24 40.5t-9 67h98q1 -32 4 -44.5t14 -12.5t15 17t4 56q0 38 -3.5 53.5t-16.5 15.5q-11 0 -14 -11t-4 -21h-91l9 238h210v-80h-127l-5 -84l1 1q20 32 64 32q25 0 41 -9.5t25.5 -26.5t13 -41t3.5 -54z" />
    <glyph glyph-name="uniE006" unicode="&#xe006;" 
d="M261 151q0 -44 -10 -73.5t-27 -47.5t-40 -26t-49 -8q-38 0 -62 11t-38 35t-19 62.5t-5 92.5q0 50 4 92t17.5 72.5t39 47.5t68.5 17q31 0 52 -9t33 -24t17 -36t6 -45h-88q-1 17 -4.5 27.5t-16.5 10.5q-17 0 -21.5 -24t-5.5 -82h1q22 37 65 37q17 0 32 -5.5t26.5 -20
t18 -39.5t6.5 -65zM154 137q0 39 -4.5 51.5t-15.5 12.5q-12 0 -16.5 -16.5t-4.5 -49.5q0 -38 4.5 -49.5t15.5 -11.5q6 0 10 2t6.5 9t3.5 19.5t1 32.5z" />
    <glyph glyph-name="uniE007" unicode="&#xe007;" 
d="M53 1q12 97 38.5 180t60.5 147h-141v91h246v-82q-39 -78 -62.5 -157.5t-33.5 -178.5h-108z" />
    <glyph glyph-name="uniE008" unicode="&#xe008;" 
d="M263 124q0 -72 -32.5 -100t-94.5 -28q-63 0 -95 28t-32 100q0 39 11 65.5t45 37.5v1q-47 18 -47 87q0 57 29.5 84t87.5 27q57 0 88 -26t31 -85q0 -36 -12.5 -57t-35.5 -30v-1q32 -10 44.5 -35t12.5 -68zM158 132q0 27 -4 43t-18 16t-18 -17.5t-4 -41.5q0 -31 3.5 -45.5
t18.5 -14.5q14 0 18 16t4 44zM156 305q0 23 -4 33.5t-16 10.5t-16.5 -10t-4.5 -35q0 -29 5 -39t16 -10t15.5 10.5t4.5 39.5z" />
    <glyph glyph-name="uniE009" unicode="&#xe009;" 
d="M8 273q0 44 10 73.5t27.5 47t41 25t49.5 7.5q37 0 61 -11t38 -35t19 -62.5t5 -92.5q0 -50 -4 -92t-17.5 -72.5t-39.5 -47.5t-69 -17q-32 0 -52.5 9t-32.5 24t-17 36t-6 45h88q1 -17 5 -28t15 -11q17 0 22.5 24.5t5.5 82.5h-1q-22 -37 -65 -37q-17 0 -32.5 5.5t-26.5 20.5
t-17.5 40.5t-6.5 65.5zM115 285q0 -39 4.5 -51.5t15.5 -12.5q12 0 16.5 16.5t4.5 48.5q0 39 -4.5 50.5t-15.5 11.5t-16 -11.5t-5 -51.5z" />
    <glyph glyph-name="uniE00A" unicode="&#xe00a;" 
d="M264 489q0 -61 -6 -102.5t-20.5 -67t-39 -36.5t-62.5 -11t-62.5 11t-38.5 36.5t-20 67t-6 102.5q0 57 5 97t19 66t38.5 38t63.5 12q40 0 65 -12t39 -37.5t19.5 -66t5.5 -97.5zM158 489q0 44 -1 69.5t-3.5 38.5t-7 16.5t-11.5 3.5q-6 0 -10.5 -5.5t-6.5 -19.5t-3 -39
t-1 -64q0 -43 1 -69t3 -39.5t6.5 -18t11.5 -4.5t11.5 6t6.5 20.5t3 40t1 64.5z" />
    <glyph glyph-name="uniE00B" unicode="&#xe00b;" 
d="M104 277v295h-68v71q44 4 64.5 17.5t31.5 42.5h73v-426h-101z" />
    <glyph glyph-name="uniE00C" unicode="&#xe00c;" 
d="M19 277v20q0 43 22.5 81.5t61.5 88.5q26 33 40.5 58.5t14.5 57.5q0 21 -5 29.5t-16 8.5t-16.5 -15.5t-5.5 -43.5h-97q0 33 6 59.5t20.5 44.5t37.5 27.5t58 9.5q59 0 89.5 -29t30.5 -92q0 -26 -7 -48t-18 -40.5t-24 -34.5t-25 -29q-17 -19 -30 -36t-20 -34h121v-83h-238z
" />
    <glyph glyph-name="uniE00D" unicode="&#xe00d;" 
d="M259 402q0 -41 -12 -66.5t-30.5 -39.5t-41 -19t-44.5 -5q-68 0 -95.5 35t-26.5 105h99q2 -38 7 -51.5t17 -13.5t18.5 11t6.5 43q0 19 -2 30.5t-7 18t-15.5 9t-26.5 2.5v67q29 0 38.5 9.5t9.5 43.5q0 24 -5 33t-17 9q-14 0 -18 -14.5t-4 -38.5h-97q4 68 32 100t93 32
q23 0 44.5 -5.5t37.5 -18t25.5 -32.5t9.5 -50q0 -43 -16 -65.5t-44 -30.5v-2q35 -9 49.5 -31t14.5 -65z" />
    <glyph glyph-name="uniE00E" unicode="&#xe00e;" 
d="M143 277v73h-136v80l112 268h115v-269h34v-79h-34v-73h-91zM143 571h-2l-53 -142h55v142z" />
    <glyph glyph-name="uniE00F" unicode="&#xe00f;" 
d="M258 434q0 -91 -32.5 -126.5t-93.5 -35.5q-25 0 -46 5.5t-36 20t-24 40.5t-9 67h98q1 -32 4 -44.5t14 -12.5t15 17t4 56q0 38 -3.5 53.5t-16.5 15.5q-11 0 -14 -11t-4 -21h-91l9 238h210v-80h-127l-5 -84l1 1q20 32 64 32q25 0 41 -9.5t25.5 -26.5t13 -41t3.5 -54z" />
    <glyph glyph-name="uniE010" unicode="&#xe010;" 
d="M261 427q0 -44 -10 -73.5t-27 -47.5t-40 -26t-49 -8q-38 0 -62 11t-38 35t-19 62.5t-5 92.5q0 50 4 92t17.5 72.5t39 47.5t68.5 17q31 0 52 -9t33 -24t17 -36t6 -45h-88q-1 17 -4.5 27.5t-16.5 10.5q-17 0 -21.5 -24t-5.5 -82h1q22 37 65 37q17 0 32 -5.5t26.5 -20
t18 -39.5t6.5 -65zM154 413q0 39 -4.5 51.5t-15.5 12.5q-12 0 -16.5 -16.5t-4.5 -49.5q0 -38 4.5 -49.5t15.5 -11.5q6 0 10 2t6.5 9t3.5 19.5t1 32.5z" />
    <glyph glyph-name="uniE011" unicode="&#xe011;" 
d="M53 277q12 97 38.5 180t60.5 147h-141v91h246v-82q-39 -78 -62.5 -157.5t-33.5 -178.5h-108z" />
    <glyph glyph-name="uniE012" unicode="&#xe012;" 
d="M263 400q0 -72 -32.5 -100t-94.5 -28q-63 0 -95 28t-32 100q0 39 11 65.5t45 37.5v1q-47 18 -47 87q0 57 29.5 84t87.5 27q57 0 88 -26t31 -85q0 -36 -12.5 -57t-35.5 -30v-1q32 -10 44.5 -35t12.5 -68zM158 408q0 27 -4 43t-18 16t-18 -17.5t-4 -41.5q0 -31 3.5 -45.5
t18.5 -14.5q14 0 18 16t4 44zM156 581q0 23 -4 33.5t-16 10.5t-16.5 -10t-4.5 -35q0 -29 5 -39t16 -10t15.5 10.5t4.5 39.5z" />
    <glyph glyph-name="uniE013" unicode="&#xe013;" 
d="M8 549q0 44 10 73.5t27.5 47t41 25t49.5 7.5q37 0 61 -11t38 -35t19 -62.5t5 -92.5q0 -50 -4 -92t-17.5 -72.5t-39.5 -47.5t-69 -17q-32 0 -52.5 9t-32.5 24t-17 36t-6 45h88q1 -17 5 -28t15 -11q17 0 22.5 24.5t5.5 82.5h-1q-22 -37 -65 -37q-17 0 -32.5 5.5t-26.5 20.5
t-17.5 40.5t-6.5 65.5zM115 561q0 -39 4.5 -51.5t15.5 -12.5q12 0 16.5 16.5t4.5 48.5q0 39 -4.5 50.5t-15.5 11.5t-16 -11.5t-5 -51.5z" />
    <glyph glyph-name="uniE014" unicode="&#xe014;" horiz-adv-x="405" 
d="M248 598v125h133v-125h-133zM248 0v550h133v-550h-133zM44 0v443h-38v107h38v23q0 36 5 63.5t19 47t38 29.5t62 10h29.5t30.5 -2v-102q-6 1 -8.5 1h-4.5q-20 0 -26.5 -10.5t-6.5 -36.5v-23h42v-107h-46v-443h-134z" />
    <glyph glyph-name="uniE015" unicode="&#xe015;" horiz-adv-x="409" 
d="M250 0v717h134v-717h-134zM44 0v443h-38v107h38v23q0 36 5 63.5t19 47t38 29.5t62 10h29.5t30.5 -2v-102q-6 1 -8.5 1h-4.5q-20 0 -26.5 -10.5t-6.5 -36.5v-23h42v-107h-46v-443h-134z" />
    <glyph glyph-name="uniE016" unicode="&#xe016;" horiz-adv-x="0" 
d="M-55 760h-157l-55 146h88l46 -79l44 79h89z" />
    <glyph glyph-name="uniE017" unicode="&#xe017;" horiz-adv-x="0" 
d="M-256 784v85h256v-85h-256z" />
    <glyph glyph-name="uniE018" unicode="&#xe018;" horiz-adv-x="0" 
d="M-89 760l-44 78l-46 -78h-88l55 146h157l55 -146h-89z" />
    <glyph glyph-name="uniE019" unicode="&#xe019;" horiz-adv-x="0" 
d="M-92 764v129h92v-129h-92z" />
    <glyph glyph-name="uniE01A" unicode="&#xe01a;" horiz-adv-x="0" 
d="M-224 764v129h93v-129h-93zM-92 764v129h92v-129h-92z" />
    <glyph glyph-name="uniE01B" unicode="&#xe01b;" horiz-adv-x="0" 
d="M-62 760h-89l18 146h133z" />
    <glyph glyph-name="uniE01C" unicode="&#xe01c;" horiz-adv-x="0" 
d="M-62 760h-89l18 146h133zM-216 760h-90l19 146h133z" />
    <glyph glyph-name="uniE01D" unicode="&#xe01d;" horiz-adv-x="0" 
d="M-133 759q-56 0 -89.5 31.5t-38.5 105.5h80q2 -25 14 -39t35 -14t36.5 14t15.5 39h80q-3 -37 -13.5 -63t-28 -42.5t-41 -24t-50.5 -7.5z" />
    <glyph glyph-name="uniE01E" unicode="&#xe01e;" horiz-adv-x="0" 
d="M0 893q-2 -62 -21 -97.5t-63 -35.5q-15 0 -27 5.5t-22.5 12t-21.5 12t-23 5.5q-11 0 -18 -9.5t-8 -25.5h-65q1 62 20.5 98t62.5 36q15 0 27 -5.5t22.5 -12.5t21.5 -12.5t23 -5.5q11 0 18 10t9 25h65v0z" />
    <glyph glyph-name="uniE01F" unicode="&#xe01f;" horiz-adv-x="0" 
d="M-151 906h133l18 -146h-89z" />
    <glyph glyph-name="uniE020" unicode="&#xe020;" horiz-adv-x="0" 
d="M0 854q0 -52 -32.5 -83.5t-80.5 -31.5q-23 0 -43.5 8.5t-36 23.5t-24.5 36t-9 47q0 25 9 46.5t24 36.5t35.5 23.5t44.5 8.5q22 0 42.5 -8t36.5 -22.5t25 -36t9 -48.5zM-61 854q0 23 -14.5 38.5t-37.5 15.5q-21 0 -36.5 -14t-15.5 -40q0 -23 14.5 -38t37.5 -15q22 0 37 15
t15 38z" />
    <glyph glyph-name="uniF8FF" unicode="&#xf8ff;" horiz-adv-x="512" 
d="M512 718v-718h-512v718h512zM462 50v617h-412v-617h412zM259 609q54 0 89 -36t35 -95q0 -38 -16 -65t-48 -56q-33 -30 -40 -46q-8 -19 -8 -77h-46q-1 5 -1.5 9.5t-0.5 9.5q0 21 3 45t12 38q19 30 47 58q16 16 31.5 33.5t15.5 46.5q0 17 -6 32.5t-16 27t-24 18.5t-30 7
q-33 0 -54.5 -23.5t-27.5 -71.5l-50 8q7 68 41.5 102.5t93.5 34.5zM222 184h56v-67h-56v67z" />
    <glyph glyph-name="uniFB00" unicode="&#xfb00;" horiz-adv-x="430" 
d="M247 0v443h-69v-443h-134v443h-38v107h38v23q0 36 5 63.5t19 47t38 29.5t62 10h29.5t30.5 -2v-102q-6 1 -8.5 1h-4.5q-20 0 -26.5 -10.5t-6.5 -36.5v-23h65v23q0 36 5 63.5t19 47t38 29.5t62 10h29.5t31.5 -2v-102q-7 1 -9.5 1h-4.5q-20 0 -26.5 -10.5t-6.5 -36.5v-23h42
v-107h-46v-443h-134z" />
    <glyph glyph-name="uniFB01" unicode="&#xfb01;" horiz-adv-x="405" 
d="M248 598v125h133v-125h-133zM248 0v550h133v-550h-133zM44 0v443h-38v107h38v23q0 36 5 63.5t19 47t38 29.5t62 10h29.5t30.5 -2v-102q-6 1 -8.5 1h-4.5q-20 0 -26.5 -10.5t-6.5 -36.5v-23h42v-107h-46v-443h-134z" />
    <glyph glyph-name="uniFB02" unicode="&#xfb02;" horiz-adv-x="409" 
d="M250 0v717h134v-717h-134zM44 0v443h-38v107h38v23q0 36 5 63.5t19 47t38 29.5t62 10h29.5t30.5 -2v-102q-6 1 -8.5 1h-4.5q-20 0 -26.5 -10.5t-6.5 -36.5v-23h42v-107h-46v-443h-134z" />
    <glyph glyph-name="uniFB03" unicode="&#xfb03;" horiz-adv-x="630" 
d="M474 598v125h133v-125h-133zM474 0v550h133v-550h-133zM268 0v443h-69v-443h-134v443h-38v107h38v23q0 36 5 63.5t19 47t38 29.5t62 10h29.5t30.5 -2v-102q-6 1 -8.5 1h-4.5q-20 0 -26.5 -10.5t-6.5 -36.5v-23h65v23q0 36 5 63.5t19 47t38 29.5t62 10h29.5t31.5 -2v-102
q-7 1 -9.5 1h-4.5q-20 0 -26.5 -10.5t-6.5 -36.5v-23h42v-107h-46v-443h-134z" />
    <glyph glyph-name="uniFB04" unicode="&#xfb04;" horiz-adv-x="634" 
d="M268 0v443h-69v-443h-134v443h-38v107h38v23q0 36 5 63.5t19 47t38 29.5t62 10h29.5t30.5 -2v-102q-6 1 -8.5 1h-4.5q-20 0 -26.5 -10.5t-6.5 -36.5v-23h65v23q0 36 5 63.5t19 47t38 29.5t62 10h29.5t31.5 -2v-102q-7 1 -9.5 1h-4.5q-20 0 -26.5 -10.5t-6.5 -36.5v-23h42
v-107h-46v-443h-134zM476 0v717h134v-717h-134z" />
    <glyph glyph-name="glyph132" horiz-adv-x="271" 
d="M60 906h133l18 -146h-89z" />
    <glyph glyph-name="glyph134" horiz-adv-x="271" 
d="M149 760h-89l18 146h133z" />
    <glyph glyph-name="glyph136" horiz-adv-x="271" 
d="M180 760l-44 78l-46 -78h-88l55 146h157l55 -146h-89z" />
    <glyph glyph-name="glyph138" horiz-adv-x="271" 
d="M270 893q-2 -62 -21 -97.5t-63 -35.5q-15 0 -27 5.5t-22.5 12t-21.5 12t-23 5.5q-11 0 -18 -9.5t-8 -25.5h-65q1 62 20.5 98t62.5 36q15 0 27 -5.5t22.5 -12.5t21.5 -12.5t23 -5.5q11 0 18 10t9 25h65v0z" />
    <glyph glyph-name="glyph140" horiz-adv-x="271" 
d="M23 764v129h93v-129h-93zM155 764v129h92v-129h-92z" />
    <glyph glyph-name="glyph142" horiz-adv-x="271" 
d="M249 854q0 -52 -32.5 -83.5t-80.5 -31.5q-23 0 -43.5 8.5t-36 23.5t-24.5 36t-9 47q0 25 9 46.5t24 36.5t35.5 23.5t44.5 8.5q22 0 42.5 -8t36.5 -22.5t25 -36t9 -48.5zM188 854q0 23 -14.5 38.5t-37.5 15.5q-21 0 -36.5 -14t-15.5 -40q0 -23 14.5 -38t37.5 -15
q22 0 37 15t15 38z" />
    <glyph glyph-name="glyph206" horiz-adv-x="271" 
d="M7 784v85h256v-85h-256z" />
    <glyph glyph-name="glyph209" horiz-adv-x="271" 
d="M133 759q-56 0 -89.5 31.5t-38.5 105.5h80q2 -25 14 -39t35 -14t36.5 14t15.5 39h80q-3 -37 -13.5 -63t-28 -42.5t-41 -24t-50.5 -7.5z" />
    <glyph glyph-name="glyph219" horiz-adv-x="271" 
d="M89 764v129h92v-129h-92z" />
    <glyph glyph-name="glyph223" horiz-adv-x="271" 
d="M214 760h-157l-55 146h88l46 -79l44 79h89z" />
    <glyph glyph-name="glyph228" horiz-adv-x="271" 
d="M161 583h-91l5 134h127z" />
    <glyph glyph-name="glyph249" horiz-adv-x="271" 
d="M182 -50v-95q0 -38 -17.5 -63.5t-70.5 -30.5v42q17 3 26 13t10 30h-40v104h92z" />
    <glyph glyph-name="glyph251" horiz-adv-x="271" 
d="M89 596v95q0 38 17.5 63.5t70.5 30.5v-41q-35 -6 -36 -45h40v-103h-92z" />
    <glyph glyph-name="glyph298" horiz-adv-x="271" 
d="M226 760h-89l18 146h133zM72 760h-90l19 146h133z" />
  </font>
</defs>
</svg>
